<?xml version="1.0" encoding="UTF-8"?>
<!-- Generator: visioncortex VTracer 0.6.12 -->
<svg version="1.1" xmlns="http://www.w3.org/2000/svg" width="380" height="426">
<path d="M0 0 C3.348917845164692 2.009350707098821 4.548170631136145 3.4147620998449124 5.618408203125 7.169677734375 C12.211866829125086 39.8312061328292 -3.1798186622293088 79.50939529316292 -14 110 C-14.240732421875009 110.683525390625 -14.481464843750018 111.36705078125 -14.7294921875 112.0712890625 C-23.183711039578384 135.8988671622829 -35.01333357028926 157.6700681975342 -50 178 C-51.36137049778529 179.86977611731217 -52.71682892439901 181.74389348589668 -54.0625 183.625 C-54.56910156250001 184.318515625 -55.07570312500002 185.01203125 -55.59765625 185.7265625 C-60.65615315794241 193.92724550953344 -60.82315318759572 201.68634539428237 -60 211 C-59.11668978045151 214.62805948933195 -57.723029008855974 217.6988696559302 -56 221 C-55.57589843749997 221.9062109375 -55.151796875 222.812421875 -54.71484375 223.74609375 C-51.28687374378194 230.93623696638502 -47.25418914595468 237.7035502816575 -43.12109375 244.5 C-41.37382504359874 247.37366479315972 -39.65993316912841 250.26216850194186 -38 253.1875 C-37.62874999999997 253.8410546875 -37.25749999999999 254.49460937499998 -36.875 255.16796875 C-34.35206209962632 260.4503699789073 -34.238409592817106 266.276294774883 -35 272 C-38.930674898069356 282.16179086551574 -50.064949731989145 291.08653158447316 -57.6796875 298.66796875 C-59.8995454255205 300.8990380791848 -61.98618561445255 303.1981420002725 -64.0625 305.5625 C-68.23870521547968 310.2457655451838 -72.61514472850129 314.68197874789894 -77.101806640625 319.064697265625 C-80.89828037007237 322.79656074014474 -80.89828037007237 322.79656074014474 -82 325 C-82.66 325 -83.32 325 -84 325 C-84.2475 325.61875 -84.495 326.2375 -84.75 326.875 C-86.22770762340346 329.38710295978586 -87.4395517671716 329.7610734357282 -90 331 C-90.33000000000001 331.99 -90.66 332.98 -91 334 C-92.9375 336.1875 -92.9375 336.1875 -95 338 C-95.66 338 -96.32 338 -97 338 C-97.33000000000001 338.99 -97.66 339.98 -98 341 C-98.66 341 -99.32 341 -100 341 C-100.33000000000001 341.99 -100.66 342.98 -101 344 C-101.66 344 -102.32 344 -103 344 C-103.226875 344.639375 -103.45375000000001 345.27875 -103.6875 345.9375 C-104.99999999999997 348 -104.99999999999997 348 -107.58203125 348.62890625 C-108.37996093749999 348.7513671875 -109.177890625 348.873828125 -110 349 C-110.51046875 348.368359375 -111.0209375 347.73671875 -111.546875 347.0859375 C-115.07010905264295 342.75061049196063 -118.60295396558189 338.4374464969081 -122.26953125 334.22265625 C-122.815771484375 333.5937548828125 -123.36201171875001 332.964853515625 -123.9248046875 332.31689453125 C-125.00847267094514 331.07329343754685 -126.09631238389511 329.83331415168146 -127.1884765625 328.59716796875 C-131 324.219736080653 -131 324.219736080653 -131 322 C-131.66 322 -132.32 322 -133 322 C-134.76171874999991 320.17187500000006 -134.76171874999991 320.17187500000006 -136.6875 317.75 C-137.3307421875 316.96109375 -137.973984375 316.1721875 -138.63671875 315.359375 C-140 313 -140 313 -139.73779296875 311.05126953125 C-138.95073659819943 308.8630340496597 -138.0704220101134 307.57515699315707 -136.55859375 305.8203125 C-136.06093505859377 305.22839111328125 -135.56327636718748 304.6364697265625 -135.050537109375 304.026611328125 C-134.51823486328124 303.3990795898437 -133.9859326171875 302.7715478515625 -133.4375 302.125 C-121.85779290846571 288.0088349402709 -114.29008356821618 273.8328295889524 -116 255 C-117.54271048678714 246.14227062169715 -121.6512282827521 237.3326992797266 -128.75 231.625 C-138.14401040365394 225.39770873430098 -146.74506162415878 223.83034574673124 -158 225 C-170.89408530753116 227.9015767190146 -180.72130334722834 236.01898563877643 -188.1015625 246.71875 C-191.36272459603177 252.35532646227713 -193.69232161713742 258.37714680813684 -196.10546875 264.4140625 C-197.84483545854857 268.7391228463751 -199.8626922457408 272.8580776558258 -202 277 C-213.08177562537782 275.50430022234167 -224.1219717921628 273.87621821233813 -235.125 271.875 C-235.59558837890626 271.78976074218747 -235.59558837890626 271.78976074218747 -237.97705078125 271.3583984375 C-241.41576206966846 270.72237277907954 -244.67748730444248 270.1075042318525 -248 269 C-247.49574450570918 259.59656883794685 -244.9603844812218 250.92995365804833 -242.375 241.9375 C-241.9203595367917 240.33379925542556 -241.46650936649115 238.72987426833805 -241.013427734375 237.125732421875 C-240.10742827384632 233.9215613878927 -239.19724319933022 230.71862713057476 -238.28369140625 227.5166015625 C-237.134236967205 223.48182979511625 -236.00597911272283 219.44169081614004 -234.88671875 215.3984375 C-234.5749267578125 214.27316650390625 -234.263134765625 213.1478955078125 -233.94189453125 211.988525390625 C-233.37569943272175 209.94365253200365 -232.81021340579218 207.8985831415443 -232.24560546875 205.853271484375 C-230.66123369264938 200.17285328143186 -228.92469424414458 194.57398773652898 -227 189 C-226.73227783203126 188.21294677734375 -226.46455566406252 187.4258935546875 -226.188720703125 186.614990234375 C-225.3511277565193 184.17451454772072 -224.49046704992048 181.7432148902046 -223.625 179.3125 C-223.48578125 178.904833984375 -223.48578125 178.904833984375 -222.78125 176.841796875 C-220.52048824147 170.54323314684316 -217.9666127816545 165.9118171259551 -212.1875 162.1875 C-204.41799168147082 159.29297729309698 -196.10473164032084 159.91558563301834 -187.9375 160 C-150.7226226810537 160.15223360491257 -150.7226226810537 160.15223360491257 -139 150 C-134.55458602190578 145.33126852222128 -132.1877028113745 140.52604365242826 -129.6875 134.625 C-128.90078559165633 132.82969838412555 -128.11169032859473 131.0354383426502 -127.3203125 129.2421875 C-126.930048828125 128.354990234375 -126.53978515624999 127.46779296875002 -126.1376953125 126.5537109375 C-118.45913128526573 109.31813588924453 -108.83879026450447 93.67933736500554 -97 79 C-96.27167968750001 78.089921875 -95.543359375 77.17984375 -94.79296875 76.2421875 C-92.55308142124628 73.4736060449999 -90.27978396444291 70.73582943899889 -88 68 C-87.1616259765625 66.9892138671875 -86.32325195312501 65.978427734375 -85.45947265625 64.93701171875 C-78.28180410776798 56.37362522541311 -70.6536419371458 48.371515572365546 -62.716796875 40.510986328125 C-60.73238886529509 38.54505282198615 -58.75631859710455 36.57101519703024 -56.78125 34.595703125 C-50.694920035871405 28.52591261907984 -44.62329096580686 22.49025845729175 -38 17 C-37.431845703124964 16.51974365234375 -36.86369140625004 16.0394873046875 -36.2783203125 15.544677734375 C-14.35678645893205 -2.8103572886225052 -14.35678645893205 -2.8103572886225052 0 0 Z " fill="#030376" transform="translate(325,3)"/>
<path d="M0 0 C7.691761802415954 5.038919099848613 13.416116842338454 10.945717369353844 15.7109375 20.125 C17.94878818289294 35.70707142162479 13.876760041334876 47.138491475792364 4.68359375 59.47265625 C-2.1170825238663156 68.2996930947262 -9.292809876484739 76.83964405328487 -16.39794921875 85.42138671875 C-18.497567941719637 87.96371574609776 -20.579121368349064 90.52057408104793 -22.66015625 93.078125 C-26.350213263011312 97.59656215878937 -30.111856434223398 102.05040240490376 -33.8896484375 106.495361328125 C-36.76869486021093 109.88823616856678 -39.60495460863541 113.3111180962581 -42.41015625 116.765625 C-46.82178679804534 122.18383078895408 -51.36589267263162 127.48083350148477 -55.921875 132.77734375 C-62.14787992094695 140.01628623673173 -68.3335186473962 147.2867840947855 -74.34765625 154.703125 C-78.50721702128928 159.81685024929112 -82.80863374225981 164.7971296334306 -87.159912109375 169.747802734375 C-89.72778596288839 172.68116723488163 -92.23876654304958 175.62247544884036 -94.59375 178.73046875 C-95.3581640625 179.7320703125 -96.122578125 180.73367187500003 -96.91015625 181.765625 C-97.23435546875 182.20841796874998 -97.23435546875 182.20841796874998 -98.875 184.44921875 C-100.97265625 186.328125 -100.97265625 186.328125 -104.2265625 186.61328125 C-105.1327734375 186.5191796875 -106.038984375 186.42507812500003 -106.97265625 186.328125 C-108.09545898437499 184.71875 -108.09545898437499 184.71875 -108.97265625 182.328125 C-108.301025390625 179.4375 -108.301025390625 179.4375 -107.0078125 176.078125 C-106.77969375610351 175.47190811157225 -106.55157501220702 174.8656912231445 -106.31654357910156 174.24110412597656 C-105.56967770581551 172.2646356654775 -104.80234099521448 170.29678424944143 -104.03515625 168.328125 C-103.51697137519078 166.96477369938884 -103.00054101044466 165.60075428974636 -102.48583984375 164.236083984375 C-101.46032821912347 161.51853878854877 -100.4291549251602 158.80325705991424 -99.39404296875 156.08935546875 C-97.54437431198733 151.21911854537615 -95.80380873416888 146.31278636220003 -94.09765625 141.390625 C-93.822119140625 140.60067138671877 -93.54658203125 139.8107177734375 -93.2626953125 138.996826171875 C-92.00424279974357 135.37206907133816 -90.77232582985079 131.74019073776248 -89.578125 128.09375 C-89.3581787109375 127.42335693359371 -89.138232421875 126.75296386718753 -88.91162109375 126.062255859375 C-88.33879138383449 124.30514648807923 -87.77442428067926 122.54528404855813 -87.2109375 120.78515625 C-86.26828948590934 118.1534733084535 -85.25806821392993 115.70821761798715 -84.09423828125 113.177490234375 C-82.05627643590634 108.62319490325945 -80.38638377670159 104.00482948818797 -78.7890625 99.28125 C-74.71975975641354 87.46221925859072 -70.32018396510227 75.77336804392007 -65.91015625 64.078125 C-64.73801352289179 60.96244389725388 -63.56649655786613 57.84652801005814 -62.39503479003906 54.7305908203125 C-61.63900530668218 52.72133625381116 -60.8819755105346 50.712457759702545 -60.12388610839844 48.7039794921875 C-58.46462111217312 44.30702322227768 -56.813153385341025 39.90805028485272 -55.199462890625 35.494140625 C-54.93102066040041 34.764067993164076 -54.662578430175785 34.03399536132815 -54.38600158691406 33.28179931640625 C-53.688940852702245 31.38234147920582 -52.99752343643624 29.480815180094453 -52.306640625 27.5791015625 C-50.16941424652268 22.370590132081986 -47.313975892521285 17.839642490893254 -43.97265625 13.328125 C-43.42867187500002 12.589492187500014 -42.884687499999984 11.850859374999999 -42.32421875 11.08984375 C-32.49836844886812 -1.1578710619742196 -14.644726939121796 -7.745069740615634 0 0 Z " fill="#D46A3D" transform="translate(187.97265625,235.671875)"/>
<path d="M0 0 C0.16499999999999204 0.49500000000000455 0.16499999999999204 0.49500000000000455 1 3 C-0.265625 5.20703125 -0.265625 5.20703125 -2.25 7.8125 C-2.9950781250000205 8.796054687499975 -3.740156249999984 9.779609375000007 -4.5078125 10.79296875 C-5.337647808357701 11.86267318595202 -6.168396448060804 12.93166964299678 -7 14 C-7.408310546874986 14.530610351562473 -7.816621093750001 15.061220703125002 -8.2373046875 15.60791015625 C-18.178916829490532 28.524269277692156 -28.61121274973459 41.05715859697261 -39.170166015625 53.47119140625 C-41.96584680936712 56.76198907555977 -44.7151897912554 60.08583850643811 -47.4375 63.4375 C-51.39508187798248 68.30129025075843 -55.4654244640933 73.05881231482675 -59.558349609375 77.808349609375 C-62.58945289256559 81.33298918800006 -65.56985316341968 84.89039882450248 -68.5 88.5 C-74.374036955553 95.72876980295985 -80.4805869790485 102.7570286717542 -86.5615234375 109.8115234375 C-91.74492814343486 115.8279172236102 -96.91169280370032 121.85087497009027 -101.9375 128 C-102.65421875 128.8726953125 -103.3709375 129.74539062500003 -104.109375 130.64453125 C-105.25701770147728 132.07434230163392 -106.37956722564255 133.52547613227398 -107.453125 135.01171875 C-108.68749999999997 136.6875 -108.68749999999997 136.6875 -111 139 C-114.3125 139.375 -114.3125 139.375 -117 139 C-118.12280273437499 137.390625 -118.12280273437499 137.390625 -119 135 C-118.328369140625 132.109375 -118.328369140625 132.109375 -117.03515625 128.75 C-116.80703750610351 128.14378311157225 -116.57891876220702 127.53756622314455 -116.34388732910156 126.91297912597656 C-115.59702145581551 124.9365106654775 -114.82968474521448 122.96865924944143 -114.0625 121 C-113.54431512519078 119.63664869938884 -113.02788476044466 118.27262928974636 -112.51318359375 116.907958984375 C-111.48767196912347 114.19041378854877 -110.4564986751602 111.47513205991424 -109.42138671875 108.76123046875 C-107.57171422610713 103.89098344538047 -105.83149447224415 98.9845499824076 -104.125 94.0625 C-103.98795654296875 93.67042358398436 -103.98795654296875 93.67042358398436 -103.29443359375 91.686279296875 C-102.00027727014417 87.96488727520358 -100.7435875641347 84.23451025979949 -99.53515625 80.484375 C-99.3061865234375 79.77788818359375 -99.077216796875 79.07140136718749 -98.84130859375 78.343505859375 C-98.23394990614304 76.4567930430187 -97.63798289567586 74.5664234671475 -97.04296875 72.67578125 C-96 70 -96 70 -94 69 C-93.75 74.625 -93.75 74.625 -96 78 C-96.64758808642381 79.9653874238627 -97.24560512164123 81.94733712916604 -97.8125 83.9375 C-99.48571041191664 89.5524682736978 -101.50793831995693 94.87964220397782 -103.8515625 100.24609375 C-105.57835198637603 104.3868644571262 -106.89603740449482 108.23327585814928 -107.5 112.6875 C-108 116 -108 116 -110 119 C-110.66 119 -111.32 119 -112 119 C-113.42635740508703 125.31672565109966 -114.75297848973523 131.64549677216144 -116 138 C-114.68 138 -113.36 138 -112 138 C-111.7537890625 137.43410156250002 -111.507578125 136.86820312500004 -111.25390625 136.28515625 C-109.78463776218149 133.60751741705974 -108.0224756484613 131.66956387762963 -105.9375 129.4375 C-100.24000243816154 123.21955794933979 -94.9092447904022 116.73403068458839 -89.7265625 110.08203125 C-89.012421875 109.1680859375 -88.29828125 108.25414062499999 -87.5625 107.3125 C-86.9244140625 106.48363281249999 -86.286328125 105.65476562499998 -85.62890625 104.80078125 C-85.0913671875 104.20652343749998 -84.553828125 103.61226562500002 -84 103 C-83.34 103 -82.68 103 -82 103 C-81.7847265625 102.47664062500002 -81.569453125 101.95328125000003 -81.34765625 101.4140625 C-79.45963604215729 98.03204369290785 -76.975473597963 95.28668289855932 -74.4375 92.375 C-69.11993243243245 86.2398648648649 -69.11993243243245 86.2398648648649 -68 84 C-67.34 84 -66.68 84 -66 84 C-65.77183593749999 83.46117187499999 -65.543671875 82.92234374999998 -65.30859375 82.3671875 C-63.60363968888015 79.28300194466078 -61.3701511186656 76.76397331846704 -59.0625 74.125 C-54.35016080200069 68.6703114059693 -49.86743215164199 63.076125054390104 -45.529541015625 57.31884765625 C-44.397736313809105 55.84382344133007 -43.20417893867858 54.41655617654078 -42 53 C-41.34 53 -40.68000000000001 53 -40 53 C-39.753789062500005 52.444414062500016 -39.50757812500001 51.88882812500003 -39.25390625 51.31640625 C-37.759955938552196 48.55655411701389 -35.94941591884458 46.3468314089867 -33.9375 43.9375 C-33.12796874999998 42.96167968750001 -32.318437500000016 41.98585937500002 -31.484375 40.98046875 C-30.664531249999982 39.99691406249997 -29.84468750000002 39.01335937499999 -29 38 C-25.987860414195552 34.34317586255759 -22.99200677907396 30.67330768577392 -20 27 C-19.526269531249994 26.422016601562518 -19.05253906249999 25.84403320312498 -18.564453125 25.24853515625 C-11.89476870654002 17.10027526664493 -5.640024588745916 8.907921188695752 0 0 Z " fill="#EECBBB" transform="translate(198,283)"/>
<path d="M0 0 C1.9733027551674525 0.010048851812769044 3.946610456444631 0.019171334616260083 5.919921875 0.02734375 C10.717571647124544 0.04920865896582427 15.514980359327865 0.0836338427215253 20.3125 0.125 C20.3125 0.7849999999999966 20.3125 1.4449999999999932 20.3125 2.125 C20.03101608276367 2.1290434265136753 20.03101608276367 2.1290434265136753 18.606536865234375 2.149505615234375 C12.733722559315822 2.235732298869493 6.861238760947572 2.3352434008021987 0.98876953125 2.4423828125 C-1.201278058142691 2.480605799565268 -3.391386996996289 2.5154702243034706 -5.58154296875 2.546875 C-8.734272119590571 2.5926704302437145 -11.886581378064761 2.6506414894423074 -15.0390625 2.7109375 C-16.014288635253905 2.722488708496087 -16.98951477050781 2.734039916992174 -17.994293212890625 2.745941162109375 C-22.891093226142743 2.8516421393874225 -27.163166116783913 3.031888656174573 -31.6875 5.125 C-34.375 8.0625 -34.375 8.0625 -36.6875 11.125 C-37.210859375 11.596796874999995 -37.73421875 12.068593749999991 -38.2734375 12.5546875 C-40.01023437256055 14.483395629197076 -40.22429626065673 15.768706598551148 -40.625 18.3125 C-41.41411659561129 22.39733884787023 -42.77473774016755 25.61299116546124 -44.734375 29.26171875 C-46.027597829339754 31.78986337948794 -46.873121405086124 34.41040468362041 -47.6875 37.125 C-48.848781351701504 33.72267506458198 -48.51963667640628 31.73318654053537 -47.39453125 28.3515625 C-47.09353515625 27.4440625 -46.7925390625 26.536562500000002 -46.482421875 25.6015625 C-46.158222656250004 24.660546874999994 -45.834023437499994 23.71953124999999 -45.5 22.75 C-45.19513671875001 21.816718750000007 -44.8902734375 20.883437500000014 -44.576171875 19.921875 C-42.14584531724995 12.72770078712145 -39.483224690367535 6.173516836814713 -32.6875 2.125 C-22.28332654180828 -1.1299222477954345 -10.75863138412086 -0.09556816615409502 0 0 Z " fill="#9394C2" transform="translate(145.6875,162.875)"/>
<path d="M0 0 C0.9900000000000091 0.6600000000000001 1.9800000000000182 1.3200000000000003 3 2 C2.670000000000016 2.66 2.340000000000032 3.3200000000000003 2 4 C1.4302343749999977 3.677734375 0.8604687499999955 3.35546875 0.2734375 3.0234375 C-3.445721796671023 1.3491767856910633 -7.000009847124943 1.4305813666381777 -11 2 C-13.9375 3.687499999999992 -13.9375 3.687499999999992 -17 6 C-18.513276190678994 6.703978301158365 -20.03512099231989 7.389667446777562 -21.5625 8.0625 C-28.623044821456688 11.529354343469738 -34.202525194791406 16.78594085762346 -40 22 C-40.937148437500014 22.8262890625 -41.87429687500003 23.652578125 -42.83984375 24.50390625 C-50.77621390564235 31.651965813001347 -58.313942819653676 39.20996547448456 -65.875 46.75 C-66.4211999511719 47.293521118164065 -66.96739990234374 47.837042236328124 -67.5301513671875 48.39703369140625 C-73.56944642320485 54.41387362045951 -79.52127561620753 60.45845634776524 -85 67 C-85 62.675173505964864 -82.41340169229238 60.83781226422929 -79.5625 57.875 C-78.9635693359375 57.243359375 -78.36463867187501 56.61171875 -77.74755859375 55.9609375 C-71.3003916922923 49.21649942401788 -64.71093919650065 42.608515696101875 -58.125 36 C-57.586020812988295 35.45825134277344 -57.04704162597659 34.916502685546874 -56.491729736328125 34.35833740234375 C-50.51137083085524 28.35560142030004 -44.50435100126009 22.441466683585134 -38 17 C-37.428461914062495 16.5164404296875 -36.85692382812499 16.032880859375 -36.26806640625 15.53466796875 C-25.58624404117495 6.599713982361019 -14.813765313630597 -2.4110040573045044 0 0 Z " fill="#B6B7D6" transform="translate(325,3)"/>
<path d="M0 0 C0.3299999999999983 0 0.6599999999999966 0 1 0 C0.5747722920655889 7.866712596786556 -0.024629684130857754 15.361901445305989 -2 23 C-0.9262109375000023 23.13277343750002 0.14757812499999545 23.265546874999984 1.25390625 23.40234375 C2.690108330218777 23.580695642314765 4.126306012807916 23.75908294960874 5.5625 23.9375 C6.2669726562500045 24.024511718749977 6.971445312499995 24.11152343750001 7.697265625 24.201171875 C9.11393574385471 24.3774395856409 10.53012211082823 24.55763826802098 11.94580078125 24.74169921875 C13.844849435288864 24.980490932081693 15.748558299392158 25.181401235338 17.65234375 25.37890625 C21.23671659187673 26.04391824750104 23.755087646273125 27.37754382313659 27 29 C30.648437499999986 29.73046875 30.648437499999986 29.73046875 34.375 30.1875 C35.620234374999995 30.346054687499986 36.86546874999999 30.504609374999973 38.1484375 30.66796875 C39.089453125000006 30.77753906250001 40.03046875 30.887109375000023 41 31 C41.99000000000001 28.029999999999973 42.97999999999999 25.060000000000002 44 22 C45 25 45 25 44.22265625 27.04296875 C44.031230468749996 27.396816406250025 44.031230468749996 27.396816406250025 43.0625 29.1875 C42.682226562500006 29.902929687499977 42.301953125 30.61835937500001 41.91015625 31.35546875 C41.6098046875 31.898164062499973 41.309453125000005 32.440859375 41 33 C29.91822437462217 31.50430022234167 18.878028207837218 29.87621821233813 7.875 27.875 C6.933823242187501 27.704521484374993 5.992646484375001 27.534042968749986 5.02294921875 27.3583984375 C1.5842379303315113 26.722372779079535 -1.6774873044425078 26.107504231852488 -5 25 C-4.591285624515635 16.314819520957315 -2.3813579187576153 8.307062507293978 0 0 Z " fill="#8687BC" transform="translate(82,247)"/>
<path d="M0 0 C2.5507693041079733 2.3257014243337437 4.169975114436852 4.7576719688524065 5.8828125 7.74609375 C6.4100390625000045 8.665839843750007 6.937265625000009 9.585585937500014 7.48046875 10.533203125 C8.023164062499973 11.491621093750013 8.565859375000002 12.450039062499997 9.125 13.4375 C9.400214843750007 13.91477539062501 9.400214843750007 13.91477539062501 10.79296875 16.330078125 C11.317617187499991 17.251113281250014 11.842265624999982 18.1721484375 12.3828125 19.12109375 C12.861215820312509 19.960837402343742 13.339619140625018 20.800581054687484 13.83251953125 21.665771484375 C16.55710449678088 27.113232140050627 16.849235431142233 33.023000156056014 16 39 C13.353823395020981 44.9607646015271 9.182413716081953 49.17488511432043 4 53 C5.319922467840911 50.00134118956532 6.666345621631649 48.364205214249125 9.125 46.25 C12.430009103705629 42.53287484668806 12.56578034270865 38.7827396691813 12.5625 34 C12.564594726562518 33.323564453125016 12.56668945312498 32.64712890625003 12.56884765625 31.9501953125 C12.365951389287943 25.66193657251779 10.46503770566244 21.19755655849366 7 16 C7 14.680000000000007 7 13.360000000000014 7 12 C6.339999999999975 12 5.680000000000007 12 5 12 C3.7109375 10.390625 3.7109375 10.390625 2.375 8.25 C1.9289843750000273 7.553906250000011 1.4829687499999977 6.857812499999994 1.0234375 6.140625 C0 4 0 4 0 0 Z " fill="#5152A0" transform="translate(274,236)"/>
<path d="M0 0 C4.440361009731589 1.5072785078905326 6.356127689387392 4.97594723668891 8.75 8.75 C9.161210937499987 9.358437500000008 9.572421875000003 9.966874999999987 9.99609375 10.59375 C12.529525486315208 14.532773430549895 13.502962945081777 17.177472938333437 13 22 C13.659999999999997 22 14.319999999999993 22 15 22 C15.796082438450725 40.02242187048137 15.796082438450725 40.02242187048137 11 47 C10.028218811758876 48.02744407253181 9.034952381674657 49.036219128813 8 50 C8.216562500000009 49.1401953125 8.43312499999999 48.280390624999995 8.65625 47.39453125 C12.062047727801712 32.93565848891592 12.642913850251404 20.599532724630762 4.9375 7.5625 C3.3297305623106297 5.013796794706167 1.6716579299928753 2.507486894989313 0 0 Z " fill="#999AC4" transform="translate(198,235)"/>
<path d="M0 0 C0.660000000000025 0.33000000000000007 1.3199999999999932 0.6600000000000001 2 1 C4.002156935863582 7.229707817861295 4.368719372663975 13.697878733929084 4.0625 20.1875 C4.021652832031236 21.05898681640625 3.9808056640624727 21.9304736328125 3.938720703125 22.828369140625 C2.6698616449167503 41.18663181261405 -2.827992616419351 59.42398407970879 -8 77 C-9.249546464456898 73.25136060662926 -8.56131275745389 70.45241343158253 -7.8125 66.6875 C-7.675214843749984 65.97472900390625 -7.537929687500025 65.2619580078125 -7.396484375 64.527587890625 C-6.477025778718087 59.925697616234004 -5.331386672577764 55.44056843698108 -4 50.9375 C0.7441582071598418 34.679634759309955 3.7747522093036423 16.842656901832676 0 0 Z " fill="#A9ABD0" transform="translate(328,7)"/>
<path d="M0 0 C0.6599999999999682 0.3299999999999983 1.3199999999999932 0.6600000000000001 2 1 C-4.608522427502976 9.006509404177194 -12.081457362821425 16.19285617879666 -19.4375 23.5 C-20.75479058668799 24.812265853306997 -22.071849863678494 26.124763945024917 -23.388671875 27.4375 C-26.589786102275156 30.62768506100406 -29.7940186483398 33.81470650576638 -33 37 C-33.66 36.67 -34.31999999999999 36.34 -35 36 C-28.391477572497053 27.993490595822806 -20.918542637178575 20.807143821203333 -13.5625 13.5 C-12.245209413312011 12.187734146693003 -10.928150136321506 10.875236054975083 -9.611328125 9.5625 C-6.410213897724873 6.372314938995942 -3.2059813516601707 3.1852934942336226 0 0 Z " fill="#1D1D83" transform="translate(280,28)"/>
<path d="M0 0 C0.3299999999999983 0 0.6599999999999966 0 1 0 C1.25 5.625 1.25 5.625 -1 9 C-1.6475880864238093 10.965387423862637 -2.2456051216412334 12.947337129166044 -2.8125 14.9375 C-4.485710411916642 20.552468273697798 -6.507938319956935 25.879642203977824 -8.8515625 31.24609375 C-10.584117281114658 35.40068939859128 -11.90586862105802 39.206606948917624 -12.4375 43.6875 C-13.032893553437617 47.193706481354866 -13.473964728510452 47.770352867031875 -16 50 C-15.586283849145104 41.29271822037947 -12.656914173663637 33.654895737385175 -9.6875 25.5625 C-9.195099198628697 24.194972370754954 -8.703556988000983 22.827135275361172 -8.212890625 21.458984375 C-5.615786746769771 14.249371838710147 -2.916610382482901 7.087415971031703 0 0 Z " fill="#ECC2B0" transform="translate(103,352)"/>
<path d="M0 0 C0.660000000000025 0 1.3199999999999932 0 2 0 C1.5049999999999955 1.1550000000000011 1.009999999999991 2.3100000000000023 0.5 3.5 C-2.56504213741556 12.783118052555267 -2.4134917622899366 23.817347169350995 1.77734375 32.6796875 C1.979082031250016 33.06253906250001 1.979082031250016 33.06253906250001 3 35 C3.9166666666666856 36.83333333333334 4.833333333333314 38.66666666666666 5.75 40.5 C6.177968749999991 41.31468749999999 6.605937499999982 42.12937500000001 7.046875 42.96875 C8 45 8 45 8 47 C7.339999999999975 47 6.680000000000007 47 6 47 C5 45 4 43 3 41 C2.663554687499982 40.3387109375 2.3271093750000205 39.67742187499999 1.98046875 38.99609375 C-2.9615185355974063 29.24168438853991 -6.019558702521465 19.3755931466535 -3.36328125 8.359375 C-2.407609572885349 5.469050903360511 -1.3613959488409932 2.7227918976820433 0 0 Z " fill="#A3A4CD" transform="translate(266,189)"/>
<path d="M0 0 C2.125 0.375 2.125 0.375 4 1 C-0.7489845653939824 6.775792038992677 -0.7489845653939824 6.775792038992677 -2.609375 8.4375 C-4.321495130021788 10.361230483170544 -4.539732071495081 11.662344049378873 -4.9375 14.1875 C-5.72661659561129 18.272338847870202 -7.087237740167552 21.48799116546124 -9.046875 25.13671875 C-10.340097829339754 27.66486337948797 -11.185621405086124 30.285404683620413 -12 33 C-13.161281351701504 29.597675064582006 -12.832136676406279 27.60818654053537 -11.70703125 24.2265625 C-11.406035156249999 23.3190625 -11.105039062499998 22.411562500000002 -10.794921875 21.4765625 C-10.470722656250004 20.535546874999994 -10.146523437499994 19.59453124999999 -9.8125 18.625 C-9.507636718750007 17.691718750000007 -9.2027734375 16.758437500000014 -8.888671875 15.796875 C-6.810143629945713 9.64408279451439 -4.651340596824539 4.651340596824554 0 0 Z " fill="#7F80B9" transform="translate(110,167)"/>
<path d="M0 0 C-3.56561852049893 1.1885395068329672 -6.2455923686497385 0.9548289778278161 -10 0.8125 C-20.35360604714026 0.6504522289756665 -27.883466313243673 3.7075742473353728 -36.125 9.828125 C-38 11 -38 11 -41 11 C-39.59148053017779 9.678760582794979 -38.17284258606381 8.368302308823075 -36.75 7.0625 C-35.96109375 6.331601562499998 -35.17218750000001 5.6007031249999955 -34.359375 4.84765625 C-32.06315500358863 3.0494574779758636 -30.771455305177938 2.5824961371502297 -28 2 C-27.669999999999987 1.3400000000000034 -27.340000000000003 0.6800000000000068 -27 0 C-18.35613867187803 -2.5506476050196056 -8.455915176297196 -3.758184522798757 0 0 Z " fill="#9A9CC3" transform="translate(185,227)"/>
<path d="M0 0 C0.671875 1.70703125 0.671875 1.70703125 1 4 C-0.109375 6.32421875 -0.109375 6.32421875 -1.75 8.6875 C-2.2810937499999966 9.475117187500018 -2.812187499999993 10.26273437499998 -3.359375 11.07421875 C-5 13 -5 13 -8 14 C-9.640625 15.70703125 -9.640625 15.70703125 -11.25 17.8125 C-11.791406249999994 18.499570312499998 -12.332812499999989 19.186640624999995 -12.890625 19.89453125 C-14 22 -14 22 -13.83203125 24.02734375 C-12.92254956777316 26.183626611617626 -11.840835410362956 27.878886119516096 -10.4375 29.75 C-9.982460937500008 30.363593750000007 -9.527421874999987 30.977187500000014 -9.05859375 31.609375 C-8.883925781250014 31.83882812500002 -8.883925781250014 31.83882812500002 -8 33 C-8.330000000000013 33.16500000000002 -8.330000000000013 33.16500000000002 -10 34 C-11.202766954970542 32.59627198272767 -12.386805190508227 31.176479025215087 -13.5625 29.75 C-13.893144531249987 29.355546875000016 -13.893144531249987 29.355546875000016 -15.56640625 27.359375 C-17 25 -17 25 -16.7509765625 23.06884765625 C-15.92973766881974 20.806435957600286 -14.95094474274714 19.38784358290684 -13.41796875 17.5390625 C-12.897832031250005 16.902265624999984 -12.377695312500009 16.265468750000025 -11.841796875 15.609375 C-11.568837890624991 15.281953124999973 -11.568837890624991 15.281953124999973 -10.1875 13.625 C-6.542358299368317 9.210377240730736 -3.0858903423597326 4.826840583933119 0 0 Z " fill="#B1B2D1" transform="translate(202,291)"/>
<path d="M0 0 C0 3 0 3 -1.875 5.1875 C-4 7 -4 7 -6 7 C-6.329999999999984 7.990000000000009 -6.659999999999997 8.980000000000018 -7 10 C-7.659999999999997 10 -8.319999999999993 10 -9 10 C-9.329999999999984 10.990000000000009 -9.659999999999997 11.980000000000018 -10 13 C-10.659999999999997 13 -11.319999999999993 13 -12 13 C-12.113437500000003 13.319687499999986 -12.113437500000003 13.319687499999986 -12.6875 14.9375 C-14 17 -14 17 -16.58203125 17.62890625 C-17.379960937499987 17.751367187500023 -18.177890625000003 17.87382812499999 -19 18 C-20.441630066427706 16.274275119643107 -21.87813164925936 14.544265297465188 -23.3125 12.8125 C-23.712753906249986 12.331035156249982 -23.712753906249986 12.331035156249982 -25.73828125 9.89453125 C-27.731119875261356 7.344110833214756 -29.410612463598568 4.813575994859491 -31 2 C-30.340000000000003 2 -29.680000000000007 2 -29 2 C-26.64757676409394 4.715731843768026 -24.48549599138883 7.555562044590374 -22.2890625 10.3984375 C-20.206902161539375 12.7648518095815 -18.897423895842223 13.901889573721917 -16 15 C-11.125 11.25 -11.125 11.25 -10 9 C-9.340000000000003 9 -8.680000000000007 9 -8 9 C-7.896874999999994 8.721562500000005 -7.896874999999994 8.721562500000005 -7.375 7.3125 C-5.449992256173346 4.074986976291541 -2.96149097723287 2.3176885908778786 0 0 Z " fill="#AEB0D3" transform="translate(234,334)"/>
<path d="M0 0 C0.3299999999999841 0.9900000000000091 0.6599999999999966 1.9800000000000182 1 3 C-0.265625 5.20703125 -0.265625 5.20703125 -2.25 7.8125 C-2.986054687500001 8.785742187499977 -3.7221093750000023 9.758984375000011 -4.48046875 10.76171875 C-5.31860866247419 11.842469340916011 -6.158531671107255 12.921838878405481 -7 14 C-7.445532226562506 14.573149414062527 -7.891064453125011 15.146298828124998 -8.35009765625 15.73681640625 C-10.677938434237262 18.726245418009228 -13.019554479517836 21.704153922958824 -15.375 24.671875 C-18.202802072972958 28.239318944660965 -20.943733865305944 31.870546762636366 -23.66015625 35.5234375 C-23.881230468750005 35.76707031249998 -23.881230468750005 35.76707031249998 -25 37 C-25.659999999999997 37 -26.319999999999993 37 -27 37 C-25.643619621382214 34.05063755265962 -24.083629986906033 31.716458632408376 -21.98828125 29.2421875 C-21.398374023437498 28.538762207031255 -20.808466796874995 27.83533691406251 -20.20068359375 27.110595703125 C-19.577583007812507 26.372849121093736 -18.954482421875014 25.635102539062473 -18.3125 24.875 C-13.2230018158171 18.776276724346587 -8.366312465675009 12.645501963886602 -4 6 C-3.5707421875000023 5.361914062499977 -3.1414843750000045 4.723828125000011 -2.69921875 4.06640625 C-1.7917417469255668 2.716105417246638 -0.8941750118412983 1.3591460179987962 0 0 Z " fill="#EAC5B7" transform="translate(198,283)"/>
<path d="M0 0 C0.660000000000025 0.3299999999999841 1.3199999999999932 0.660000000000025 2 1 C-3.4853111131353103 7.261011674588815 -9.147679382830518 13.248587365412845 -15.1005859375 19.0634765625 C-18.89831189710611 22.796623794212223 -18.89831189710611 22.796623794212223 -20 25 C-20.659999999999997 25 -21.319999999999993 25 -22 25 C-22.247500000000002 25.618749999999977 -22.495000000000005 26.23750000000001 -22.75 26.875 C-24.206286392891087 29.350686867914874 -25.378125061735517 29.951250024694218 -28 31 C-25.761898681718293 26.870775354851787 -23.090724097577237 23.87034317775351 -19.74609375 20.5859375 C-19.24457290649414 20.089618225097638 -18.743052062988284 19.593298950195333 -18.226333618164063 19.081939697265625 C-16.634777363257854 17.50808478030524 -15.036657408159726 15.941127924529724 -13.4375 14.375 C-11.83567836297766 12.800858225976526 -10.23537129769835 11.225249067284778 -8.637954711914063 9.646636962890625 C-7.192160049084549 8.21862949108646 -5.741586072048449 6.7954656809446305 -4.290771484375 5.37255859375 C-2 3 -2 3 0 0 Z " fill="#A9ACD0" transform="translate(263,303)"/>
<path d="M0 0 C4.111760609557223 3.7614825620838417 6.496566440589618 8.654374178921415 9.25 13.4375 C9.817187499999989 14.392050781249992 10.384374999999977 15.346601562500013 10.96875 16.330078125 C11.499843750000025 17.251113281250014 12.030937499999993 18.1721484375 12.578125 19.12109375 C13.067001953124986 19.960837402343742 13.555878906249973 20.800581054687484 14.0595703125 21.665771484375 C15.122677358294425 24.304495904115527 15.003848256022138 25.387661753537543 14 28 C13.012469361348394 26.275596346574673 12.035311939710198 24.545249737319125 11.0625 22.8125 C10.517226562500014 21.84957031250002 9.971953125000027 20.886640624999984 9.41015625 19.89453125 C8.094206667549258 17.193371580758964 7.426981134255016 14.956438992879498 7 12 C6.339999999999975 12 5.680000000000007 12 5 12 C3.7109375 10.390625 3.7109375 10.390625 2.375 8.25 C1.9289843750000273 7.553906250000011 1.4829687499999977 6.857812499999994 1.0234375 6.140625 C0 4 0 4 0 0 Z " fill="#989AC7" transform="translate(274,236)"/>
<path d="M0 0 C0 0.6599999999999966 0 1.3199999999999932 0 2 C-0.9900000000000091 2.3300000000000125 -1.9799999999999898 2.6599999999999966 -3 3 C-4.68359375 4.671875 -4.68359375 4.671875 -6.4375 6.75 C-7.051093750000007 7.469296874999998 -7.664687500000014 8.188593749999995 -8.296875 8.9296875 C-9.629372065401128 10.549466042804113 -10.917457693794404 12.205801540415507 -12.1875 13.875 C-14.01584462284876 16.018576454374397 -15.401350233470339 16.979101877434772 -18 18 C-15.715579152412147 11.391496833763682 -7.950348046821489 0 0 0 Z " fill="#E4AF99" transform="translate(159,237)"/>
<path d="M0 0 C6.978201153801308 0.09313820841828147 12.965013143053 1.105400015593716 18.17578125 6.01171875 C18.383964843749993 6.236660156249997 18.383964843749993 6.236660156249997 19.4375 7.375 C18.845820312499995 7.1700390624999955 18.25414062499999 6.965078124999991 17.64453125 6.75390625 C16.854335937499997 6.4844921874999955 16.064140624999993 6.215078124999991 15.25 5.9375 C14.472695312500008 5.670664062500009 13.695390625000016 5.40382812499999 12.89453125 5.12890625 C7.989419729147755 3.623840234857738 3.239831628307627 3.1471151532537647 -1.875 2.8125 C-3.1292578124999864 2.7287109375000114 -4.383515625000001 2.6449218749999943 -5.67578125 2.55859375 C-6.152089843749991 2.5283007812500102 -6.152089843749991 2.5283007812500102 -8.5625 2.375 C-5.761197526355232 -0.4263024736447676 -3.911974205027633 0.042200368986272 0 0 Z " fill="#E8BEAD" transform="translate(173.5625,232.625)"/>
<path d="M0 0 C0.660000000000025 0 1.3199999999999932 0 2 0 C0.48277127949330634 4.475824725494817 -1.9781521332530474 8.039223535662131 -4.75 11.8125 C-5.195209960937518 12.42689941406249 -5.6404199218749795 13.041298828125008 -6.09912109375 13.67431640625 C-9.351973043353837 18.151854726433726 -12.651231675194822 22.59372588841427 -16 27 C-16.329999999999984 26.00999999999999 -16.660000000000025 25.02000000000001 -17 24 C-15.571864975185633 21.869900301971796 -14.130900521282115 19.964833145622094 -12.5 18 C-8.367941512071127 12.864753368610963 -4.745052503116312 7.628081261260888 -1.375 1.94921875 C-0.9212499999999864 1.3059765625000068 -0.4674999999999727 0.6627343750000136 0 0 Z " fill="#A2A4CD" transform="translate(285,162)"/>
<path d="M0 0 C3.763495677472662 5.645243516209007 2.6563877693851907 13.629131197221852 1.39453125 20.109375 C0.7145570035586388 22.497913977347366 0.06551833649226069 24.756546254816783 -1 27 C-1.6599999999999966 27.329999999999984 -2.319999999999993 27.660000000000025 -3 28 C-3 26.019999999999982 -3 24.04000000000002 -3 22 C-2.3400000000000034 22 -1.6800000000000068 22 -1 22 C-0.6699999999999875 14.740000000000009 -0.3400000000000034 7.480000000000018 0 0 Z " fill="#E9C0B0" transform="translate(202,255)"/>
<path d="M0 0 C2.3327372657410876 6.934735953257473 -2.1714004979146324 14.739340309795637 -4.9375 21.08984375 C-6.056753042355538 23.102030285705382 -7.300819728039485 24.46011787853581 -9 26 C-6.566968741844306 17.12157014567748 -3.291635055048175 8.585947748766444 0 0 Z " fill="#ECC3B2" transform="translate(125,292)"/>
<path d="M0 0 C0.3300000000000125 0 0.6599999999999966 0 1 0 C1.7960824384507248 18.022421870481423 1.7960824384507248 18.022421870481423 -3 25 C-3.990000000000009 25.99000000000001 -4.97999999999999 26.980000000000018 -6 28 C-5.009999999999991 23.379999999999995 -4.02000000000001 18.75999999999999 -3 14 C-2.009999999999991 14 -1.0200000000000102 14 0 14 C0 9.379999999999995 0 4.759999999999991 0 0 Z " fill="#6263A8" transform="translate(212,257)"/>
<path d="M0 0 C0 0.3300000000000125 0 0.6599999999999966 0 1 C-0.7165576171875045 1.055349121093741 -1.433115234375009 1.1106982421875102 -2.17138671875 1.167724609375 C-5.406276768046212 1.4200155797835237 -8.640626334620492 1.678676681714819 -11.875 1.9375 C-12.43896484375 1.9810058593749886 -12.43896484375 1.9810058593749886 -15.29296875 2.201171875 C-16.369335937499997 2.2881835937500057 -17.445703124999994 2.3751953125000114 -18.5546875 2.46484375 C-19.05218505859375 2.504119873046875 -19.05218505859375 2.504119873046875 -21.56982421875 2.702880859375 C-24 3 -24 3 -26 4 C-27.999600119960007 4.039992002399202 -30.00047242235216 4.043467990818442 -32 4 C-31 2 -31 2 -29.19921875 1.3671875 C-19.522591155337167 -0.5290101313025275 -9.813745950385965 -0.17301413036918234 0 0 Z " fill="#AFB0D2" transform="translate(144,163)"/>
<path d="M0 0 C0.9900000000000091 0.6600000000000001 1.9800000000000182 1.3200000000000003 3 2 C2.670000000000016 2.66 2.339999999999975 3.3200000000000003 2 4 C1.4302343749999977 3.677734375 0.8604687499999955 3.35546875 0.2734375 3.0234375 C-3.438604821996421 1.3523806471425068 -7.007883955273087 1.4147683285217099 -11 2 C-14.1875 3.8750000000000018 -14.1875 3.8750000000000018 -17 6 C-20.375 7.25 -20.375 7.25 -23 8 C-21.78774852035201 4.363245561056042 -20.98756319917976 4.065165144061964 -17.6875 2.3125 C-11.889121718544516 -0.4613639617337473 -6.339881001543972 -0.9167255633891611 0 0 Z " fill="#A1A1CB" transform="translate(325,3)"/>
<path d="M0 0 C1.387559129003023 3.736842182014172 0.5816719264022367 5.946352984859516 -0.80078125 9.60546875 C-1.2010351562499864 10.670878906249996 -1.6012890624999727 11.736289062499992 -2.013671875 12.833984375 C-2.4422851562500227 13.940644531250001 -2.8708984374999886 15.047304687500002 -3.3125 16.1875 C-3.729511718750018 17.305761718750006 -4.1465234374999795 18.424023437499997 -4.576171875 19.576171875 C-7.7320549775027985 27.8660274887514 -7.7320549775027985 27.8660274887514 -10 29 C-10 27.02000000000001 -10 25.039999999999992 -10 23 C-9.339999999999975 23 -8.680000000000007 23 -8 23 C-7.841445312500014 22.428945312500005 -7.682890625000027 21.857890624999996 -7.51953125 21.26953125 C-5.430465362025586 14.009738744276675 -2.78353698418681 7.019354134036234 0 0 Z " fill="#A8AAD0" transform="translate(313,101)"/>
<path d="M0 0 C0.9812046350566845 3.052636642398568 0.9812046350566845 4.947363357601432 0 8 C-0.6599999999999966 8 -1.3199999999999932 8 -2 8 C-2.2681249999999977 9.03125 -2.5362499999999955 10.0625 -2.8125 11.125 C-3.8099889683803667 14.648504197660145 -5.266189804225718 17.768808271511546 -7 21 C-8 19 -8 19 -7.109375 15.91796875 C-6.660781250000014 14.686914062500023 -6.212187499999999 13.455859374999989 -5.75 12.1875 C-5.311718750000011 10.964179687500007 -4.873437499999994 9.740859375000014 -4.421875 8.48046875 C-3.172099066798012 5.421264473947872 -1.791780841150569 2.7667204164824852 0 0 Z " fill="#E8BDAD" transform="translate(140,255)"/>
<path d="M0 0 C1.3297258987064708 3.7106540281471325 0.6869467387593602 6.416748664110628 -0.25 10.1875 C-0.5026562500000011 11.253554687500014 -0.7553125000000023 12.319609375000027 -1.015625 13.41796875 C-1.3404687499999994 14.270039062500018 -1.6653124999999989 15.12210937499998 -2 16 C-2.989999999999995 16.329999999999984 -3.980000000000004 16.660000000000025 -5 17 C-4.462469039779933 10.818393957469198 -2.454176117320955 5.67314200143494 0 0 Z " fill="#EABCA7" transform="translate(112,327)"/>
<path d="M0 0 C0.68359375 1.703125 0.68359375 1.703125 1 4 C-0.21484375 6.359375 -0.21484375 6.359375 -1.9375 8.75 C-2.5033984375000102 9.549218750000023 -3.069296874999992 10.348437499999989 -3.65234375 11.171875 C-4.097070312499994 11.775156250000009 -4.541796874999989 12.378437500000018 -5 13 C-5.659999999999997 12.670000000000016 -6.319999999999993 12.339999999999975 -7 12 C-5.442980691703298 7.328942075109865 -2.9155262663258554 3.9129431469110045 0 0 Z " fill="#797AB3" transform="translate(202,291)"/>
<path d="M0 0 C0 3.554224860631905 -0.5279191190865902 3.893158494345144 -2.875 6.375 C-5.336372391665066 9.109213199231718 -6.916761604841042 11.425313295975414 -8 15 C-8.990000000000009 15 -9.97999999999999 15 -11 15 C-9.583197560955085 10.679531023791611 -7.462362146124605 7.99538801370494 -4.375 4.6875 C-3.5577343749999955 3.804492187500003 -2.740468749999991 2.9214843750000057 -1.8984375 2.01171875 C-1.2719531250000102 1.3478515624999972 -0.645468749999992 0.6839843749999943 0 0 Z " fill="#A1A2CA" transform="translate(238,70)"/>
<path d="M0 0 C0.3300000000000125 1.3199999999999932 0.6599999999999966 2.6400000000000006 1 4 C0.009999999999990905 4.329999999999998 -0.9799999999999898 4.659999999999997 -2 5 C-2.1443749999999966 5.783749999999998 -2.288749999999993 6.5674999999999955 -2.4375 7.375 C-3 10 -3 10 -4 12 C-4.659999999999997 12 -5.319999999999993 12 -6 12 C-6.3300000000000125 12.989999999999995 -6.659999999999997 13.980000000000004 -7 15 C-7.3300000000000125 14.340000000000003 -7.659999999999997 13.680000000000007 -8 13 C-6.755062522509064 10.710256838089961 -5.473584719183236 8.558099664719862 -4.0625 6.375 C-3.6764257812500034 5.763984375000007 -3.290351562500007 5.152968749999999 -2.892578125 4.5234375 C-1.9355367391912637 3.0110758039071897 -0.9686718936138448 1.5049388281528167 0 0 Z " fill="#A2A3CB" transform="translate(215,100)"/>
<path d="M0 0 C0.660000000000025 0 1.3199999999999932 0 2 0 C0.5837862131592715 3.126887865994945 -1.1233197577164447 5.53900915405859 -3.375 8.125 C-3.9602343750000273 8.808203124999977 -4.545468749999998 9.491406250000011 -5.1484375 10.1953125 C-7.006717614893546 12.006547548693732 -8.628262703565383 12.986526353505894 -11 14 C-9.612638741648823 10.843753137251099 -7.996072923625434 8.801365671314784 -5.5 6.4375 C-3.279032669079129 4.324757772068892 -1.72257582955001 2.583863744325015 0 0 Z " fill="#A3A5CE" transform="translate(276,289)"/>
<path d="M0 0 C1.092277684570405 3.2768330537111865 0.9272880126905534 4.7229715150648985 0.3125 8.0625 C0.23837890625000568 8.50142578125002 0.23837890625000568 8.50142578125002 -0.13671875 10.72265625 C-1 13 -1 13 -3.08203125 14.30859375 C-3.7149609374999955 14.536757812500014 -4.347890625000005 14.764921875000027 -5 15 C-1.9248291571753953 4.4419134396355275 -1.9248291571753953 4.4419134396355275 0 0 Z " fill="#EBC0B0" transform="translate(131,276)"/>
<path d="M0 0 C0.3299999999999841 0.660000000000025 0.660000000000025 1.3199999999999932 1 2 C-2.275308962522388 6.637207190925153 -5.304356072696294 10.685427816020933 -10 14 C-8.436326427001518 10.477619530298114 -6.30504110553386 7.728760064847961 -3.875 4.75 C-3.150546874999975 3.8579687499999977 -2.426093750000007 2.9659374999999955 -1.6796875 2.046875 C-1.4025390625000114 1.709140624999975 -1.4025390625000114 1.709140624999975 0 0 Z " fill="#AAABD0" transform="translate(288,275)"/>
<path d="M0 0 C0.660000000000025 0 1.3199999999999932 0 2 0 C1.549175312342868 1.4606719880090964 1.0890646295676447 2.9184803210598886 0.625 4.375 C0.36976562500001364 5.187109375000006 0.11453125000002728 5.999218750000011 -0.1484375 6.8359375 C-1 9 -1 9 -3 11 C-2.25 3.375 -2.25 3.375 0 0 Z " fill="#9799C7" transform="translate(266,189)"/>
<path d="M0 0 C0.3300000000000125 0.9900000000000091 0.6599999999999966 1.9800000000000182 1 3 C-0.25 4.5 -0.25 4.5 -2 6 C-3.319999999999993 6 -4.639999999999986 6 -6 6 C-6 5.009999999999991 -6 4.019999999999982 -6 3 C-5.381249999999994 2.8762500000000273 -4.762499999999989 2.7524999999999977 -4.125 2.625 C-2 2 -2 2 0 0 Z " fill="#9FA1CB" transform="translate(221,346)"/>
<path d="M0 0 C0.6599999999999966 0 1.3199999999999932 0 2 0 C2.1875 2.8125 2.1875 2.8125 2 6 C1.0100000000000051 6.990000000000009 0.01999999999999602 7.980000000000018 -1 9 C-0.6700000000000017 6.029999999999973 -0.3400000000000034 3.0600000000000023 0 0 Z " fill="#E19F82" transform="translate(88,393)"/>
<path d="M0 0 C0.5981249999999818 0.20624999999999982 1.1962500000000205 0.41249999999999964 1.8125 0.625 C-0.5825933830304848 3.5243235689316137 -2.4999524274859937 4.1266827604710805 -6.1875 4.625 C-5.030763523540713 1.1547905706220636 -3.9131129294069638 -0.6708193593269067 0 0 Z " fill="#6E6FAF" transform="translate(308.1875,6.375)"/>
<path d="M0 0 C0.6599999999999966 0 1.3199999999999932 0 2 0 C1.6700000000000017 2.6399999999999864 1.3400000000000034 5.279999999999973 1 8 C0.010000000000005116 7.670000000000016 -0.980000000000004 7.339999999999975 -2 7 C-1.3400000000000034 4.689999999999998 -0.6800000000000068 2.3799999999999955 0 0 Z " fill="#EABEA9" transform="translate(81,413)"/>
<path d="M0 0 C0.3299999999999983 0.660000000000025 0.6599999999999966 1.3199999999999932 1 2 C0.22265625 3.7265625 0.22265625 3.7265625 -0.9375 5.625 C-1.6181250000000063 6.738749999999982 -2.2987499999999983 7.8525000000000205 -3 9 C-4 7 -4 7 -3.1875 3.9375 C-2 1 -2 1 0 0 Z " fill="#EABCA8" transform="translate(120,309)"/>
<path d="M0 0 C0 3.6941820143837276 -1.2817929489148696 5.778361779215345 -3 9 C-3.329999999999984 9 -3.660000000000025 9 -4 9 C-4.25 6.1875 -4.25 6.1875 -4 3 C-2 1.125 -2 1.125 0 0 Z " fill="#8587BD" transform="translate(294,148)"/>
</svg>
