<?xml version="1.0" encoding="UTF-8"?>
<!-- Generator: visioncortex VTracer 0.6.12 -->
<svg version="1.1" xmlns="http://www.w3.org/2000/svg" width="505" height="805">
<path d="M0 0 C6.156519307224244 4.846621582282921 7.524751565888948 10.118912399693045 8.6875 17.5859375 C9.224534975110487 23.45304460308199 8.595384363639027 29.157382013960074 8 35 C7.831148701702205 37.27067193681049 7.664331216661651 39.54149646482307 7.5 41.8125 C7.125534950071369 46.87446504992863 7.125534950071369 46.87446504992863 6 48 C5.691286284659611 49.80643372045728 5.430151894330379 51.621012454592005 5.1875 53.4375 C3.5840677372009395 64.29058255491589 1.5141017543456883 75.2455133409498 -2.23046875 85.578125 C-3.2991796763600405 88.94158070732607 -4.038599967824325 92.3722938559614 -4.8125 95.8125 C-6.330001278674047 102.49085584974554 -8.101526759108935 109.06311834381296 -10.0625 115.625 C-10.307824707031273 116.45362548828126 -10.553149414062489 117.28225097656252 -10.805908203125 118.135986328125 C-12.255807429594256 122.91380959097626 -14.014082335108696 127.41310355615667 -16 132 C-16.97318541824893 134.77369970042753 -17.856736130412003 137.57471305851794 -18.75 140.375 C-23.60306756005167 155.19075250711802 -29.78938674006605 169.1902103295696 -37 183 C-37.59941406249999 184.15628906250004 -38.19882812499998 185.31257812499996 -38.81640625 186.50390625 C-42.547372873594895 193.57354546741578 -46.5686566866201 200.34899282874687 -51 207 C-51.50966308593752 207.7684423828125 -52.01932617187498 208.53688476562502 -52.54443359375 209.32861328125 C-54.291244300211076 211.9545411189127 -56.05004892350314 214.57204769075025 -57.8125 217.1875 C-58.38822753906254 218.05068847656253 -58.96395507812497 218.913876953125 -59.55712890625 219.80322265625 C-59.829362792968766 220.20371826171873 -59.829362792968766 220.20371826171873 -61.20703125 222.23046875 C-61.696633300781286 222.95645263671872 -62.18623535156246 223.6824365234375 -62.690673828125 224.430419921875 C-63.12275146484376 224.9483813476562 -63.55482910156252 225.46634277343753 -64 226 C-64.65999999999997 226 -65.32 226 -66 226 C-66.11343750000003 226.32999999999998 -66.11343750000003 226.32999999999998 -66.6875 228 C-67.78745334125045 230.51417906571533 -68.92009093615303 232.43423895037188 -70.4375 234.6875 C-76.70066243447411 244.60108551018828 -77.36218276033878 255.4299293692855 -75 266.75 C-71.33429084516251 279.76494901763414 -63.68536828749541 291.33106273181625 -56.80615234375 302.831787109375 C-53.45776770750081 308.45512964492275 -50.219580046888495 314.1041973562997 -47.25 319.9375 C-46.927089843750025 320.55689453125 -46.60417968749999 321.1762890625 -46.271484375 321.814453125 C-42.52124025719496 329.3731491407091 -42.53841037932716 336.1072840733982 -45 344 C-47 347.4375 -47 347.4375 -49 350 C-49.660000000000025 350.99 -50.31999999999999 351.98 -51 353 C-51.660000000000025 353 -52.31999999999999 353 -53 353 C-53 353.66 -53 354.32 -53 355 C-53.660000000000025 355 -54.31999999999999 355 -55 355 C-55.217851562500016 355.53625 -55.435703124999975 356.0725 -55.66015625 356.625 C-57.47060208778498 359.8341867911757 -59.91753415215885 362.34532932848026 -62.4375 365 C-67.70353986461066 370.5912749153817 -67.70353986461066 370.5912749153817 -69.72265625 373.375 C-70.14417968750001 373.91125 -70.56570312500003 374.4475 -71 375 C-71.65999999999997 375 -72.32 375 -73 375 C-73 375.6600000000001 -73 376.31999999999994 -73 377 C-74.62717215052896 378.72964673252795 -76.28216066630529 380.3639880069203 -78 382 C-79.17422092256157 383.1577818296457 -80.34596489022988 384.3180795003716 -81.515625 385.48046875 C-82.126640625 386.08697265625005 -82.73765624999999 386.6934765625 -83.3671875 387.318359375 C-83.98851562499999 387.93517578125 -84.60984374999998 388.5519921875 -85.25 389.1875 C-85.88679687499996 389.81591796875 -86.52359375000003 390.4443359375 -87.1796875 391.091796875 C-87.78554687500002 391.69443359375 -88.39140624999999 392.29707031249995 -89.015625 392.91796875 C-89.56508789062502 393.4621948242187 -90.11455078124999 394.00642089843745 -90.6806640625 394.567138671875 C-92 396 -92 396 -93 398 C-93.65999999999997 398 -94.32 398 -95 398 C-95 398.6600000000001 -95 399.31999999999994 -95 400 C-95.65999999999997 400 -96.32 400 -97 400 C-97 400.6600000000001 -97 401.31999999999994 -97 402 C-97.65999999999997 402 -98.32 402 -99 402 C-99 402.6600000000001 -99 403.31999999999994 -99 404 C-100.37499999999994 405.625 -100.37499999999994 405.625 -102 407 C-102.65999999999997 407 -103.32 407 -104 407 C-104.11065795898435 407.27364379882806 -104.11065795898435 407.27364379882806 -104.670654296875 408.658447265625 C-106.4157502756604 411.7323160502955 -108.76594951508855 414.0130562502519 -111.26953125 416.46484375 C-111.52853965759277 416.72243721008294 -111.52853965759277 416.72243721008294 -112.83927917480469 418.02601623535156 C-114.49236715226732 419.6679495004621 -116.15226176994474 421.3028001899688 -117.8125 422.9375 C-118.91777871497311 424.03273808781887 -120.02260128436285 425.12843670663835 -121.126953125 426.224609375 C-123.16881384822995 428.2501893029921 -125.21334468789615 430.27298942499965 -127.260986328125 432.292724609375 C-129.10730929258034 434.1176533332225 -130.929836880531 435.9669338703079 -132.729248046875 437.838134765625 C-135 440 -135 440 -137 440.1875 C-140.1302501545561 438.3289139707323 -141.84366864044665 435.93500657272534 -144 433 C-144 432.3399999999999 -144 431.68000000000006 -144 431 C-144.65999999999997 431 -145.32 431 -146 431 C-147.7265625000001 429.1015624999999 -147.7265625000001 429.1015624999999 -149.625 426.625 C-150.256640625 425.812890625 -150.88828125 425.00078125000005 -151.5390625 424.1640625 C-153 422 -153 422 -153 420 C-153.66 420 -154.32 420 -155 420 C-156.60634015052239 418.26608048734226 -158.13752869936275 416.46190900300917 -159.625 414.625 C-160.442265625 413.62726562500006 -161.25953125 412.62953125 -162.1015625 411.6015625 C-164 409 -164 409 -164 407 C-164.99 406.6700000000001 -165.98 406.3399999999999 -167 406 C-171 401.5428571428571 -171 401.5428571428571 -171 399 C-171.66 399 -172.32 399 -173 399 C-175.18749999999997 396.8125 -175.18749999999997 396.8125 -177 394 C-176.8065437794438 391.2271275053612 -176.23457223104643 389.4691444620928 -175 387 C-174.34 387 -173.68 387 -173 387 C-172.79375 386.31937500000004 -172.5875 385.6387500000001 -172.375 384.9375 C-170.80637042630772 381.5863368198393 -168.8090123833992 379.27350754257463 -166.33984375 376.55078125 C-164.99999999999997 375 -164.99999999999997 375 -164 373 C-163.34 373 -162.68 373 -162 373 C-161.79375 372.34 -161.5875 371.68 -161.375 371 C-160.15207282890995 368.33179526307623 -159.00853340509337 366.6798521877628 -157.1875 364.4375 C-153.31617146044022 359.44926004804887 -151.16693907064453 353.888421387621 -149 348 C-148.6326171875 347.1376171875 -148.26523437499998 346.275234375 -147.88671875 345.38671875 C-144.8230534675015 333.685406856052 -145.08570313515696 317.7565711591131 -150.30859375 306.73046875 C-154.8029471719987 299.47514994635776 -160.5712440366964 290.8095853211012 -169 288 C-169 287.34 -169 286.68 -169 286 C-184.193075938752 282.45150380568833 -196.01689754338412 282.19227769111166 -211 287 C-212.32970213465234 287.3475357851932 -213.6614382229775 287.6883250764286 -215 288 C-215 288.66 -215 289.32 -215 290 C-215.5259375 290.2784375 -215.5259375 290.2784375 -218.1875 291.6875 C-221.68305739031905 293.6617115625486 -224.20017600116836 296.12018102977316 -227 299 C-227.66 299 -228.32 299 -229 299 C-229.131484375 299.28423828125 -229.131484375 299.28423828125 -229.796875 300.72265625 C-231.08577679459518 303.16236321834083 -232.59675517809228 305.22945004641605 -234.25 307.4375 C-241.22229831926438 317.31733351049286 -245.14939119113865 328.63559258623656 -249 340 C-249.66 340 -250.32 340 -251 340 C-251.144375 341.134375 -251.28875 342.26875 -251.4375 343.4375 C-252 347 -252 347 -253 348 C-254.6434086678024 348.09854655150843 -256.2911461027578 348.12972411448277 -257.9375 348.125 C-258.8333984375 348.127578125 -259.729296875 348.13015625 -260.65234375 348.1328125 C-263 348 -263 348 -265 347 C-266.49579603774396 346.7990721740344 -267.9969672431634 346.6366393415306 -269.5 346.5 C-273.7777777777778 346.1111111111111 -273.7777777777778 346.1111111111111 -276 345 C-277.49579603774396 344.7990721740344 -278.9969672431634 344.6366393415306 -280.5 344.5 C-284.77777777777766 344.11111111111114 -284.77777777777766 344.11111111111114 -287 343 C-288.53202927255813 342.7363417450003 -290.0714311582698 342.51471828200033 -291.61328125 342.31640625 C-292.53173828125 342.19330078125 -293.4501953125 342.0701953125 -294.396484375 341.943359375 C-296.3284723729575 341.69102336722926 -298.2607631148538 341.44099374324924 -300.193359375 341.193359375 C-300.654521484375 341.131162109375 -300.654521484375 341.131162109375 -302.98828125 340.81640625 C-303.82915283203124 340.70756103515623 -304.6700244140625 340.5987158203125 -305.536376953125 340.486572265625 C-308.1993490147416 339.96062802632247 -310.51453518849473 339.0785979370683 -313 338 C-312.3580888398642 333.0744440682648 -311.466184051458 328.27081666948214 -310.3125 323.4375 C-310.1431494140625 322.7222314453125 -309.973798828125 322.006962890625 -309.79931640625 321.27001953125 C-307.1440123183163 310.24335957209024 -304.0897820231969 299.3102641115634 -300.97265625 288.40625 C-300.2396232050637 285.8391623888176 -299.5215392970045 283.2700651403842 -298.81640625 280.6953125 C-298.61080078124996 279.9463671875 -298.4051953125 279.197421875 -298.193359375 278.42578125 C-297.77505170909103 276.90018858609665 -297.358366684835 275.3741500142511 -296.943359375 273.84765625 C-295.90028041794784 270.05877754619064 -294.79242528376597 266.31482043970897 -293.52734375 262.59375 C-291.520855310603 256.68036305172257 -289.901287351793 250.66094347007856 -288.25 244.640625 C-287.159707383395 240.7451003385885 -286.0647496701233 236.95340383729575 -284.42578125 233.25 C-283.02904105880214 230.06619770115992 -282.0936702427819 226.97658856919338 -281.1875 223.625 C-279.2960472851739 217.341898453049 -276.8225853929177 210.16385637420518 -270.8125 206.76171875 C-270.214375 206.51035156249998 -269.61625000000004 206.258984375 -269 206 C-269 205.34000000000003 -269 204.68 -269 204 C-259.6599677087484 200.40767988798018 -249.9978243910341 200.925569891608 -240.1591796875 201.03964233398438 C-228.91257570520617 201.15535258649447 -217.7183134182053 201.096702544236 -206.5 200.1875 C-205.57179443359377 200.1173266601562 -204.6435888671875 200.04715332031253 -203.687255859375 199.974853515625 C-191.4494012998378 198.84882240852903 -181.47172790015566 195.21164211128405 -173.125 185.9375 C-169.34275259654058 181.32734129854828 -166.96463264613766 177.02857267180298 -164.9296875 171.40625 C-161.0213426583734 161.2905339393194 -155.86817833743595 151.62194286931975 -150.9833984375 141.95068359375 C-149.31346821862863 138.63818546843163 -147.65751948711102 135.31872235086013 -146 132 C-145.34000000000003 132 -144.68 132 -144 132 C-143.91878906249997 131.4753515625 -143.837578125 130.95070312500002 -143.75390625 130.41015625 C-142.70783928747852 127.06599399157642 -140.85033178646813 124.33860842019692 -138.9375 121.4375 C-138.53845458984375 120.82632324218753 -138.1394091796875 120.215146484375 -137.728271484375 119.58544921875 C-129.59104366623188 107.21969159821015 -129.59104366623188 107.21969159821015 -126 103 C-125.34000000000003 103 -124.68 103 -124 103 C-123.7421875 102.2742578125 -123.484375 101.548515625 -123.21875 100.80078125 C-121.94757500724393 97.87952333395486 -120.45983598310306 95.6912735123118 -118.5 93.1875 C-117.89156249999996 92.3973046875 -117.28312500000004 91.607109375 -116.65625 90.79296875 C-116.1096875 90.2012890625 -115.56312500000001 89.60960937499999 -115 89 C-114.34000000000003 89 -113.68 89 -113 89 C-112.88656249999997 88.7421875 -112.88656249999997 88.7421875 -112.3125 87.4375 C-110.51782382069842 84.10452995272561 -108.50034984710192 80.85296328707778 -106 78 C-105.34000000000003 78 -104.68 78 -104 78 C-104 77.34 -104 76.68 -104 76 C-103.34000000000003 76 -102.68 76 -102 76 C-101.773125 75.46375 -101.54624999999999 74.92750000000001 -101.3125 74.375 C-98.43433904667557 69.16689922731769 -94.17713258533081 65.16625658919372 -90 61 C-88.32635976219882 59.31556422627969 -86.65320073904104 57.6306502151819 -84.98046875 55.9453125 C-83.54165542040926 54.49911726482625 -82.10235518995444 53.05340855428983 -80.662841796875 51.60791015625 C-79.68374232810731 50.62378800280058 -78.70554305294718 49.63876938418457 -77.728271484375 48.65283203125 C-72.51690709444733 43.39668590856979 -67.28914866605135 38.21473615305317 -61.637451171875 33.427001953125 C-60.04586937549402 32.039974131468995 -58.58543602851148 30.585665459080957 -57.125 29.0625 C-55 27 -55 27 -53 27 C-53 26.340000000000003 -53 25.680000000000007 -53 25 C-52.339999999999975 25 -51.68000000000001 25 -51 25 C-51 24.340000000000003 -51 23.680000000000007 -51 23 C-49.47047123652703 21.62517548168745 -47.87477093552155 20.323341029443753 -46.25 19.0625 C-45.809140625 18.717675781249994 -45.809140625 18.717675781249994 -43.578125 16.97265625 C-42.72734374999999 16.321679687499994 -41.87656249999998 15.670703124999989 -41 15 C-40.27296875000002 14.421210937500007 -39.54593749999998 13.842421875000014 -38.796875 13.24609375 C-37 12 -37 12 -35 12 C-35 11.340000000000003 -35 10.680000000000007 -35 10 C-33.01999999999998 9.340000000000003 -31.04000000000002 8.680000000000007 -29 8 C-29 7.340000000000003 -29 6.680000000000007 -29 6 C-25.633160853710876 3.5683939499023154 -24.266496356864877 3 -20 3 C-20 2.3400000000000034 -20 1.6800000000000068 -20 1 C-6.524126548604727 -2.0478143693809727 -6.524126548604727 -2.0478143693809727 0 0 Z " fill="#000075" transform="translate(405,139)"/>
<path d="M0 0 C0.9113671874999909 -0.007734374999984084 1.8227343749999818 -0.015468750000025011 2.76171875 -0.0234375 C8.064769111100219 -0.008132881353219545 12.4839779054617 0.513684659582907 17.5 2.25 C17.5 2.910000000000025 17.5 3.569999999999993 17.5 4.25 C18.082656250000014 4.354414062499984 18.6653125 4.458828125000025 19.265625 4.56640625 C21.836454227659686 5.352936171049748 23.23400579536934 6.425658910910386 25.25 8.1875 C25.863593750000007 8.712148437499991 26.477187500000014 9.236796874999982 27.109375 9.77734375 C28.5 11.25 28.5 11.25 28.5 13.25 C29.159999999999997 13.25 29.819999999999993 13.25 30.5 13.25 C38.15096003918234 25.769752791389294 40.591194808935 38.36869819757544 37.80859375 52.84765625 C33.87304313875043 66.66325023677149 25.778089138395643 77.15934868822114 17.02685546875 88.255859375 C15.524175124897539 90.21842621999315 14.120237038171979 92.2273796585107 12.72265625 94.265625 C11.989179687500013 95.25046874999998 11.255703124999997 96.23531249999996 10.5 97.25 C9.840000000000003 97.25 9.180000000000007 97.25 8.5 97.25 C8.364608154296889 97.54233520507819 8.364608154296889 97.54233520507819 7.679443359375 99.021728515625 C6.507081280879902 101.23662164135987 5.228501394745592 102.97880575791851 3.62890625 104.90234375 C3.059865722656241 105.59005859374997 2.490825195312482 106.27777343749995 1.904541015625 106.986328125 C1.2966674804687557 107.71271484375006 0.6887939453125114 108.43910156250001 0.0625 109.1875 C-0.5627758789062511 109.94095703125004 -1.1880517578125023 110.69441406249996 -1.832275390625 111.470703125 C-6.114032141455226 116.62080341549574 -10.43533499046822 121.73715183647619 -14.78662109375 126.82861328125 C-18.068963661943826 130.68576668626395 -21.162994440510687 134.65657189086664 -24.16015625 138.73828125 C-24.60230468750001 139.23714843749997 -25.044453125000018 139.73601562499994 -25.5 140.25 C-26.159999999999997 140.25 -26.819999999999993 140.25 -27.5 140.25 C-27.726875000000007 140.95124999999996 -27.953750000000014 141.65250000000003 -28.1875 142.375 C-29.838412877549217 145.99128535082218 -31.790883501610693 148.3376997642315 -34.5 151.25 C-35.16 151.25 -35.81999999999999 151.25 -36.5 151.25 C-36.61279296875 151.60384765624997 -36.61279296875 151.60384765624997 -37.18359375 153.39453125 C-38.79563450693573 156.89127247646888 -40.91738840181404 159.14776359500684 -43.5625 161.9375 C-48.41755725190836 167.08511450381673 -48.41755725190836 167.08511450381673 -49.5 169.25 C-50.16 169.25 -50.81999999999999 169.25 -51.5 169.25 C-51.80937499999999 169.86874999999998 -52.118750000000006 170.48749999999995 -52.4375 171.125 C-53.125 172.5 -53.8125 173.875 -54.5 175.25 C-55.16 175.25 -55.81999999999999 175.25 -56.5 175.25 C-56.717851562500016 175.7772265625 -56.935703125 176.304453125 -57.16015625 176.84765625 C-59.00333984893183 180.15248981659784 -61.45241545783168 182.85867537655088 -63.9375 185.6875 C-65.0224626920745 186.93851832426571 -66.10709041705383 188.189827221227 -67.19140625 189.44140625 C-67.7419970703125 190.07449707031253 -68.29258789062499 190.70758789062506 -68.85986328125 191.35986328125 C-71.38232997328848 194.26682028180994 -73.88347649008861 197.1915018848522 -76.375 200.125 C-76.60276123046876 200.39256103515618 -76.60276123046876 200.39256103515618 -77.75537109375 201.74658203125 C-80.81136041357644 205.36270483700707 -83.67771404460419 209.0695587882285 -86.37890625 212.95703125 C-86.7488671875 213.38371093750004 -87.118828125 213.81039062499997 -87.5 214.25 C-88.16 214.25 -88.82 214.25 -89.5 214.25 C-89.755234375 214.82492187499997 -90.01046875 215.39984374999995 -90.2734375 215.9921875 C-91.63037588870736 218.4899912855824 -93.19453145785549 220.29070926326233 -95.125 222.375 C-98.90476710460071 226.5272259068788 -102.39802313329167 230.84346412424907 -105.8359375 235.28125 C-107.5 237.25 -107.5 237.25 -109.5 238.25 C-112.17236209523685 238.38415472365648 -114.82250488413835 238.2931854050945 -117.5 238.25 C-119.61117387160758 233.33514665399935 -119.50341746600596 230.85626854411146 -117.61328125 225.890625 C-117.16919921875 224.69179687500002 -116.7251171875 223.49296875000005 -116.267578125 222.2578125 C-115.78329816746496 221.00491969445943 -115.29826774621608 219.75231671560414 -114.8125 218.5 C-113.88966957632937 216.0477233496864 -112.96905558542319 213.59461134988624 -112.05078125 211.140625 C-111.6068603515625 209.96435546875 -111.162939453125 208.7880859375 -110.70556640625 207.576171875 C-109.36798528472166 203.88576984994893 -108.24934166800386 200.16617162374268 -107.164794921875 196.395751953125 C-106.18756653400207 193.2415616112171 -104.81708657996663 190.27600641747335 -103.5 187.25 C-102.11369415828592 183.45570979260026 -100.80759885784198 179.63452297733886 -99.5 175.8125 C-97.47008135107133 169.90207897144637 -95.43441875858142 164.00253177300942 -93.21484375 158.160400390625 C-91.64855907628667 153.9745473947894 -90.209923148243 149.74147035858846 -88.75 145.517578125 C-87.17397986782257 141.007041340461 -85.38478080696902 136.64287495167582 -83.5 132.25 C-82.51844465327054 129.6191994308083 -81.60215155524395 126.96719012899507 -80.6875 124.3125 C-78.4400939497888 117.864005040346 -76.10385526231613 111.4568922409203 -73.6826171875 105.07177734375 C-72.03503702130172 100.71529898817334 -70.47072465227404 96.33593822121111 -68.9375 91.9375 C-67.45613286828265 87.7402931268009 -65.84356106799939 83.70882396053526 -63.9375 79.6875 C-61.610722974450624 74.74400488652748 -60.064515846634436 69.72959581517057 -58.5234375 64.49609375 C-57.21589025405663 60.34887328672164 -55.57085775956304 56.40715389599154 -53.84765625 52.41796875 C-52.610197335067824 49.50904359055073 -51.45438098533293 46.577195561979636 -50.317138671875 43.6279296875 C-44.53721379881429 28.76579999125721 -35.91040971748646 11.2809994336032 -20.5 4.25 C-19.50999999999999 4.25 -18.519999999999982 4.25 -17.5 4.25 C-17.5 3.589999999999975 -17.5 2.930000000000007 -17.5 2.25 C-11.581772348522179 0.2013827360269147 -6.234350763131999 -0.05290821015387337 0 0 Z " fill="#D36A3C" transform="translate(214.5,427.75)"/>
<path d="M0 0 C6.156519307224244 4.846621582282921 7.524751565888948 10.118912399693045 8.6875 17.5859375 C9.224534975110487 23.45304460308199 8.595384363639027 29.157382013960074 8 35 C7.831148701702205 37.27067193681049 7.664331216661651 39.54149646482307 7.5 41.8125 C7.125534950071369 46.87446504992863 7.125534950071369 46.87446504992863 6 48 C5.691286284659611 49.80643372045728 5.430151894330379 51.621012454592005 5.1875 53.4375 C3.5840677372009395 64.29058255491589 1.5141017543456883 75.2455133409498 -2.23046875 85.578125 C-3.2991796763600405 88.94158070732607 -4.038599967824325 92.3722938559614 -4.8125 95.8125 C-6.330001278674047 102.49085584974554 -8.101526759108935 109.06311834381296 -10.0625 115.625 C-10.307824707031273 116.45362548828126 -10.553149414062489 117.28225097656252 -10.805908203125 118.135986328125 C-12.255807429594256 122.91380959097626 -14.014082335108696 127.41310355615667 -16 132 C-16.97318541824893 134.77369970042753 -17.856736130412003 137.57471305851794 -18.75 140.375 C-23.60306756005167 155.19075250711802 -29.78938674006605 169.1902103295696 -37 183 C-37.59941406249999 184.15628906250004 -38.19882812499998 185.31257812499996 -38.81640625 186.50390625 C-42.547372873594895 193.57354546741578 -46.5686566866201 200.34899282874687 -51 207 C-51.50966308593752 207.7684423828125 -52.01932617187498 208.53688476562502 -52.54443359375 209.32861328125 C-54.291244300211076 211.9545411189127 -56.05004892350314 214.57204769075025 -57.8125 217.1875 C-58.38822753906254 218.05068847656253 -58.96395507812497 218.913876953125 -59.55712890625 219.80322265625 C-59.829362792968766 220.20371826171873 -59.829362792968766 220.20371826171873 -61.20703125 222.23046875 C-61.696633300781286 222.95645263671872 -62.18623535156246 223.6824365234375 -62.690673828125 224.430419921875 C-63.12275146484376 224.9483813476562 -63.55482910156252 225.46634277343753 -64 226 C-64.65999999999997 226 -65.32 226 -66 226 C-66.11343750000003 226.32999999999998 -66.11343750000003 226.32999999999998 -66.6875 228 C-67.78745334125045 230.51417906571533 -68.92009093615303 232.43423895037188 -70.4375 234.6875 C-76.70066243447411 244.60108551018828 -77.36218276033878 255.4299293692855 -75 266.75 C-71.33429084516251 279.76494901763414 -63.68536828749541 291.33106273181625 -56.80615234375 302.831787109375 C-53.45776770750081 308.45512964492275 -50.219580046888495 314.1041973562997 -47.25 319.9375 C-46.927089843750025 320.55689453125 -46.60417968749999 321.1762890625 -46.271484375 321.814453125 C-42.52124025719496 329.3731491407091 -42.53841037932716 336.1072840733982 -45 344 C-47 347.4375 -47 347.4375 -49 350 C-49.660000000000025 350.99 -50.31999999999999 351.98 -51 353 C-51.660000000000025 353 -52.31999999999999 353 -53 353 C-53 353.66 -53 354.32 -53 355 C-53.660000000000025 355 -54.31999999999999 355 -55 355 C-55.217851562500016 355.53625 -55.435703124999975 356.0725 -55.66015625 356.625 C-57.47060208778498 359.8341867911757 -59.91753415215885 362.34532932848026 -62.4375 365 C-67.70353986461066 370.5912749153817 -67.70353986461066 370.5912749153817 -69.72265625 373.375 C-70.14417968750001 373.91125 -70.56570312500003 374.4475 -71 375 C-71.65999999999997 375 -72.32 375 -73 375 C-73 375.6600000000001 -73 376.31999999999994 -73 377 C-74.62717215052896 378.72964673252795 -76.28216066630529 380.3639880069203 -78 382 C-79.17422092256157 383.1577818296457 -80.34596489022988 384.3180795003716 -81.515625 385.48046875 C-82.126640625 386.08697265625005 -82.73765624999999 386.6934765625 -83.3671875 387.318359375 C-83.98851562499999 387.93517578125 -84.60984374999998 388.5519921875 -85.25 389.1875 C-85.88679687499996 389.81591796875 -86.52359375000003 390.4443359375 -87.1796875 391.091796875 C-87.78554687500002 391.69443359375 -88.39140624999999 392.29707031249995 -89.015625 392.91796875 C-89.56508789062502 393.4621948242187 -90.11455078124999 394.00642089843745 -90.6806640625 394.567138671875 C-92 396 -92 396 -93 398 C-93.65999999999997 398 -94.32 398 -95 398 C-95 398.6600000000001 -95 399.31999999999994 -95 400 C-95.65999999999997 400 -96.32 400 -97 400 C-97 400.6600000000001 -97 401.31999999999994 -97 402 C-97.65999999999997 402 -98.32 402 -99 402 C-99 402.6600000000001 -99 403.31999999999994 -99 404 C-100.37499999999994 405.625 -100.37499999999994 405.625 -102 407 C-102.65999999999997 407 -103.32 407 -104 407 C-104.11065795898435 407.27364379882806 -104.11065795898435 407.27364379882806 -104.670654296875 408.658447265625 C-106.4157502756604 411.7323160502955 -108.76594951508855 414.0130562502519 -111.26953125 416.46484375 C-111.52853965759277 416.72243721008294 -111.52853965759277 416.72243721008294 -112.83927917480469 418.02601623535156 C-114.49236715226732 419.6679495004621 -116.15226176994474 421.3028001899688 -117.8125 422.9375 C-118.91777871497311 424.03273808781887 -120.02260128436285 425.12843670663835 -121.126953125 426.224609375 C-123.16881384822995 428.2501893029921 -125.21334468789615 430.27298942499965 -127.260986328125 432.292724609375 C-129.10730929258034 434.1176533332225 -130.929836880531 435.9669338703079 -132.729248046875 437.838134765625 C-135 440 -135 440 -137 440.1875 C-140.1302501545561 438.3289139707323 -141.84366864044665 435.93500657272534 -144 433 C-144 432.3399999999999 -144 431.68000000000006 -144 431 C-144.65999999999997 431 -145.32 431 -146 431 C-147.7265625000001 429.1015624999999 -147.7265625000001 429.1015624999999 -149.625 426.625 C-150.256640625 425.812890625 -150.88828125 425.00078125000005 -151.5390625 424.1640625 C-153 422 -153 422 -153 420 C-153.66 420 -154.32 420 -155 420 C-156.60634015052239 418.26608048734226 -158.13752869936275 416.46190900300917 -159.625 414.625 C-160.442265625 413.62726562500006 -161.25953125 412.62953125 -162.1015625 411.6015625 C-164 409 -164 409 -164 407 C-164.99 406.6700000000001 -165.98 406.3399999999999 -167 406 C-171 401.5428571428571 -171 401.5428571428571 -171 399 C-171.66 399 -172.32 399 -173 399 C-175.18749999999997 396.8125 -175.18749999999997 396.8125 -177 394 C-176.8065437794438 391.2271275053612 -176.23457223104643 389.4691444620928 -175 387 C-174.34 387 -173.68 387 -173 387 C-172.79375 386.31937500000004 -172.5875 385.6387500000001 -172.375 384.9375 C-170.80637042630772 381.5863368198393 -168.8090123833992 379.27350754257463 -166.33984375 376.55078125 C-164.99999999999997 375 -164.99999999999997 375 -164 373 C-163.34 373 -162.68 373 -162 373 C-161.79375 372.34 -161.5875 371.68 -161.375 371 C-160.15207282890995 368.33179526307623 -159.00853340509337 366.6798521877628 -157.1875 364.4375 C-153.31617146044022 359.44926004804887 -151.16693907064453 353.888421387621 -149 348 C-148.6326171875 347.1376171875 -148.26523437499998 346.275234375 -147.88671875 345.38671875 C-144.8230534675015 333.685406856052 -145.08570313515696 317.7565711591131 -150.30859375 306.73046875 C-154.8029471719987 299.47514994635776 -160.5712440366964 290.8095853211012 -169 288 C-169 287.34 -169 286.68 -169 286 C-184.193075938752 282.45150380568833 -196.01689754338412 282.19227769111166 -211 287 C-212.32970213465234 287.3475357851932 -213.6614382229775 287.6883250764286 -215 288 C-215 288.66 -215 289.32 -215 290 C-215.5259375 290.2784375 -215.5259375 290.2784375 -218.1875 291.6875 C-221.68305739031905 293.6617115625486 -224.20017600116836 296.12018102977316 -227 299 C-227.66 299 -228.32 299 -229 299 C-229.131484375 299.28423828125 -229.131484375 299.28423828125 -229.796875 300.72265625 C-231.08577679459518 303.16236321834083 -232.59675517809228 305.22945004641605 -234.25 307.4375 C-241.22229831926438 317.31733351049286 -245.14939119113865 328.63559258623656 -249 340 C-249.66 340 -250.32 340 -251 340 C-251.144375 341.134375 -251.28875 342.26875 -251.4375 343.4375 C-252 347 -252 347 -253 348 C-254.6434086678024 348.09854655150843 -256.2911461027578 348.12972411448277 -257.9375 348.125 C-258.8333984375 348.127578125 -259.729296875 348.13015625 -260.65234375 348.1328125 C-263 348 -263 348 -265 347 C-266.49579603774396 346.7990721740344 -267.9969672431634 346.6366393415306 -269.5 346.5 C-273.7777777777778 346.1111111111111 -273.7777777777778 346.1111111111111 -276 345 C-277.49579603774396 344.7990721740344 -278.9969672431634 344.6366393415306 -280.5 344.5 C-284.77777777777766 344.11111111111114 -284.77777777777766 344.11111111111114 -287 343 C-288.53202927255813 342.7363417450003 -290.0714311582698 342.51471828200033 -291.61328125 342.31640625 C-292.53173828125 342.19330078125 -293.4501953125 342.0701953125 -294.396484375 341.943359375 C-296.3284723729575 341.69102336722926 -298.2607631148538 341.44099374324924 -300.193359375 341.193359375 C-300.654521484375 341.131162109375 -300.654521484375 341.131162109375 -302.98828125 340.81640625 C-303.82915283203124 340.70756103515623 -304.6700244140625 340.5987158203125 -305.536376953125 340.486572265625 C-308.1993490147416 339.96062802632247 -310.51453518849473 339.0785979370683 -313 338 C-312.3580888398642 333.0744440682648 -311.466184051458 328.27081666948214 -310.3125 323.4375 C-310.1431494140625 322.7222314453125 -309.973798828125 322.006962890625 -309.79931640625 321.27001953125 C-307.1440123183163 310.24335957209024 -304.0897820231969 299.3102641115634 -300.97265625 288.40625 C-300.2396232050637 285.8391623888176 -299.5215392970045 283.2700651403842 -298.81640625 280.6953125 C-298.61080078124996 279.9463671875 -298.4051953125 279.197421875 -298.193359375 278.42578125 C-297.77505170909103 276.90018858609665 -297.358366684835 275.3741500142511 -296.943359375 273.84765625 C-295.90028041794784 270.05877754619064 -294.79242528376597 266.31482043970897 -293.52734375 262.59375 C-291.520855310603 256.68036305172257 -289.901287351793 250.66094347007856 -288.25 244.640625 C-287.159707383395 240.7451003385885 -286.0647496701233 236.95340383729575 -284.42578125 233.25 C-283.02904105880214 230.06619770115992 -282.0936702427819 226.97658856919338 -281.1875 223.625 C-279.2960472851739 217.341898453049 -276.8225853929177 210.16385637420518 -270.8125 206.76171875 C-270.214375 206.51035156249998 -269.61625000000004 206.258984375 -269 206 C-269 205.34000000000003 -269 204.68 -269 204 C-259.6599677087484 200.40767988798018 -249.9978243910341 200.925569891608 -240.1591796875 201.03964233398438 C-228.91257570520617 201.15535258649447 -217.7183134182053 201.096702544236 -206.5 200.1875 C-205.57179443359377 200.1173266601562 -204.6435888671875 200.04715332031253 -203.687255859375 199.974853515625 C-191.4494012998378 198.84882240852903 -181.47172790015566 195.21164211128405 -173.125 185.9375 C-169.34275259654058 181.32734129854828 -166.96463264613766 177.02857267180298 -164.9296875 171.40625 C-161.0213426583734 161.2905339393194 -155.86817833743595 151.62194286931975 -150.9833984375 141.95068359375 C-149.31346821862863 138.63818546843163 -147.65751948711102 135.31872235086013 -146 132 C-145.34000000000003 132 -144.68 132 -144 132 C-143.91878906249997 131.4753515625 -143.837578125 130.95070312500002 -143.75390625 130.41015625 C-142.70783928747852 127.06599399157642 -140.85033178646813 124.33860842019692 -138.9375 121.4375 C-138.53845458984375 120.82632324218753 -138.1394091796875 120.215146484375 -137.728271484375 119.58544921875 C-129.59104366623188 107.21969159821015 -129.59104366623188 107.21969159821015 -126 103 C-125.34000000000003 103 -124.68 103 -124 103 C-123.7421875 102.2742578125 -123.484375 101.548515625 -123.21875 100.80078125 C-121.94757500724393 97.87952333395486 -120.45983598310306 95.6912735123118 -118.5 93.1875 C-117.89156249999996 92.3973046875 -117.28312500000004 91.607109375 -116.65625 90.79296875 C-116.1096875 90.2012890625 -115.56312500000001 89.60960937499999 -115 89 C-114.34000000000003 89 -113.68 89 -113 89 C-112.88656249999997 88.7421875 -112.88656249999997 88.7421875 -112.3125 87.4375 C-110.51782382069842 84.10452995272561 -108.50034984710192 80.85296328707778 -106 78 C-105.34000000000003 78 -104.68 78 -104 78 C-104 77.34 -104 76.68 -104 76 C-103.34000000000003 76 -102.68 76 -102 76 C-101.773125 75.46375 -101.54624999999999 74.92750000000001 -101.3125 74.375 C-98.43433904667557 69.16689922731769 -94.17713258533081 65.16625658919372 -90 61 C-88.32635976219882 59.31556422627969 -86.65320073904104 57.6306502151819 -84.98046875 55.9453125 C-83.54165542040926 54.49911726482625 -82.10235518995444 53.05340855428983 -80.662841796875 51.60791015625 C-79.68374232810731 50.62378800280058 -78.70554305294718 49.63876938418457 -77.728271484375 48.65283203125 C-72.51690709444733 43.39668590856979 -67.28914866605135 38.21473615305317 -61.637451171875 33.427001953125 C-60.04586937549402 32.039974131468995 -58.58543602851148 30.585665459080957 -57.125 29.0625 C-55 27 -55 27 -53 27 C-53 26.340000000000003 -53 25.680000000000007 -53 25 C-52.339999999999975 25 -51.68000000000001 25 -51 25 C-51 24.340000000000003 -51 23.680000000000007 -51 23 C-49.47047123652703 21.62517548168745 -47.87477093552155 20.323341029443753 -46.25 19.0625 C-45.809140625 18.717675781249994 -45.809140625 18.717675781249994 -43.578125 16.97265625 C-42.72734374999999 16.321679687499994 -41.87656249999998 15.670703124999989 -41 15 C-40.27296875000002 14.421210937500007 -39.54593749999998 13.842421875000014 -38.796875 13.24609375 C-37 12 -37 12 -35 12 C-35 11.340000000000003 -35 10.680000000000007 -35 10 C-33.01999999999998 9.340000000000003 -31.04000000000002 8.680000000000007 -29 8 C-29 7.340000000000003 -29 6.680000000000007 -29 6 C-25.633160853710876 3.5683939499023154 -24.266496356864877 3 -20 3 C-20 2.3400000000000034 -20 1.6800000000000068 -20 1 C-6.524126548604727 -2.0478143693809727 -6.524126548604727 -2.0478143693809727 0 0 Z M-42 21 C-44.98101587784407 23.373347256591273 -47.96264046638811 25.745921922031556 -50.9453125 28.1171875 C-51.28433593750003 28.427851562499995 -51.28433593750003 28.427851562499995 -53 30 C-53 30.659999999999997 -53 31.319999999999993 -53 32 C-53.65999999999997 32 -54.31999999999999 32 -55 32 C-55 32.66 -55 33.31999999999999 -55 34 C-55.65999999999997 34 -56.31999999999999 34 -57 34 C-57 34.66 -57 35.31999999999999 -57 36 C-57.58626159667972 36.26159912109375 -58.17252319335938 36.523198242187505 -58.77655029296875 36.792724609375 C-61.12805782299279 38.069532068923024 -62.684463168587 39.43072936852883 -64.5751953125 41.31640625 C-65.25559875488284 41.99050537109375 -65.93600219726562 42.66460449218749 -66.63702392578125 43.359130859375 C-67.36008728027343 44.08624267578125 -68.08315063476562 44.8133544921875 -68.828125 45.5625 C-69.57713073730469 46.30959228515624 -70.32613647460937 47.056684570312484 -71.09783935546875 47.826416015625 C-72.6770620447628 49.40427918834729 -74.25376773640511 50.98466499154125 -75.828125 52.5673828125 C-78.24778945707101 54.99777965224351 -80.67796188890406 57.417300609778835 -83.109375 59.8359375 C-84.64126697154973 61.36915051670775 -86.17253872456962 62.90298352222442 -87.703125 64.4375 C-88.06870513916016 64.80105590820313 -88.06870513916016 64.80105590820313 -89.91876220703125 66.640869140625 C-90.58655700683596 67.31496826171875 -91.25435180664061 67.9890673828125 -91.9423828125 68.68359375 C-92.23835357666019 68.98036010742186 -92.23835357666019 68.98036010742186 -93.73614501953125 70.482177734375 C-95 72 -95 72 -95 74 C-95.65999999999997 74 -96.32 74 -97 74 C-98.41438405904557 75.57286683944602 -99.75604400972361 77.21139995594433 -101.0625 78.875 C-104.08271833655783 82.65750986559323 -107.15212393476662 86.32071415006783 -110.4375 89.875 C-120.27704708056797 100.73418926508276 -128.47693217427314 112.79349557390583 -136.6123046875 124.94873046875 C-137.47993835047862 126.23125299449708 -138.36362085031226 127.50322777939061 -139.2705078125 128.75830078125 C-141.52726128921768 131.9195388603572 -142 132.93158614082836 -142 137 C-142.65999999999997 137 -143.32 137 -144 137 C-145.32066754640448 139.39164168426322 -146.63161791794124 141.78780215690057 -147.9375 144.1875 C-148.31068359375 144.86103515625 -148.68386718750003 145.53457031250002 -149.068359375 146.228515625 C-151.0055486786691 149.80620758222676 -152.49827956059278 152.8986345032584 -153 157 C-153.66 157 -154.32 157 -155 157 C-155.12117187500002 157.3029296875 -155.12117187500002 157.3029296875 -155.734375 158.8359375 C-156.44136155588134 160.60340388970337 -157.14980455783294 162.37028810699962 -157.859375 164.13671875 C-158.58902893952424 165.96835004339476 -159.30876723376116 167.80398237406268 -160.015625 169.64453125 C-161.54351214272506 173.59157303537313 -163.10185281827307 177.34663701135878 -165.25 181 C-167 184 -167 184 -167 186 C-167.66 186 -168.32 186 -169 186 C-169.12375 186.39187500000003 -169.12375 186.39187500000003 -169.75 188.375 C-171.24465030747587 191.51376564569932 -171.89661891662456 191.65799736935116 -175 193 C-175.515625 193.39187500000003 -175.515625 193.39187500000003 -178.125 195.375 C-189.66763749412124 203.66515701378626 -203.8650913186769 204.27594257573406 -217.6171875 204.34375 C-218.75858184814453 204.35837280273438 -219.89997619628906 204.37299560546876 -221.07595825195313 204.3880615234375 C-225.8978622911411 204.449652702275 -230.71988177487106 204.49000230564138 -235.5419921875 204.53173828125 C-239.08802420082117 204.56553268030314 -242.63379156246947 204.61059266317898 -246.1796875 204.65625 C-246.720887298584 204.65888854980471 -246.720887298584 204.65888854980471 -249.45968627929688 204.6722412109375 C-255.03747459462636 204.74569629063512 -259.73231102937325 205.1403025525126 -265 207 C-265.99 207.33000000000004 -266.98 207.65999999999997 -268 208 C-268 208.65999999999997 -268 209.32 -268 210 C-268.99 210.33000000000004 -269.98 210.65999999999997 -271 211 C-271 211.65999999999997 -271 212.32 -271 213 C-271.65999999999997 213 -272.32 213 -273 213 C-276.41849558544646 221.23857436092595 -279.59314949088036 229.40885300911458 -282.04296875 238 C-283 241 -283 241 -284.48828125 244.34765625 C-286.14413623696674 248.34823612807207 -287.1036848396968 252.21798244450508 -288 256.4375 C-289.0776533087753 261.4832919754097 -290.3953578556537 266.1836688155178 -292.27734375 270.988525390625 C-293.5083701909532 274.41502094704845 -294.23600802886125 277.94549498173586 -295 281.5 C-296.0886115565661 286.564811394532 -297.41586679219245 291.31112641033724 -299.30419921875 296.13818359375 C-300.2740149483232 298.73320631435536 -300.9278782792082 301.3680774940097 -301.5625 304.0625 C-302.61002926945423 308.4100178488749 -303.7713700740287 312.6997952591004 -305 317 C-305.52960849553216 318.99769422148916 -306.04959885960784 320.99795110416966 -306.5625 323 C-306.68689453125 323.4846875 -306.68689453125 323.4846875 -307.31640625 325.9375 C-308.0617387951071 329.2765898020797 -308.55492572122546 332.6089578760034 -309 336 C-308.71745361328124 336.0428210449219 -308.71745361328124 336.0428210449219 -307.28759765625 336.259521484375 C-304.7328536711184 336.6486981807317 -302.1789325268585 337.0430348467855 -299.625 337.4375 C-298.735546875 337.57220703125 -297.84609375 337.7069140625 -296.9296875 337.845703125 C-296.07890625 337.97783203125 -295.228125 338.1099609375 -294.3515625 338.24609375 C-293.5660400390625 338.3665405273438 -292.780517578125 338.4869873046875 -291.97119140625 338.611083984375 C-290 339 -290 339 -288 340 C-286.12620394994434 340.07033768956666 -284.24998898449087 340.0843021974941 -282.375 340.0625 C-281.37210937500004 340.0534765625 -280.36921875 340.044453125 -279.3359375 340.03515625 C-278.565078125 340.0235546875 -277.79421875 340.011953125 -277 340 C-277 340.66 -277 341.32 -277 342 C-276.2897265625 342.0605859375 -275.579453125 342.121171875 -274.84765625 342.18359375 C-273.92855468749997 342.2673828125 -273.009453125 342.351171875 -272.0625 342.4375 C-271.1459765625 342.5187109375 -270.22945312499996 342.599921875 -269.28515625 342.68359375 C-267 343 -267 343 -266 344 C-264.14712498452036 344.07226501620437 -262.29166122432025 344.0838121979807 -260.4375 344.0625 C-259.93154296875 344.05798828125 -259.93154296875 344.05798828125 -257.37109375 344.03515625 C-256.5886328125 344.0235546875 -255.806171875 344.011953125 -255 344 C-253.25434888528423 340.78360345792527 -252.79556300241956 338.679865956448 -253 335 C-252.34 335 -251.68 335 -251 335 C-250.8040625 334.3077734375 -250.608125 333.615546875 -250.40625 332.90234375 C-244.67371341286622 314.14805379467873 -234.53906971792617 297.9176443362715 -218 287 C-217.3503125 286.559140625 -216.700625 286.11828125 -216.03125 285.6640625 C-207.98579385193165 280.6166772750326 -199.23061213599914 279.5084313460293 -189.9375 279.625 C-189.00873046875 279.6133984375 -188.0799609375 279.601796875 -187.123046875 279.58984375 C-175.98584639338276 279.63673722571207 -165.99492641356102 283.4347798503481 -157.765625 291.07421875 C-153.25841181560583 295.92879234898095 -149.92294553841472 301.0748041992601 -147 307 C-146.83371093749997 307.30099609375 -146.83371093749997 307.30099609375 -145.9921875 308.82421875 C-142.84696595678042 315.72141717351695 -142.6924814968437 322.01300817249313 -142.75 329.5 C-142.74226562499996 330.5067578125 -142.73453125000003 331.513515625 -142.7265625 332.55078125 C-142.74739427916882 340.4981050028872 -144.38908628775312 346.84661588919994 -147.4375 354.1875 C-147.84871093749996 355.1916796875 -148.25992187500003 356.195859375 -148.68359375 357.23046875 C-150 360 -150 360 -151.66015625 362.17578125 C-153 364 -153 364 -153 367 C-153.66 367 -154.32 367 -155 367 C-156.08593750000006 368.44140625000006 -156.08593750000006 368.44140625000006 -157.375 370.5625 C-160.86348445277687 376.02197816859575 -164.91220738444946 380.9612335787683 -169.03662109375 385.945556640625 C-173 390.79142126930344 -173 390.79142126930344 -173 393 C-172.34 393 -171.68 393 -171 393 C-171 393.6600000000001 -171 394.31999999999994 -171 395 C-170.34 395 -169.68 395 -169 395 C-168.8659375 395.37125000000003 -168.8659375 395.37125000000003 -168.1875 397.25 C-167.0472324941045 399.89061948733706 -165.90619694144522 401.8555284408742 -164 404 C-163.34 404 -162.68 404 -162 404 C-162 404.6600000000001 -162 405.31999999999994 -162 406 C-161.34 406 -160.68 406 -160 406 C-159.773125 406.515625 -159.54625 407.03125 -159.3125 407.5625 C-157.51782382069845 410.89547004727433 -155.50034984710183 414.1470367129223 -153 417 C-152.34 417 -151.68 417 -151 417 C-150.67 417.99 -150.34 418.98 -150 420 C-149.34 420 -148.68 420 -148 420 C-147.765390625 420.7154296875 -147.53078125000002 421.43085937499995 -147.2890625 422.16796875 C-145.7762844098021 425.4914963724045 -143.86191332819283 427.6479500055077 -141.375 430.3125 C-140.9663671875 430.75400390625 -140.9663671875 430.75400390625 -138.8984375 432.98828125 C-138.5851953125 433.32021484375 -138.5851953125 433.32021484375 -137 435 C-133.84164892502508 433.6024995243474 -131.67727174706476 431.9480176594328 -129.25 429.5 C-128.63640625 428.89156249999996 -128.0228125 428.2831249999999 -127.390625 427.65625 C-126 426 -126 426 -126 424 C-125.34000000000003 424 -124.68 424 -124 424 C-124 423.3399999999999 -124 422.68000000000006 -124 422 C-123.34000000000003 422 -122.68 422 -122 422 C-122 421.3399999999999 -122 420.68000000000006 -122 420 C-121.34000000000003 420 -120.68 420 -120 420 C-120 419.3399999999999 -120 418.68000000000006 -120 418 C-119.68031250000001 417.8659375 -119.68031250000001 417.8659375 -118.0625 417.1875 C-116 416 -116 416 -115 413 C-114.34000000000003 413 -113.68 413 -113 413 C-113 412.3399999999999 -113 411.68000000000006 -113 411 C-112.34000000000003 411 -111.68 411 -111 411 C-111 410.3399999999999 -111 409.68000000000006 -111 409 C-110.00999999999999 408.6700000000001 -109.01999999999998 408.3399999999999 -108 408 C-105.81249999999989 406.0624999999999 -105.81249999999989 406.0624999999999 -104 404 C-104 403.3399999999999 -104 402.68000000000006 -104 402 C-103.34000000000003 402 -102.68 402 -102 402 C-102 401.3399999999999 -102 400.68000000000006 -102 400 C-101.34000000000003 400 -100.68 400 -100 400 C-97.37499999999989 397.6249999999999 -97.37499999999989 397.6249999999999 -95 395 C-95 394.3399999999999 -95 393.68000000000006 -95 393 C-94.34000000000003 393 -93.68 393 -93 393 C-93 392.3399999999999 -93 391.68000000000006 -93 391 C-92.34000000000003 391 -91.68 391 -91 391 C-89.76562500000006 389.77734375 -89.76562500000006 389.77734375 -88.25 387.9375 C-84.55849003053004 383.59041532136416 -80.7076796492841 379.41369112795303 -76.8125 375.25 C-76.20631835937502 374.6002319335937 -75.60013671875004 373.9504638671875 -74.9755859375 373.281005859375 C-72.5510771550089 370.6894857733964 -70.13538224473535 368.1299320738523 -67.57421875 365.671875 C-66 364 -66 364 -66 362 C-65.34000000000003 362 -64.68 362 -64 362 C-64 361.34 -64 360.68 -64 360 C-63.34000000000003 360 -62.68000000000001 360 -62 360 C-58 355.5294117647059 -58 355.5294117647059 -58 353 C-57.00999999999999 352.67 -56.01999999999998 352.34 -55 352 C-49.87729858387712 347.06377807868245 -47.45337233061889 341.97083615585046 -47.0625 334.875 C-47.65553837609809 322.6435834929768 -54.79412959537501 312.5321717463982 -61.3515625 302.5625 C-64.16830579435657 298.18386587417564 -66.59282561649718 293.61324305901684 -69 289 C-69.30099609374997 288.42443359375 -69.30099609374997 288.42443359375 -70.82421875 285.51171875 C-71.44658925844783 284.3001341661167 -72.06769994288652 283.087901538828 -72.6875 281.875 C-73.24824218750001 280.779296875 -73.80898437500002 279.68359375 -74.38671875 278.5546875 C-77.92500305842435 270.75846783737006 -79.5366276241528 264.15225987245435 -79.4375 255.5625 C-79.42920166015625 254.63526123046876 -79.4209033203125 253.7080224609375 -79.412353515625 252.752685546875 C-79.1247705956323 241.14804949777476 -74.8268968434071 234.16418418634703 -68 225 C-66 222 -66 222 -66 219 C-65.70093750000001 218.88656249999997 -65.70093750000001 218.88656249999997 -64.1875 218.3125 C-61.40651596555483 216.6439095793329 -60.435808401809936 214.87161680361993 -59 212 C-59 211.34000000000003 -59 210.68 -59 210 C-58.34000000000003 210 -57.68000000000001 210 -57 210 C-57 209.01 -57 208.01999999999998 -57 207 C-56.34000000000003 207 -55.68000000000001 207 -55 207 C-53 204 -53 204 -53 201 C-52.339999999999975 201 -51.68000000000001 201 -51 201 C-50.63648437500001 200.3335546875 -50.27296875000002 199.667109375 -49.8984375 198.98046875 C-49.64707031249998 198.51962890624998 -49.64707031249998 198.51962890624998 -48.375 196.1875 C-47.83359374999998 195.1910546875 -47.29218750000001 194.19460937500003 -46.734375 193.16796875 C-45.591265450492756 191.07999162240912 -44.435272951943205 188.99900858824162 -43.265625 186.92578125 C-42.72421874999998 185.9602734375 -42.18281250000001 184.994765625 -41.625 184 C-41.12226562500001 183.11312499999997 -40.61953125000002 182.22625 -40.1015625 181.3125 C-39 179 -39 179 -39 176 C-38.339999999999975 176 -37.68000000000001 176 -37 176 C-37 174.68 -37 173.36 -37 172 C-36.339999999999975 172 -35.68000000000001 172 -35 172 C-34.60812499999997 170.9275 -34.21625 169.85500000000002 -33.8125 168.75 C-32.5585566148028 165.40034567935743 -31.21051164871858 162.1044395917461 -29.8125 158.8125 C-27.39333529675764 153.04032889955852 -25.116987300017456 147.21814407254152 -22.875 141.375 C-22.538312988281234 140.50464111328125 -22.201625976562525 139.6342822265625 -21.854736328125 138.737548828125 C-19.910712027518684 133.64079290527457 -18.239293089944795 128.53256338229403 -16.72314453125 123.293701171875 C-16.000000000000114 121.00000000000034 -16.000000000000114 121.00000000000034 -14.4375 117.40234375 C-12.789179633893013 113.50102027478488 -11.877015794240776 109.69116333644709 -11 105.5625 C-10.056161006135653 101.14325386347417 -9.034601523827746 96.90700906866297 -7.40625 92.68359375 C-6 89.00000000000006 -6 89.00000000000006 -5.5 85.5 C-5 82.00000000000006 -5 82.00000000000006 -3.6015625 78.5234375 C-1.5515773042455976 73.20621186083304 -0.7600793293092352 67.73286263050335 0.125 62.125 C0.45821515161088655 60.064662039657776 0.7940205413660237 58.00474078397963 1.1328125 55.9453125 C1.2760595703124977 55.04312988281251 1.4193066406249955 54.140947265625016 1.56689453125 53.21142578125 C2 51.00000000000006 2 51.00000000000006 3 49 C3.3104552606275774 46.40856094948356 3.509739124529972 43.81628268218964 3.71875 41.21484375 C4 39.00000000000003 4 39.00000000000003 5 38 C5.254313236984046 34.11093085156671 5.185235973664646 30.208889323097594 5.1875 26.3125 C5.1997460937499795 25.222597656250002 5.211992187500016 24.132695312500005 5.224609375 23.009765625 C5.234429069333032 17.631846361947936 5.220443650796142 13.011357014247466 3 8 C2.339999999999975 8 1.6800000000000068 8 1 8 C0.6700000000000159 6.349999999999994 0.339999999999975 4.699999999999989 0 3 C-17.44139092396415 0.715101625681541 -29.22636624871751 10.066277070508221 -42 21 Z " fill="#12167C" transform="translate(405,139)"/>
<path d="M0 0 C0.3299999999999983 0 0.6599999999999966 0 1 0 C0.4164092549604419 8.316168116813799 -1.7379941395949459 16.014593264895666 -4 24 C-4.329999999999998 24 -4.659999999999997 24 -5 24 C-4.416409254960442 15.683831883186201 -2.262005860405054 7.985406735104334 0 0 Z M-6 24 C-4.465549064056859 27.068901871886283 -5.450157109248792 29.70094265549278 -6 33 C-6.659999999999997 33 -7.319999999999993 33 -8 33 C-7.9793750000000045 33.969375000000014 -7.958749999999995 34.93875000000003 -7.9375 35.9375 C-8 39 -8 39 -9 40 C-9.237312272507694 41.5557137864393 -9.414955885422486 43.1207220213912 -9.5625 44.6875 C-9.648867187500002 45.59628906249998 -9.735234375000005 46.50507812500001 -9.82421875 47.44140625 C-10 50 -10 50 -9.875 53.125 C-10.022012639522515 56.50629070901795 -11.000447963625504 58.98842400494755 -12.265625 62.09765625 C-13.139427385166186 64.36117625838261 -13.625936710877326 66.60599494961491 -14 69 C-13.69126953125 69.03029296875002 -13.69126953125 69.03029296875002 -12.12890625 69.18359375 C-9.418855004223701 69.45171145315896 -6.709429505597072 69.7256749599049 -4 70 C-3.142773437499997 70.08378906249999 -2.2855468749999943 70.16757812499998 -1.40234375 70.25390625 C-0.6095703124999972 70.33511718750003 0.18320312500000568 70.416328125 1 70.5 C1.7218749999999972 70.57218749999998 2.4437499999999943 70.64437499999997 3.1875 70.71875 C5 71 5 71 7 72 C8.870567912741421 72.22750150290096 10.746859580902367 72.40962810542226 12.625 72.5625 C13.627890624999992 72.64628906249999 14.630781249999998 72.73007812499998 15.6640625 72.81640625 C16.434921875 72.87699218749998 17.20578125 72.93757812500002 18 73 C18 73.65999999999997 18 74.32 18 75 C18.326132812499992 74.98259765625 18.326132812499992 74.98259765625 19.9765625 74.89453125 C25.436785874004443 74.72540928708838 29.314859907831504 74.83753043778626 34 78 C34.66 78.99000000000001 35.31999999999999 79.98000000000002 36 81 C35.19562500000001 80.85562500000003 34.391250000000014 80.71125 33.5625 80.5625 C30.029846116840332 80.00471254476429 26.51200686401816 79.62019112990652 22.953125 79.28125 C21 79 21 79 19 78 C17.504203962256042 77.7990721740344 16.003032756836603 77.63663934153061 14.5 77.5 C10.222222222222243 77.11111111111114 10.222222222222243 77.11111111111114 8 76 C6.467970727441866 75.73634174500029 4.928568841730197 75.51471828200033 3.38671875 75.31640625 C2.46826171875 75.19330078125 1.5498046875 75.0701953125 0.603515625 74.943359375 C-1.328472372957492 74.69102336722926 -3.2607631148537592 74.44099374324924 -5.193359375 74.193359375 C-6.115683593749992 74.06896484375 -7.038007812499998 73.94457031249999 -7.98828125 73.81640625 C-8.829152832031255 73.70756103515623 -9.670024414062496 73.59871582031252 -10.536376953125 73.486572265625 C-13.199349014741614 72.96062802632247 -15.514535188494762 72.07859793706831 -18 71 C-17.358091650933716 66.07446563835276 -16.466421757789746 61.27075362715385 -15.3125 56.4375 C-15.14387451171875 55.72658203125002 -14.975249023437499 55.01566406249998 -14.801513671875 54.283203125 C-13.244730979158973 47.82727560602535 -11.545924240474505 41.41048765910057 -9.8125 35 C-9.550578613281246 34.02603271484372 -9.288657226562492 33.0520654296875 -9.018798828125 32.048583984375 C-8.771540527343745 31.145676269531236 -8.524282226562505 30.242768554687473 -8.26953125 29.3125 C-8.048859863281251 28.504257812499986 -7.828188476562502 27.696015624999973 -7.600830078125 26.86328125 C-7 25 -7 25 -6 24 Z " fill="#0D1478" transform="translate(110,406)"/>
<path d="M0 0 C0.9113671874999909 -0.007734374999984084 1.8227343750000102 -0.015468750000025011 2.76171875 -0.0234375 C8.064769111100219 -0.008132881353219545 12.483977905461757 0.513684659582907 17.5 2.25 C17.170000000000016 2.910000000000025 16.840000000000003 3.569999999999993 16.5 4.25 C15.9521484375 4.105624999999975 15.404296875 3.961250000000007 14.83984375 3.8125 C5.671616259632572 1.6657930754261656 -5.876180135178686 0.07240606083041712 -14.734375 4.05859375 C-17.75184422538092 6.094717895445058 -20.140060453928186 8.693605186861987 -22.54296875 11.41015625 C-24.733094367741415 13.469136621170037 -26.721633512455867 14.183556297710311 -29.5 15.25 C-30.207106781186553 16.899915822768605 -30.865626564838465 18.570776201042975 -31.5 20.25 C-32.36625000000001 21.178125000000023 -33.232500000000016 22.10624999999999 -34.125 23.0625 C-38.40530981435742 27.814902808588045 -40.83617428617913 33.595224176426825 -43.5703125 39.3125 C-44.838359172309 41.95860355386861 -46.192191388820305 44.51631086951272 -47.6640625 47.0546875 C-50.38027944246511 51.78206081688609 -51.822074801957456 55.77472836672331 -51.5 61.25 C-53.47999999999999 62.24000000000001 -55.46000000000001 63.23000000000002 -57.5 64.25 C-52.82255193336826 42.568652491142245 -41.3689546222806 17.582113726763794 -22.48046875 5.24609375 C-20.5 4.25 -20.5 4.25 -17.5 4.25 C-17.5 3.589999999999975 -17.5 2.930000000000007 -17.5 2.25 C-11.581772348522207 0.2013827360269147 -6.234350763131999 -0.05290821015387337 0 0 Z " fill="#C86B49" transform="translate(214.5,427.75)"/>
<path d="M0 0 C0.6599999999999966 0 1.3199999999999932 0 2 0 C9.650960039182337 12.519752791389294 12.091194808935 25.11869819757544 9.30859375 39.59765625 C5.3730431387504325 53.41325023677149 -2.721910861604357 63.909348688221144 -11.47314453125 75.005859375 C-12.97582487510249 76.96842621999315 -14.379762961827993 78.97737965851059 -15.77734375 81.015625 C-16.510820312499987 82.00046874999998 -17.244296875000003 82.98531249999996 -18 84 C-18.659999999999997 84 -19.319999999999993 84 -20 84 C-20.268124999999998 84.59812499999998 -20.536249999999995 85.19624999999996 -20.8125 85.8125 C-21.984934669811395 87.97224807596831 -23.19369281770065 89.3579025615461 -25 91 C-24.383170985256896 87.84576072006371 -23.337794453186746 85.74896208038331 -21.5 83.125 C-19.494447266760744 80.21889567537903 -17.542426422833614 77.2950366882634 -15.671875 74.30078125 C-15.271621093750014 73.66317871093747 -14.871367187499999 73.02557617187495 -14.458984375 72.36865234375 C-13.658263907189564 71.08963398745345 -12.862609770910836 69.80742874431314 -12.072265625 68.52197265625 C-11.100700801045434 66.98027053377064 -10.056191908283097 65.48500582304604 -9 64 C-8.340000000000003 64 -7.680000000000007 64 -7 64 C-6.729296874999989 63.27296875000002 -6.458593750000006 62.54593749999998 -6.1796875 61.796875 C-5.032044877993428 59.07597394915001 -3.6981200289766605 56.74416957962103 -2.125 54.25 C2.3515645381842774 46.87297188573052 5.22992036841805 40.624891873717786 6 32 C6.329999999999984 31.670000000000016 6.659999999999997 31.339999999999975 7 31 C7.651989425355879 24.45502923008138 6.680189063670156 20.003623502621167 4 14 C3.4713084324295096 10.676096533515079 3.195980265035132 7.358696266291986 3 4 C2.009999999999991 3.670000000000016 1.0200000000000102 3.339999999999975 0 3 C0 2.009999999999991 0 1.0199999999999818 0 0 Z " fill="#C46B4E" transform="translate(243,441)"/>
<path d="M0 0 C7.49721988709328 -0.1257155773750469 14.410807412948174 0.42358402985558996 21.5 3.08203125 C21.5 3.742031250000025 21.5 4.402031249999993 21.5 5.08203125 C21.829999999999984 5.2470312500000205 21.829999999999984 5.2470312500000205 23.5 6.08203125 C22.931523437500005 5.9492578124999795 22.36304687500001 5.816484375000016 21.77734375 5.6796875 C7.185632157242367 2.3423511256964957 -4.178141556780133 2.48648646602868 -18.5 7.08203125 C-19.829702134652337 7.429567035193202 -21.161438222977495 7.770356326428612 -22.5 8.08203125 C-22.5 8.742031250000025 -22.5 9.402031249999993 -22.5 10.08203125 C-23.551874999999995 10.638906249999991 -24.60374999999999 11.195781249999982 -25.6875 11.76953125 C-29.183057390318993 13.74374281254859 -31.700176001168415 16.20221227977322 -34.5 19.08203125 C-35.16 19.08203125 -35.81999999999999 19.08203125 -36.5 19.08203125 C-36.76296875 19.650507812499995 -37.0259375 20.21898437499999 -37.296875 20.8046875 C-38.585776794595176 23.24439446834083 -40.09675517809231 25.311481296416105 -41.75 27.51953125 C-48.72229831926438 37.39936476049286 -52.64939119113865 48.71762383623661 -56.5 60.08203125 C-57.16 60.08203125 -57.81999999999999 60.08203125 -58.5 60.08203125 C-58.57218750000001 60.64921874999999 -58.57218750000001 60.64921874999999 -58.9375 63.51953125 C-59.5 67.08203125 -59.5 67.08203125 -60.5 68.08203125 C-62.4995836369269 68.12283907932505 -64.50045253988588 68.12457481298117 -66.5 68.08203125 C-66.83000000000001 67.42203125000003 -67.16 66.76203125 -67.5 66.08203125 C-65.52000000000001 66.08203125 -63.53999999999999 66.08203125 -61.5 66.08203125 C-61.355625 65.31890625 -61.21125000000001 64.55578125 -61.0625 63.76953125 C-60.5 61.08203125 -60.5 61.08203125 -59.5 58.08203125 C-58.84 58.08203125 -58.18000000000001 58.08203125 -57.5 58.08203125 C-57.45875000000001 57.00953125000001 -57.41749999999999 55.93703125000002 -57.375 54.83203125 C-56.59942151959268 48.627403406741394 -53.38762460384402 43.52974896327055 -50.5 38.08203125 C-48.95746635214101 34.85235142479519 -47.41912551667602 31.621000322609405 -45.89453125 28.3828125 C-44.5 26.08203125 -44.5 26.08203125 -41.5 25.08203125 C-40.809792676656116 23.42497480164809 -40.146020447859144 21.75680878841223 -39.5 20.08203125 C-31.849494870233002 10.560179541728814 -19.24468874284645 1.8323488681392064 -6.9375 0.26953125 C-4.624888465558826 0.12499302909742482 -2.315826216778305 0.07598804773806478 0 0 Z " fill="#181864" transform="translate(212.5,418.91796875)"/>
<path d="M0 0 C1.6500000000000057 0.3299999999999841 3.3000000000000114 0.660000000000025 5 1 C5.3300000000000125 1.990000000000009 5.659999999999997 2.980000000000018 6 4 C6.7734375 4.309374999999989 7.546875 4.618749999999977 8.34375 4.9375 C14.977465736569656 7.5909862946278395 19.095610444836097 16.13587138022467 22 22.35546875 C26.28229001201629 33.68011850833989 27.246897419812626 50.99059094322257 23.1328125 62.40625 C22.800234375000002 63.09718750000002 22.467656250000005 63.78812499999998 22.125 64.5 C21.948398437499975 64.87576171875003 21.948398437499975 64.87576171875003 21.0546875 66.77734375 C20.706640624999977 67.51082031250002 20.35859375000001 68.24429687500003 20 69 C19.409917495536746 70.3512393484558 18.82585182866569 71.70513497528805 18.25 73.0625 C17.837500000000006 74.03187500000001 17.42500000000001 75.00125000000003 17 76 C16.340000000000003 76 15.680000000000007 76 15 76 C14.731875000000002 76.90750000000003 14.463750000000005 77.815 14.1875 78.75 C13.098683682675954 81.72991834215003 12.136088989996296 83.68590359417067 10 86 C9.340000000000003 86 8.680000000000007 86 8 86 C7.904609375000007 86.5787890625 7.809218750000014 87.15757812499999 7.7109375 87.75390625 C6.846112375413583 90.48618342932525 5.579442433024951 91.85523538253665 3.625 93.9375 C0.9989988940137948 96.8158979403039 -1.0512586225644327 99.61534392340138 -3 103 C-3.3300000000000125 103.16499999999996 -3.3300000000000125 103.16499999999996 -5 104 C-5.625 106.0625 -5.625 106.0625 -6 108 C-6.659999999999997 108 -7.319999999999993 108 -8 108 C-7.125 103.25 -7.125 103.25 -6 101 C-5.340000000000003 101 -4.680000000000007 101 -4 101 C-3.7937499999999886 100.31937500000004 -3.5875000000000057 99.63874999999996 -3.375 98.9375 C-1.806370426307808 95.5863368198394 0.19098761660083596 93.27350754257463 2.66015625 90.55078125 C4 89 4 89 5 87 C5.659999999999997 87 6.319999999999993 87 7 87 C7.206250000000011 86.34000000000003 7.412499999999994 85.68 7.625 85 C8.847927171090078 82.33179526307617 9.99146659490657 80.67985218776289 11.8125 78.4375 C15.683828539559784 73.44926004804887 17.83306092935544 67.88842138762107 20 62 C20.36738281250001 61.137617187499984 20.734765625000023 60.27523437499997 21.11328125 59.38671875 C24.176946532498505 47.685406856052 23.91429686484304 31.756571159113037 18.69140625 20.73046875 C14.19705282800129 13.47514994635776 8.428755963303558 4.809585321101167 0 2 C0 1.339999999999975 0 0.6800000000000068 0 0 Z " fill="#171766" transform="translate(236,425)"/>
<path d="M0 0 C15.509999999999991 0 31.02000000000001 0 47 0 C47 0.3299999999999841 47 0.660000000000025 47 1 C45.349999999999994 1.329999999999984 43.69999999999999 1.660000000000025 42 2 C44.31 2.329999999999984 46.620000000000005 2.660000000000025 49 3 C49 3.329999999999984 49 3.660000000000025 49 4 C32.170000000000016 4 15.340000000000003 4 -2 4 C-2 3.670000000000016 -2 3.339999999999975 -2 3 C6.909999999999997 2.670000000000016 15.819999999999993 2.339999999999975 25 2 C16.75 1.670000000000016 8.5 1.339999999999975 0 1 C0 0.6700000000000159 0 0.339999999999975 0 0 Z M-8 1 C-5.360000000000014 1 -2.719999999999999 1 0 1 C0 1.329999999999984 0 1.660000000000025 0 2 C-2.6399999999999864 2 -5.280000000000001 2 -8 2 C-8 1.670000000000016 -8 1.339999999999975 -8 1 Z " fill="#0D1175" transform="translate(151,340)"/>
<path d="M0 0 C7.49721988709328 -0.1257155773750469 14.410807412948174 0.42358402985558996 21.5 3.08203125 C21.5 3.742031250000025 21.5 4.402031249999993 21.5 5.08203125 C22.159999999999997 5.412031249999984 22.819999999999993 5.742031250000025 23.5 6.08203125 C22.931523437500005 5.9492578124999795 22.36304687500001 5.816484375000016 21.77734375 5.6796875 C8.530481547579399 2.649937714137536 -2.422190498821749 1.9411422614302296 -15.46875 6.3046875 C-18.40801010276715 7.0584410572818115 -19.724505656319877 7.163657722169432 -22.5 6.08203125 C-14.757811718763776 2.1602872795046437 -8.59755264632986 0.28210719620767577 0 0 Z " fill="#09115E" transform="translate(212.5,418.91796875)"/>
<path d="M0 0 C0.9113671874999909 -0.007734374999984084 1.8227343750000102 -0.015468750000025011 2.76171875 -0.0234375 C8.064769111100219 -0.008132881353219545 12.483977905461728 0.513684659582907 17.5 2.25 C17.170000000000016 2.910000000000025 16.840000000000003 3.569999999999993 16.5 4.25 C15.9521484375 4.105624999999975 15.404296875 3.961250000000007 14.83984375 3.8125 C4.418687998678706 1.372424507007679 -6.709191074352304 0.44047982599761326 -16.5 5.25 C-17.150976562500006 5.5284374999999955 -17.80195312500001 5.806874999999991 -18.47265625 6.09375 C-23.980546948441543 8.555851429746497 -28.142016870223102 12.123824483509111 -32.5 16.25 C-32.5 15.259999999999991 -32.5 14.269999999999982 -32.5 13.25 C-30.48828125 11.2421875 -30.48828125 11.2421875 -27.8125 9.125 C-26.9423828125 8.421171875000027 -26.072265625 7.717343749999998 -25.17578125 6.9921875 C-22.499670047598272 5.249785169677125 -20.639884818498018 4.623391708145732 -17.5 4.25 C-17.5 3.589999999999975 -17.5 2.930000000000007 -17.5 2.25 C-11.581772348522207 0.2013827360269147 -6.234350763131999 -0.05290821015387337 0 0 Z " fill="#B8644C" transform="translate(214.5,427.75)"/>
<path d="M0 0 C0.3299999999999841 0.9900000000000091 0.660000000000025 1.9800000000000182 1 3 C-4.142857142857167 8.571428571428555 -4.142857142857167 8.571428571428555 -8 9 C-8.660000000000025 8.009999999999991 -9.319999999999993 7.019999999999982 -10 6 C-9.670000000000016 5.340000000000032 -9.339999999999975 4.67999999999995 -9 4 C-6.669890908518539 3.3221500824781742 -4.336401759366254 2.6558320728045146 -2 2 C-1.339999999999975 1.3400000000000318 -0.6800000000000068 0.67999999999995 0 0 Z " fill="#151B81" transform="translate(275,570)"/>
<path d="M0 0 C0.6599999999999966 0 1.3199999999999932 0 2 0 C2 1.3199999999999932 2 2.6399999999999864 2 4 C1.3400000000000034 4 0.6800000000000068 4 0 4 C0.020624999999995453 5.0518749999999955 0.041249999999990905 6.103749999999991 0.0625 7.1875 C0.011031982995234557 10.327049037290749 -0.2651718688695155 12.968833959086737 -1 16 C-1.6599999999999966 16 -2.319999999999993 16 -3 16 C-3.3300000000000125 16.99000000000001 -3.6599999999999966 17.980000000000018 -4 19 C-4.6875 17.375 -4.6875 17.375 -5 15 C-4 13 -3 11 -2 9 C-1.5115481352819984 6.33793733728686 -1.2741909887950555 3.6962113898180746 -1 1 C-0.6699999999999875 0.6700000000000159 -0.3400000000000034 0.339999999999975 0 0 Z " fill="#CF724E" transform="translate(250,472)"/>
<path d="M0 0 C0 0.9900000000000091 0 1.9800000000000182 0 3 C-1.03125 3.1031249999999773 -2.0625 3.2062500000000114 -3.125 3.3125 C-6.955073005610615 3.992029081640567 -9.57164565992079 5.24595824461062 -13 7 C-13.659999999999997 6.670000000000016 -14.319999999999993 6.339999999999975 -15 6 C-13.206443184779857 2.834899737846797 -12.107377205601836 2.0397693354080957 -8.625 0.75 C-5.589985727975574 0.12206601268462691 -3.0741049081651113 -0.1863093883736724 0 0 Z " fill="#CD6E47" transform="translate(211,429)"/>
<path d="M0 0 C0 4.265001595989986 -2.444734136231574 6.500323794245617 -5 9.6875 C-5.238476562500011 9.990751953125027 -5.238476562500011 9.990751953125027 -6.4453125 11.525390625 C-7.623763944071726 13.02202395897109 -8.811051880180827 14.511691728583514 -10 16 C-10 11.381725559033384 -7.455865834525781 7.630569734668882 -4.4375 4.25 C-3.963124999999991 3.8374999999999773 -3.4887500000000102 3.4250000000000114 -3 3 C-2.7215625000000045 2.7215625000000045 -2.7215625000000045 2.7215625000000045 -1.3125 1.3125 C-0.8793750000000102 0.8793749999999818 -0.44624999999999204 0.44625000000002046 0 0 Z " fill="#B4644D" transform="translate(240,502)"/>
<path d="M0 0 C0.6599999999999966 0 1.3199999999999932 0 2 0 C2.8384880434428794 1.4553756754044116 3.6706393433513256 2.914403732457572 4.5 4.375 C4.732031250000006 4.781054687499989 4.732031250000006 4.781054687499989 5.90625 6.8359375 C7 9 7 9 7 11 C6.340000000000003 11 5.680000000000007 11 5 11 C3 8 3 8 3 4 C2.009999999999991 3.670000000000016 1.0200000000000102 3.339999999999975 0 3 C0 2.009999999999991 0 1.0199999999999818 0 0 Z " fill="#C16B59" transform="translate(243,441)"/>
<path d="M0 0 C0 1.6499999999999773 0 3.3000000000000114 0 5 C-1.9799999999999898 5.990000000000009 -3.960000000000008 6.980000000000018 -6 8 C-5.5700426468946205 4.990298528262315 -3.6600891682750216 0 0 0 Z " fill="#CB6C4A" transform="translate(163,484)"/>
</svg>
