<?xml version="1.0" encoding="UTF-8"?>
<!-- Generator: visioncortex VTracer 0.6.12 -->
<svg version="1.1" xmlns="http://www.w3.org/2000/svg" width="1200" height="1200">
<path d="M0 0 C0.8164448547363463 -0.005700073242195458 1.6328897094726358 -0.011400146484362494 2.4740753173828125 -0.01727294921875 C4.2013723915566175 -0.026706834798119417 5.928687333477228 -0.033250523224751305 7.656005859375 -0.037109375 C10.27425362519375 -0.04677704883297906 12.89170317405734 -0.07779938577965595 15.509765625 -0.109375 C17.19400579273622 -0.11590970552151703 18.87825153655149 -0.12115833842207735 20.5625 -0.125 C21.334703826904274 -0.13734680175781477 22.106907653808605 -0.14969360351562955 22.902511596679688 -0.16241455078125 C34.64597097660953 -0.11524729586048466 42.46857300648952 5.034129372127808 50.58984375 13.1875 C58.18481232205784 21.552002832662822 62.8701224422673 30.542672308565074 66.90396118164063 41.034454345703125 C68.39520615239564 44.91068761527282 69.92395432179217 48.77222961910087 71.4453125 52.63671875 C71.60938346862793 53.05499687194825 71.60938346862793 53.05499687194825 72.43968200683594 55.17173767089844 C76.24859588305412 64.86471352644617 80.19691336597919 74.50030512992163 84.14447021484375 84.137451171875 C86.2996505528173 89.39907660329595 88.45069877327535 94.66239007271076 90.6015625 99.92578125 C91.02618774414054 100.96473541259763 91.45081298828131 102.00368957519532 91.8883056640625 103.07412719726563 C95.98688382702642 113.10760958539771 100.0530523927041 123.15407662151597 104.11328125 133.203125 C111.39894482598879 151.23098935492624 118.7398019828554 169.23601100301119 126.09292602539063 187.2364501953125 C126.5160104370118 188.27217163085936 126.93909484863275 189.30789306640622 127.375 190.375 C127.80138763427726 191.41877807617186 128.22777526855475 192.46255615234372 128.66708374023438 193.5379638671875 C133.1933963594388 204.6200680734725 137.70924118981338 215.70643120150334 142.22445678710938 226.79306030273438 C169.92787818470356 294.81494631184376 169.92787818470356 294.81494631184376 183.57391357421875 328.0422058105469 C189.27348911391312 341.9211221306097 194.94636691346204 355.81084428161853 200.61328125 369.703125 C214.74979064017543 404.35397658724037 228.97093967376895 438.96911209529753 243.27587890625 473.55078125 C244.79765392155298 477.2299466407578 246.31820426367813 480.90961355813374 247.83740234375 484.58984375 C255.37381529320805 502.84640341585714 262.94356194374075 521.0888682513212 270.63543701171875 539.2805786132813 C271.35637084351026 540.9867767121744 272.0758735297941 542.6935804189679 272.79376220703125 544.4010620117188 C276.629324151083 553.5171159635324 280.65884572295477 562.4417568840374 285.14453125 571.256103515625 C292.1488327261725 585.3101133425662 294.6822328238205 601.747508878622 289.86328125 616.953125 C289.14974938644673 618.7183083558285 288.40299103355073 620.4706820838368 287.61328125 622.203125 C287.31292968749995 622.958515625 287.012578125 623.71390625 286.703125 624.4921875 C283.03375397250943 632.9746296154976 276.4498477587051 636.597825499728 268.26171875 640.22265625 C263.7382898404752 641.897258987892 259.4220183979937 642.4218410426902 254.61328125 642.578125 C253.60265625 642.627109375 252.59203125 642.67609375 251.55078125 642.7265625 C240.7563201950651 641.2915845423004 230.80657913476693 635.4840333936834 221.30078125 630.453125 C220.1003237855823 629.8231290513774 218.8997196191923 629.193412570377 217.698974609375 628.56396484375 C209.74155213387098 624.3807058862377 201.85082342621945 620.0978757686854 194.0615234375 615.60986328125 C190.88865841191387 613.7867631339197 187.7077946252964 611.9777863780347 184.52734375 610.16796875 C181.95156042777148 608.7009812736153 179.37612406979315 607.2333856275008 176.80078125 605.765625 C176.16979522705083 605.4061578369141 175.53880920410154 605.0466906738282 174.88870239257813 604.6763305664063 C173.0813692548528 603.6460872937377 171.27492981701585 602.6142948410544 169.46875 601.58203125 C168.41324951171873 600.9794750976563 167.35774902343746 600.3769189453125 166.270263671875 599.756103515625 C164.34782580800584 598.6324586335087 162.46603608981377 597.4382948932092 160.61328125 596.203125 C157.25440873636217 596.5164879990043 155.6993823883828 597.783570014096 153.4765625 600.23046875 C152.9040576171875 600.8526025390624 152.331552734375 601.474736328125 151.74169921875 602.11572265625 C151.44207275390625 602.4498315429687 151.44207275390625 602.4498315429687 149.92578125 604.140625 C149.30074707031258 604.8243115234375 148.67571289062494 605.507998046875 148.03173828125 606.21240234375 C146.21685245500498 608.2016071804167 144.41331189673815 610.2004799375571 142.61328125 612.203125 C141.78957031250002 613.1144921875 140.96585937500004 614.025859375 140.1171875 614.96484375 C138.71262060329605 616.5240418646897 137.31022688058908 618.0852007432896 135.91015625 619.6484375 C133.03433551085038 622.8470544445644 130.14262129849158 626.030397092242 127.23828125 629.203125 C126.72571777343751 629.7678955078125 126.21315429687502 630.332666015625 125.68505859375 630.91455078125 C123.43204758568788 633.3680954824907 121.39967072365448 635.3455320175636 118.61328125 637.203125 C120.0159842851748 629.5069219693387 121.89918151261043 621.9647374958205 123.88414192199707 614.4001541137695 C124.64117317436978 611.5140430992278 125.39120259740821 608.6261240660751 126.14186000823975 605.7383499145508 C126.74220888771879 603.4293426699804 127.3435099209861 601.1205846075459 127.94482421875 598.8118286132813 C139.3155366773376 555.1173269521544 139.3155366773376 555.1173269521544 144.11328125 533.828125 C144.2882815551758 533.062885131836 144.46328186035157 532.2976452636718 144.64358520507813 531.5092163085938 C151.64589498338955 500.7344546696013 151.64589498338955 500.7344546696013 146.61328125 492.203125 C142.72435832202382 486.6816029118029 138.1542267801109 483.2412495327487 132.36328125 479.890625 C131.5789672851563 479.42333984375 130.79465332031248 478.9560546875 129.986572265625 478.474609375 C124.56963926844867 475.2714593692881 119.06942512109185 472.2264030625387 113.55078125 469.203125 C94.34875718229227 458.67609509330146 75.7107773328953 448.1871641490703 68.61328125 426.203125 C65.76422822921768 414.6129238323871 67.82282759946622 401.50487245895204 69.11328125 389.828125 C73.66889186910441 345.53757487188454 67.1898353094017 302.1793742434641 56.61328125 259.203125 C56.315830078124975 257.9847998046875 56.01837890625001 256.766474609375 55.7119140625 255.51123046875 C37.59278608413166 182.18262983413166 37.59278608413166 182.18262983413166 18.11328125 162.703125 C14.778638942978546 160.70233961578714 12.510418259661037 160.203125 8.61328125 160.203125 C-3.9245295013701025 165.35258298716985 -9.18950684706357 178.3859604826182 -14.19482421875 190.09326171875 C-16.104467140607483 194.736290735654 -17.771756613166474 199.45195966646895 -19.38671875 204.203125 C-19.680141601562468 205.06421875 -19.973564453124993 205.92531250000002 -20.27587890625 206.8125 C-32.8175739100584 244.0154150604942 -42.27279164765514 282.2586032206046 -47.38671875 321.203125 C-47.50386230468746 322.0450439453125 -47.62100585937503 322.886962890625 -47.74169921875 323.75439453125 C-51.28198471867654 349.84098560723146 -50.1877519226432 376.7135562510256 -47.04296875 402.76953125 C-45.49027641839109 416.471269871648 -45.99422501147774 429.5097838746012 -54.55859375 440.984375 C-55.16187500000001 441.7165625 -55.76515625000002 442.44875 -56.38671875 443.203125 C-56.708984375 443.61046875 -56.708984375 443.61046875 -58.33984375 445.671875 C-70.67504241625977 459.5591847567164 -89.50291837027999 467.9511842962453 -105.753662109375 476.439453125 C-114.20427465797263 480.9347513993107 -123.79104694281625 486.7986896375952 -127.527099609375 496.016845703125 C-130.22797235896945 506.027947735206 -126.5238193262262 517.5987840816239 -124.32421875 527.515625 C-124.16109191894532 528.2633718872071 -123.99796508789063 529.0111187744141 -123.82989501953125 529.7815246582031 C-119.99253917389694 547.3173064736693 -115.61603738301744 564.7277043793629 -111.26171875 582.140625 C-111.08938091278077 582.8303653335571 -110.91704307556154 583.5201056671143 -110.73948287963867 584.2307472229004 C-103.22439061318312 614.2957177616166 -103.22439061318312 614.2957177616166 -99.03121948242188 628.7870941162109 C-98.79807037353515 629.6121797180176 -98.56492126464843 630.4372653198242 -98.32470703125 631.287353515625 C-98.11822540283202 632.0008546447754 -97.91174377441405 632.7143557739258 -97.69900512695313 633.4494781494141 C-97.38671875 635.203125 -97.38671875 635.203125 -98.38671875 637.203125 C-103.53514701797496 632.147927827421 -108.58658073362642 627.0813815858082 -113.27734375 621.59765625 C-116.24216722860308 618.2320325604006 -119.31729415695781 614.9732335140773 -122.38671875 611.703125 C-127.15397021459296 606.6209011433004 -131.87313142413825 601.51422587592 -136.38671875 596.203125 C-140.20859023178116 596.7824536588153 -142.91157885667212 597.8756693413187 -146.2109375 599.87109375 C-147.14397705078125 600.427646484375 -148.0770166015625 600.98419921875 -149.038330078125 601.5576171875 C-150.04017333984376 602.162509765625 -151.04201660156252 602.76740234375 -152.07421875 603.390625 C-164.00074673782058 610.4710585950987 -176.12721063118352 617.1091590002555 -188.37890625 623.607421875 C-191.18675040719995 625.0970378986574 -193.99030868328197 626.5944102768078 -196.79296875 628.09375 C-228.94494820903736 645.2354215172928 -228.94494820903736 645.2354215172928 -244.44921875 641.078125 C-253.56010588470008 637.987967420874 -261.3358767945011 633.2780471394584 -265.72265625 624.54296875 C-273.45999621325353 607.2122217224812 -271.8371767922165 591.7029767585035 -265.38671875 574.203125 C-262.6203492931334 567.2461302044896 -259.5955865496828 560.3977250182688 -256.5799255371094 553.5460815429688 C-254.09227081527283 547.8915604571575 -251.6334543559604 542.2245029844274 -249.171875 536.55859375 C-248.6769404602051 535.4209759521484 -248.18200592041015 534.2833581542968 -247.6720733642578 533.1112670898438 C-243.19822148045168 522.8109894702916 -238.85460241299867 512.4600722708465 -234.57421875 502.078125 C-234.40354888916016 501.6644769287109 -234.40354888916016 501.6644769287109 -233.53985595703125 499.5711669921875 C-231.83181423654594 495.43002574180036 -230.12638423415345 491.28781665056215 -228.42236328125 487.14501953125 C-225.32157663931946 479.61086291687116 -222.19363134432743 472.0879666663077 -219.0693359375 464.56353759765625 C-215.83778883920783 456.77839599919093 -212.61257617892318 448.99062543530385 -209.38671875 441.203125 C-209.0139581298828 440.30333923339845 -208.64119750976562 439.4035534667969 -208.25714111328125 438.47650146484375 C-198.4823426277424 414.8793353989961 -188.76250314970235 391.26072642017675 -179.12527465820313 367.6070251464844 C-173.1294403673789 352.89232402211474 -167.08999480058208 338.1964510753083 -161.01171875 323.515625 C-153.0628242999731 304.31491077811336 -145.20808429436556 285.076690706425 -137.37646484375 265.827880859375 C-131.9821698097361 252.5701287077934 -126.57481209900811 239.31797412640503 -121.13671875 226.078125 C-120.49552249325217 224.51684635828815 -119.85432782825387 222.955567062865 -119.213134765625 221.394287109375 C-118.89635269165035 220.6229393005371 -118.57957061767581 219.8515914916992 -118.25318908691406 219.05686950683594 C-118.09475273132324 218.67107978820798 -118.09475273132324 218.67107978820798 -117.29296875 216.71875 C-116.97645858764645 215.94809707641605 -116.65994842529301 215.17744415283204 -116.33384704589844 214.38343811035156 C-101.76829187538033 178.9114105612568 -87.29681215228038 143.40067037702016 -72.8134765625 107.89501953125 C-72.38832763671871 106.85282760620117 -71.96317871093754 105.81063568115235 -71.525146484375 104.73686218261719 C-70.66840393638194 102.6365040258359 -69.8117954929022 100.53609116233554 -68.955322265625 98.43562316894531 C-66.8502295031941 93.27385994498815 -64.74227223801711 88.11330417913743 -62.6279296875 82.955322265625 C-59.04606552370194 74.21182922219782 -55.47524808098012 65.46618079909237 -52.013671875 56.674224853515625 C-50.6048130908174 53.09971204114484 -49.18131294448938 49.5311178549492 -47.7564697265625 45.96295166015625 C-47.10784103382548 44.32641585981017 -46.46644620201022 42.6869888325827 -45.8333740234375 41.04437255859375 C-39.652248682680465 25.012735981651304 -30.42836531834223 9.476263752076136 -14.2109375 1.89453125 C-9.509798971619944 0.11272928099941737 -4.983110880722904 0.027070096761377727 0 0 Z " fill="#031B89" transform="translate(449.38671875,166.796875)"/>
<path d="M0 0 C0.8121496582031114 0.0006042480468977374 1.6242993164062227 0.0012084960937386313 2.4610595703125 0.0018310546875 C53.59634704371615 0.10480992331611105 53.59634704371615 0.10480992331611105 69.125 11.1875 C72.99094860758942 15.67698870558769 73.25108296247254 19.317175383845893 73.25922107696533 25.127620697021484 C73.26157330721617 25.841478749513612 73.263925537467 26.55533680200574 73.26634904742241 27.29082691669464 C73.27304656837214 29.70120357764455 73.27258059924884 32.111526425045156 73.27217102050781 34.52191162109375 C73.27546917008294 36.2601785301747 73.27919463334217 37.99844467265473 73.28331249952316 39.73670983314514 C73.29334605453482 44.527882791764 73.29705146474873 49.319043222077596 73.29970180988312 54.110225200653076 C73.30360080363766 59.271914195219495 73.31317936320863 64.43359323037055 73.32191467285156 69.59527587890625 C73.34168971406223 82.06728336857282 73.35174624564775 94.53929168418898 73.36064246296883 107.01131093502045 C73.36502333472129 112.88099748353733 73.37039063298357 118.7506831258678 73.37563133239746 124.62036895751953 C73.39264403718198 144.12594795523682 73.40713925582077 163.63152638484115 73.41438007354736 183.13711166381836 C73.41629004248057 188.20045726238936 73.41821036497254 193.26380285634514 73.420166015625 198.3271484375 C73.42064975582059 199.58565519362685 73.4211334960163 200.8441619497537 73.4216318950057 202.14080527424812 C73.42993609930409 222.53780461398821 73.4552794290513 242.93474538047212 73.48774669319391 263.33171913027763 C73.52079008882254 284.2608087626978 73.53882633942453 305.18986859844335 73.54202431440353 326.1189844608307 C73.54419184552546 337.8748285595234 73.55297610633033 349.63058722469873 73.5784854888916 361.3864059448242 C73.60015527444455 371.39602637332473 73.6082612375983 381.40554062110357 73.59851870685816 391.41518184542656 C73.59396331493451 396.5238751200967 73.59593212863842 401.63234914257066 73.61528015136719 406.7410125732422 C73.63283608016332 411.41678663923744 73.63197589229367 416.0921802740861 73.61638285964727 420.76795795559883 C73.6139952510182 422.46044921227985 73.61838975365981 424.1529662927036 73.6302115097642 425.8454179465771 C73.64528322465458 428.14541350804393 73.63569213683081 430.44405282172147 73.61998462677002 432.74401473999023 C73.62096143543727 434.0216663146018 73.6219382441044 435.2993178892136 73.62294465303421 436.6156861782074 C72.95508364500688 441.40632940526586 71.1970512240805 445.36095247545506 67.4765625 448.640625 C48.66615916822332 457.3223496146661 25.26599291111222 456.5414616895981 5.048583984375 456.503173828125 C1.5913090233943876 456.5000262285387 -1.8650962942256228 456.52352876861846 -5.322265625 456.548828125 C-16.94846188779161 456.5825691161509 -28.4058151596372 456.1540318983167 -39.96484375 454.85546875 C-40.4899579620361 454.7972318267822 -40.4899579620361 454.7972318267822 -43.14735412597656 454.5025177001953 C-52.812480493869316 453.29992282779415 -62.84980092711805 451.7325472528353 -69.6875 444.1875 C-72.1653885769357 440.0142139756872 -72.00097249356872 435.9643808709452 -72.00363445281982 431.1840076446533 C-72.00538749009365 430.4754496461153 -72.0071405273676 429.76689164757727 -72.00894668698311 429.0368621945381 C-72.01361736315232 426.65054217778106 -72.01113844314784 424.26428280535265 -72.00871276855469 421.8779602050781 C-72.01058020212702 420.1546170800917 -72.01288063336813 418.4312743786976 -72.01557809114456 416.7079323530197 C-72.02171083811811 411.96269075982013 -72.02156076727601 407.2174667448015 -72.02038371562958 402.47222208976746 C-72.02018008171274 397.35828932109814 -72.02569488218023 392.24436225640557 -72.03044128417969 387.13043212890625 C-72.0387563879101 377.10786852457545 -72.04149650978843 367.08531080061346 -72.0420536622405 357.0627440363169 C-72.04252839947492 348.9183429390582 -72.04458102484443 340.773943786666 -72.04775428771973 332.62954330444336 C-72.05656307127367 309.552482019918 -72.06117329303254 286.4754253909184 -72.06042381376028 263.39836241304874 C-72.06038385756312 262.1536362151801 -72.06034390136597 260.90891001731165 -72.060302734375 259.62646484375 C-72.06026185370979 258.3802237378061 -72.06022097304458 257.1339826318622 -72.06017885357141 255.84997664391994 C-72.05977227972892 235.6463811559529 -72.06934408579298 215.44280429542994 -72.08344110101461 195.23921419680119 C-72.09779255363333 174.50784976184343 -72.10471196992239 153.7764944193512 -72.10384732484818 133.0451248884201 C-72.10351493680014 121.40058027592033 -72.10628028910139 109.75605519231232 -72.11702537536621 98.11151504516602 C-72.12611418125402 88.19816226913792 -72.12831898123079 78.28483787513039 -72.12151595205069 68.37148274481297 C-72.11824258789966 63.31157597002766 -72.1182234106576 58.25172370011802 -72.12686920166016 53.19182205200195 C-72.13469912669689 48.56187607783875 -72.13333886006535 43.93202814929765 -72.12458506971598 39.30208466947079 C-72.12304231807718 37.625122948633475 -72.12489522300768 35.9481540376965 -72.13044514507055 34.27120079100132 C-72.13748098975839 31.99490601792911 -72.13223079836598 29.7189574914442 -72.12388896942139 27.44267463684082 C-72.12410633742809 26.177336465120334 -72.12432370543479 24.91199829339979 -72.1245476603508 23.60831654071808 C-71.76408365851819 18.667051140477668 -70.82809791702016 14.395421072032434 -67 11.0625 C-50.27318657330841 -1.9850958094152134 -20.14996755907009 -0.027733553759219376 0 0 Z " fill="#031B88" transform="translate(923.875,336.8125)"/>
<path d="M0 0 C14.12842086764897 11.40999433944944 21.811372069542813 27.082735077086 24 45 C24.77659934894018 57.87919135916809 23.441475628339276 70.26175773339901 21.3125 82.9375 C20.998782072633446 84.86843937165361 20.685914419055905 86.79951702783569 20.373779296875 88.730712890625 C19.472921586792495 94.26511514318645 18.547763113534018 99.7952328178244 17.6171875 105.32470703125 C16.97863893100208 109.12720313793307 16.346194212971398 112.93067748768192 15.71484375 116.734375 C8.981182691758477 157.2554075919918 1.7810634008238253 197.69331351095298 -5.540378570556641 238.11183547973633 C-6.17487836520354 241.61775925324696 -6.807567178076397 245.12400534400933 -7.439788818359375 248.63034057617188 C-11.877488000829999 273.22231639984784 -16.464956938008186 297.77718644287665 -21.42578125 322.26953125 C-21.53073252677916 322.79163271903985 -21.53073252677916 322.79163271903985 -22.06184959411621 325.43378257751465 C-22.65630737766662 328.382746405317 -23.258898267158315 331.3299186533684 -23.864501953125 334.276611328125 C-24.0365773200989 335.13254442214964 -24.208652687072743 335.98847751617427 -24.385942459106445 336.87034797668457 C-25.53721482309811 342.4009662432409 -27.099787734504048 347.6806310870236 -29 353 C-29.99000000000001 353 -30.980000000000018 353 -32 353 C-36.70663735094627 342.29158853739864 -38.5162089233595 330.78512720096364 -40.75 319.375 C-40.86499343872072 318.79388458251947 -40.86499343872072 318.79388458251947 -41.446929931640625 315.85308837890625 C-52.243331876909394 261.21458680615797 -61.628710374866614 206.28825055315747 -71.11099624633789 151.40995025634766 C-71.61437617793041 148.49893687163603 -72.1190912964787 145.5881578114247 -72.62411499023438 142.67742919921875 C-75.91157428694834 123.71295971306097 -79.11923927811324 104.7378317408527 -82.0234489440918 85.71039009094238 C-82.28410522994142 84.00365605537081 -82.54668513735174 82.29721441108006 -82.81142044067383 80.59110832214355 C-86.58983513779663 56.146877874778625 -87.68373341104763 33.33176825051612 -72.96484375 12.05859375 C-64.37441934612826 0.9228584116477805 -52.290444439201735 -7.1345138158490045 -38.30078125 -9.71875 C-24.216146446646178 -11.44047106254925 -11.752550196279515 -7.888103272133435 0 0 Z " fill="#D5693A" transform="translate(489,688)"/>
<path d="M0 0 C1.0041998291015943 0.0018228149414198924 2.0083996582031887 0.003645629882811363 3.04302978515625 0.005523681640625 C54.95313999743246 0.16390260310083704 54.95313999743246 0.16390260310083704 68.75 11.5 C71.80577097352773 14.853894970945106 72.43598174685269 16.138372700711045 72.45294189453125 20.505569458007813 C72.4586520385742 21.384579162597646 72.46436218261715 22.263588867187508 72.47024536132813 23.169235229492188 C72.47080429077141 23.652626113891586 72.47080429077141 23.652626113891586 72.4736328125 26.098876953125 C72.4785977172852 27.115262451171873 72.48356262207028 28.131647949218745 72.48867797851563 29.1788330078125 C72.50332422288704 32.55282255852734 72.51010587448411 35.926765086754614 72.515625 39.30078125 C72.52137463043937 41.64007061705473 72.52713238481522 43.979359964155066 72.53289794921875 46.31864929199219 C72.54341509136907 51.228955284456475 72.54925302164634 56.13924486931907 72.552734375 61.049560546875 C72.5582191476426 67.34465756250125 72.58224400389383 73.63953828290289 72.6107063293457 79.93456745147705 C72.62932128959255 84.76867813181826 72.63453771677598 89.60273661372435 72.63607025146484 94.43688011169434 C72.63910011944631 96.75773487852155 72.64713983505362 99.07858865553288 72.6602554321289 101.3994083404541 C72.67729096308062 104.64575312659366 72.67544151105938 107.89156822624005 72.6689453125 111.137939453125 C72.67816009521482 112.09864852905275 72.68737487792964 113.05935760498045 72.69686889648438 114.04917907714844 C72.66604479841862 118.96113566638178 72.53249779950875 122.33282884219022 69.3125 126.3125 C64.18171621950478 130.83629045441546 58.27776916383027 132.40739804953205 51.6875 133.5625 C51.287246093750014 133.64242187499997 51.287246093750014 133.64242187499997 49.26171875 134.046875 C34.44859528590723 136.83741631191702 19.34874521852032 136.49882822608583 4.338623046875 136.497802734375 C0.7822658394134123 136.4999802440605 -2.7737758683035736 136.51816539203458 -6.330078125 136.537109375 C-56.78466536196561 136.66151632321703 -56.78466536196561 136.66151632321703 -68.6875 126.3125 C-71.1939032546087 123.43428595559874 -72.06370464801932 121.66772345035878 -72.08863830566406 117.85441589355469 C-72.10143325805666 116.96713302612307 -72.11422821044926 116.07985015869139 -72.12741088867188 115.16567993164063 C-72.12605133056638 114.19988006591797 -72.12469177246089 113.23408020019531 -72.123291015625 112.239013671875 C-72.13336685180661 111.21579513549807 -72.14344268798823 110.19257659912108 -72.15382385253906 109.13835144042969 C-72.1823442786864 105.75227969077235 -72.18818275850128 102.3666531750689 -72.19140625 98.98046875 C-72.20104527400417 96.6264070219625 -72.21113759242166 94.27234710992226 -72.22166442871094 91.91828918457031 C-72.2396366041271 86.98120966103272 -72.24518440065663 82.04428766810935 -72.243408203125 77.107177734375 C-72.24310348104427 70.7851087251756 -72.28404335615483 64.46405164980052 -72.33572483062744 58.14222240447998 C-72.3691069094316 53.27882766759706 -72.37516517005736 48.415676912499066 -72.37357902526855 43.55217933654785 C-72.37711671795262 41.2217898289083 -72.39037283848609 38.891393846808 -72.41357612609863 36.56111717224121 C-72.44302230511619 33.2980844034505 -72.43432855028766 30.03723906294786 -72.416259765625 26.774169921875 C-72.43311828613287 25.814442749023442 -72.44997680664062 24.854715576171884 -72.46734619140625 23.86590576171875 C-72.38481323121482 17.990873446596254 -71.3261036407257 14.861631054129276 -67.20059108734131 10.617863655090332 C-51.70383773378285 -2.7513900328546583 -19.10263944845292 -0.07224302586863018 0 0 Z " fill="#D5693A" transform="translate(925.6875,161.6875)"/>
</svg>
