<?xml version="1.0" encoding="UTF-8"?>
<!-- Generator: visioncortex VTracer 0.6.12 -->
<svg version="1.1" xmlns="http://www.w3.org/2000/svg" width="1313" height="226">
<path d="M0 0 C0.9809765625000182 -0.0025781249999998757 1.9619531250000364 -0.005156249999999973 2.97265625 -0.0078125 C3.479902343750041 -0.0039453124999999645 3.479902343750041 -0.0039453124999999645 6.046875 0.015625 C7.0458984375 0.007890624999999929 8.044921875 0.00015625000000007994 9.07421875 -0.0078125 C17.67224785983126 0.014666007476683118 25.645256522711634 0.08528996796328947 32.1611328125 6.3017578125 C35.52641064685565 10.342100334821904 37.794598517667396 14.975986823675825 40.171875 19.640625 C41.07882347536554 21.372533017111277 41.98579837756188 23.104427444563207 42.893768310546875 24.835800170898438 C43.86173374523412 26.68673205168625 44.8229202481092 28.541068298024623 45.783203125 30.39599609375 C47.847410080844384 34.374564058203156 49.950948634639985 38.33155505408774 52.0625 42.28515625 C58.49786786069194 54.338286352532826 64.8987515768232 66.40972042321197 71.234375 78.515625 C71.6573486328125 79.32153076171875 72.080322265625 80.1274365234375 72.51611328125 80.957763671875 C75.743669918818 87.14689665814075 78.86653876485889 93.3870912250129 81.984619140625 99.6318359375 C82.44801948547365 100.55930633544922 82.9114198303223 101.48677673339844 83.38886260986328 102.44235229492188 C84.52513769214568 104.71664135252875 85.66113408951924 106.99106915219251 86.796875 109.265625 C86.80018514633184 108.72117296218872 86.80349529266357 108.17672092437743 86.80690574645996 107.61577033996582 C86.88805994624158 94.37948720523754 86.9802536023609 81.14332083002536 87.08440208435059 67.90719795227051 C87.13443145037945 61.50635079497178 87.18076076879527 55.105520682230676 87.21875 48.70458984375 C87.25551904976953 42.53186402291638 87.30185584200876 36.35927855467567 87.35493850708008 30.18667221069336 C87.37352714317149 27.827090731561754 87.38861840824438 25.467479118296954 87.40021896362305 23.107852935791016 C87.41700510234148 19.81280268013506 87.44602135315745 16.51807703646362 87.47802734375 13.22314453125 C87.48018753051758 12.239156799316406 87.48234771728517 11.255169067382813 87.48457336425781 10.241363525390625 C87.49573684692382 9.3467138671875 87.50690032958983 8.452064208984375 87.51840209960938 7.530303955078125 C87.52116747856144 7.140385522842408 87.52116747856144 7.140385522842408 87.5351619720459 5.16716194152832 C87.796875 3.2656250000000053 87.796875 3.2656250000000053 89.796875 1.265625 C94.03575957902763 -0.13069386996632426 98.31914587192261 0.0816713687775723 102.734375 0.078125 C103.53294921874999 0.06587890625000004 104.33152343749998 0.05363281250000007 105.154296875 0.041015625 C109.44119913956695 0.03036052409386847 112.95326783122277 0.1219301994099462 116.796875 2.265625 C118.14570448047141 4.963283960942793 117.93210882366566 7.062692959886537 117.94404602050781 10.08441162109375 C117.9476236724854 10.704098205566407 117.9476236724854 10.704098205566407 117.96572875976563 13.840087890625 C117.96856916149466 15.22119115613264 117.97128087466467 16.602294691123763 117.973876953125 17.9833984375 C117.98014069315116 19.432069535702855 117.98678741296942 20.880739021527706 117.99378967285156 22.32940673828125 C118.01120879896393 26.2717086035688 118.02175413560576 30.213998332191473 118.02999520301819 34.15632915496826 C118.03514395027764 36.6191167042291 118.04121977077352 39.08190047783836 118.04750633239746 41.54468536376953 C118.0665618735552 49.249383879353694 118.08079163796992 56.95407279370628 118.08911830186844 64.65879034996033 C118.0988898875679 73.55386232120814 118.12520568637899 82.44868538847828 118.1656191945076 91.34366965293884 C118.19577891863469 98.2176343681648 118.21058707223006 105.09152773883571 118.21389931440353 111.96555733680725 C118.2162501807453 116.07161000689896 118.22521489017845 120.17739688330025 118.2503604888916 124.28337860107422 C118.27364361167679 128.14776600202737 118.27787371675515 132.01171267245627 118.26759910583496 135.87615203857422 C118.26710366941563 137.29269883158378 118.27342654816937 138.70926732863052 118.28715515136719 140.12574768066406 C118.40939316459492 153.48818652318846 118.40939316459492 153.48818652318846 113.796875 158.265625 C108.76135893388914 161.6226357107406 102.89859308051894 160.63468404763384 96.984375 160.640625 C95.71271484375006 160.6651171875 94.44105468750001 160.689609375 93.130859375 160.71484375 C81.42081830482675 160.75164848882713 81.42081830482675 160.75164848882713 76.796875 156.265625 C76.31968017578129 155.80986083984374 75.84248535156246 155.3540966796875 75.350830078125 154.884521484375 C70.32993856392818 149.6354444090173 67.38555068433004 143.14136096030902 64.171875 136.703125 C62.93688805598515 134.26718325837757 61.694863144585156 131.83484941040072 60.453125 129.40234375 C60.14398162841803 128.7946011352539 59.83483825683595 128.18685852050783 59.516326904296875 127.56069946289063 C56.674003860575795 121.98624851436811 53.694463638777734 116.4938160289136 50.671875 111.015625 C45.53891138374297 101.6852877493337 40.58543813335166 92.26990564018067 35.68359375 82.81640625 C33.82938803022921 79.2413685909036 31.958851599221248 75.6760355213518 30.06640625 72.12109375 C29.848312988281236 71.71064819335938 29.848312988281236 71.71064819335938 28.74462890625 69.633544921875 C27.95176195534134 68.14380905266478 27.156244212174443 66.65547795039888 26.35693359375 65.169189453125 C23.791231716459833 60.33946712807223 21.44557892732621 55.42405474592795 19.143798828125 50.46484375 C18.82098182678226 49.771126708984376 18.498164825439403 49.07740966796875 18.165565490722656 48.3626708984375 C17.37523720275874 46.66401122070415 16.585950434510437 44.964867025776584 15.796875 43.265625 C15.799640378952063 43.850385103225705 15.802405757904012 44.435145206451416 15.805254936218262 45.037625312805176 C15.871476076348245 59.258867877538975 15.921136671177237 73.48008735979242 15.952311515808105 87.7014513015747 C15.96778773733945 94.57877446957619 15.98889152058996 101.45599479199531 16.023193359375 108.333251953125 C16.05626114850486 114.96624717133571 16.07371269106625 121.59916338042717 16.081506729125977 128.23224449157715 C16.087063342214947 130.76688001332735 16.097913555482364 133.3015094744505 16.114065170288086 135.8360996246338 C16.135742139250397 139.37759833526678 16.13884595787283 142.9186510453675 16.137451171875 146.460205078125 C16.14823699951171 147.51540344238282 16.15902282714842 148.57060180664064 16.170135498046875 149.65777587890625 C16.168073501586946 150.13944465637206 16.168073501586946 150.13944465637206 16.157638549804688 152.5769805908203 C16.16040392875675 153.4148904132843 16.1631693077087 154.25280023574828 16.16601848602295 155.1161012649536 C15.709854792181773 157.7723439567644 14.904767904721894 158.63655846489092 12.796875 160.265625 C8.715562682124187 161.50651609137523 4.600930191226325 161.4317677231056 0.359375 161.453125 C-0.27935546875005457 161.46021484375 -0.27935546875005457 161.46021484375 -3.51171875 161.49609375 C-11.469490688487554 160.99925931151242 -11.469490688487554 160.99925931151242 -14.203125 158.265625 C-14.308523324673615 156.3281518537999 -14.342799536880648 154.38679554354917 -14.350296020507813 152.44647216796875 C-14.357451324462886 151.18178604125976 -14.36460662841796 149.9170999145508 -14.371978759765625 148.6140899658203 C-14.37481933577942 147.1994326175817 -14.377531028363876 145.78477500583355 -14.380126953125 144.3701171875 C-14.386388735791684 142.89041482523166 -14.393035277031743 141.41071404798728 -14.400039672851563 139.93101501464844 C-14.417477904276382 135.89988082894087 -14.428009435550734 131.86875853113233 -14.436245203018188 127.83759593963623 C-14.441390142103785 125.32038095584338 -14.447466146470845 122.803169697268 -14.453756332397461 120.28595733642578 C-14.472817611140783 112.41413543194997 -14.4870458650322 104.54232295688008 -14.495368301868439 96.67048239707947 C-14.505140507114731 87.57673105891763 -14.531455531098288 78.48322315012078 -14.571869194507599 69.38955760002136 C-14.602013288969317 62.36616072905656 -14.616835609644795 55.342833685336664 -14.620149314403534 48.31937336921692 C-14.622502094830622 44.12223735868428 -14.631491480287877 39.92536111990397 -14.656610488891602 35.728294372558594 C-14.679866097300533 31.77856539292631 -14.684134790661062 27.829267648759814 -14.673849105834961 23.879487991333008 C-14.673352988402598 22.430271195782737 -14.679695875981281 20.98103336803965 -14.693405151367188 19.53188133239746 C-14.711083880734463 17.55223711188296 -14.701645706912586 15.572406244500456 -14.690872192382813 13.59271240234375 C-14.693260545730595 12.485094261169433 -14.695648899078378 11.377476119995118 -14.69810962677002 10.23629379272461 C-14.086153655844896 6.56361709322494 -12.771815574947084 4.912408839053667 -10.203125 2.265625 C-6.753195311629952 0.42186475172491456 -3.8801267408108515 0.00994539992152177 0 0 Z " fill="#000074" transform="translate(519.203125,1.734375)"/>
<path d="M0 0 C3.26325899802157 2.611923028658378 5.1341090557234565 4.248659866143159 5.75 8.48828125 C5.870209664035428 11.146871726691494 5.9350769610774705 13.767707552028781 5.9375 16.42578125 C5.949746093750036 17.12896484375 5.961992187499959 17.8321484375 5.974609375 18.556640625 C5.985953411353762 22.591336221477107 5.938219581066846 26.02524305413742 3.75 29.48828125 C1.671875 30.5625 1.671875 30.5625 -1.25 30.48828125 C-4.299057844081972 29.3460524815454 -7.123851177289794 27.81895829254261 -10 26.30078125 C-26.683995998770115 18.00367580183206 -45.13659196378376 14.051626828374676 -63.4765625 19.453125 C-76.55732590577622 24.33538176412774 -84.52290538095531 31.745309760088205 -90.584716796875 44.14111328125 C-97.9837617876642 60.352819136731995 -98.37868894176563 79.63302091760518 -92.56591796875 96.4697265625 C-88.0880007141916 107.71215711649765 -81.06402731703986 116.52188464811323 -69.90234375 121.4921875 C-54.79751467488734 127.16484053999076 -43.74732269358776 126.25668823264238 -28.25 121.48828125 C-27.91999999999996 109.60828125 -27.590000000000032 97.72828125 -27.25 85.48828125 C-38.139999999999986 85.48828125 -49.02999999999997 85.48828125 -60.25 85.48828125 C-62.45155781710605 81.08516561578784 -62.582789143325385 77.76840341746242 -62.5625 72.98828125 C-62.57861328125 72.2290234375 -62.5947265625 71.469765625 -62.611328125 70.6875 C-62.61406119840274 67.56633017408652 -62.554452192523854 65.06562981645703 -61.082122802734375 62.27357482910156 C-58.56701971793598 59.82275800537795 -57.05052583378779 59.97583704197481 -53.57275390625 59.954833984375 C-52.99032424926759 59.946915817260745 -52.99032424926759 59.946915817260745 -50.042877197265625 59.90684509277344 C-49.413185272216765 59.909325027465826 -49.413185272216765 59.909325027465826 -46.2265625 59.921875 C-44.93309906005857 59.915676422119134 -43.63963562011713 59.90947784423828 -42.306976318359375 59.90309143066406 C-39.56807681912028 59.892681679606056 -36.829696618229946 59.89725415845906 -34.0908203125 59.911865234375 C-30.587655833346048 59.929027155613866 -27.08613554371732 59.90559700543133 -23.583154678344727 59.870375633239746 C-20.235027926421367 59.84307278713486 -16.88729541117334 59.85314068074956 -13.5390625 59.859375 C-12.91139480590823 59.85274589538574 -12.91139480590823 59.85274589538574 -9.735015869140625 59.81919860839844 C-0.05451871911316175 59.92279365455951 -0.05451871911316175 59.92279365455951 3.01806640625 62.840087890625 C5.75979070698088 67.03229024332138 5.883188907120939 70.15240527799648 5.9111328125 75.067626953125 C5.916097717285197 75.73142364501953 5.921062622070281 76.39522033691406 5.926177978515625 77.07913208007813 C5.940776710137811 79.27411946466037 5.947598156798676 81.46903454986872 5.953125 83.6640625 C5.958878852114481 85.19239808559102 5.964636556865912 86.72073365668213 5.97039794921875 88.24906921386719 C5.980901777860595 91.45437963604365 5.986748313356657 94.65966502515519 5.990234375 97.864990234375 C5.995714289419311 101.96396622004997 6.01973390244666 106.06260922344524 6.048206329345703 110.16148090362549 C6.0668694488369965 113.31942192770268 6.072040281113232 116.47728337988595 6.073570251464844 119.63527488708496 C6.076589616713363 121.1458944249253 6.084593939115848 122.65651279954574 6.097755432128906 124.16707801818848 C6.114891632108538 126.2852237099371 6.112917685515868 128.40256426195117 6.1064453125 130.520751953125 C6.10826812744142 131.12245460510252 6.10826812744142 131.12245460510252 6.11749267578125 134.1674346923828 C5.706236553665917 137.8837495128682 4.660846536308668 140.2946799547864 2.75 143.48828125 C-1.9580522913578307 147.2203713440826 -8.515906894806676 148.66133375248887 -14.25 150.11328125 C-15.078867187500009 150.32492919921876 -15.907734375000018 150.5365771484375 -16.76171875 150.754638671875 C-42.38306931318209 157.0643376572375 -71.99157433967173 157.29726389051473 -95.625 144.23828125 C-101.43503599558824 140.60405249292242 -106.40082378698958 136.31206910587423 -111.25 131.48828125 C-111.87519531249995 130.897890625 -112.50039062500002 130.3075 -113.14453125 129.69921875 C-127.88467399534 114.59306794552067 -131.50816922080924 91.68200752232806 -131.498779296875 71.488037109375 C-131.19601781328254 47.54809850387551 -123.38721632327884 25.28207032685188 -106.01171875 8.30078125 C-79.74548361528605 -14.301424445753835 -29.381073015652873 -19.740408432391746 0 0 Z " fill="#000074" transform="translate(996.25,10.51171875)"/>
<path d="M0 0 C0.49951171875 -0.0019335937500000178 0.49951171875 -0.0019335937500000178 3.02734375 -0.01171875 C3.543613281249918 -0.005917968749999947 3.543613281249918 -0.005917968749999947 6.15625 0.0234375 C7.188789062500064 0.011835937499999893 8.2213281249999 0.00023437500000000888 9.28515625 -0.01171875 C10.2841796875 -0.007851562499999964 11.283203125 -0.003984374999999929 12.3125 0 C13.218066406250045 0.00338378906249992 14.123632812500091 0.006767578125000062 15.056640625 0.01025390625 C18.306597569647465 0.495549881267789 20.057684555036303 1.3821544333363027 22.65625 3.3984375 C23.257522583007813 6.037033081054698 23.257522583007813 6.037033081054698 23.223876953125 9.246826171875 C23.223499298095703 10.447844696044921 23.223121643066406 11.648863220214844 23.222732543945313 12.886276245117188 C23.19692611694336 14.183219146728515 23.171119689941406 15.480162048339842 23.14453125 16.81640625 C23.135203958343936 18.15731997643435 23.128087443444656 19.498250758470167 23.123092651367188 20.839187622070313 C23.10401530551644 24.36598887634487 23.05491102366682 27.891758005701973 22.99957275390625 31.41815185546875 C22.948394476433577 35.017555580209 22.92530779331605 38.61713132314028 22.900390625 42.216796875 C22.84944215485234 49.27825483746408 22.75159056147504 56.33687991342178 22.65625 63.3984375 C42.12625000000003 63.3984375 61.596250000000055 63.3984375 81.65625 63.3984375 C81.59824218750009 59.1019921875 81.54023437499995 54.805546875 81.48046875 50.37890625 C81.44831746718955 46.95465066972842 81.42120250014227 43.530437691578854 81.39749908447266 40.106117248535156 C81.37108612162365 36.49027764517734 81.33578933839499 32.87502324001144 81.279052734375 29.259521484375 C81.22475413436041 25.77761853518989 81.1948348150122 22.296283259098466 81.18186378479004 18.813989639282227 C81.16811822072259 16.837894518080194 81.12908074854568 14.862028085203267 81.08976745605469 12.886276245117188 C81.08938980102539 11.685257720947266 81.0890121459961 10.484239196777343 81.088623046875 9.246826171875 C81.07751998901358 8.187594451904296 81.06641693115239 7.128362731933594 81.05497741699219 6.0370330810546875 C81.65625 3.3984375000000018 81.65625 3.3984375000000018 84.02925109863281 1.5571746826171875 C86.90185131496469 0.29010575475213196 88.87271518862326 0.011685583814752931 92 0 C92.49951171875 -0.0019335937500000178 92.49951171875 -0.0019335937500000178 95.02734375 -0.01171875 C95.54361328124992 -0.005917968749999947 95.54361328124992 -0.005917968749999947 98.15625 0.0234375 C99.18878906250006 0.011835937499999893 100.2213281249999 0.00023437500000000888 101.28515625 -0.01171875 C102.2841796875 -0.007851562499999964 103.283203125 -0.003984374999999929 104.3125 0 C105.21806640625005 0.00338378906249992 106.12363281250009 0.006767578125000062 107.056640625 0.01025390625 C110.31927505196609 0.4974429313134827 112.05547712876523 1.3601362971976148 114.65625 3.3984375 C115.27986907958984 6.164276123046883 115.27986907958984 6.164276123046883 115.2777099609375 9.58544921875 C115.288918762207 10.881017456054687 115.30012756347651 12.176585693359375 115.31167602539063 13.51141357421875 C115.298764412531 14.950321822182069 115.28535026794157 16.38922563144901 115.271484375 17.828125 C115.27498464874043 19.340928371974947 115.2806421695293 20.853728071770533 115.28829956054688 22.36651611328125 C115.30257105358851 26.47822254890898 115.28546348159921 30.58926212830665 115.26201438903809 34.700904846191406 C115.24193811119471 38.99965696380292 115.24778325879242 43.29838050858393 115.2501220703125 47.59716796875 C115.25006846319388 54.81684395102083 115.2302907037224 62.03625852567585 115.1982421875 69.255859375 C115.16134776691729 77.60780426584924 115.1525662263366 85.95940660887142 115.15953969955444 94.31142234802246 C115.1658406512613 102.3391928154166 115.1550980008376 110.36684556334447 115.13557434082031 118.39459228515625 C115.1273904717118 121.8140022236228 115.12469260297394 125.23335207781489 115.12626647949219 128.65277099609375 C115.12714416538233 132.6780423183729 115.11296090046653 136.70298710474236 115.08703994750977 140.7281723022461 C115.07986569715922 142.20722623007944 115.07780056882893 143.68631486783528 115.08115768432617 145.1653823852539 C115.08486012889716 147.18075242384873 115.06831412981273 149.19612967315632 115.0506591796875 151.21142578125 C115.0487948226928 151.77591934204102 115.0487948226928 151.77591934204102 115.03936004638672 154.63259887695313 C114.65625 157.3984375 114.65625 157.3984375 113.26685333251953 159.24288940429688 C109.01426068937917 162.29396674367797 103.3003292961107 161.58155019292298 98.28125 161.5859375 C97.55164062499989 161.59818359375 96.82203125000001 161.6104296875 96.0703125 161.623046875 C91.22426587774862 161.6360273570239 87.24149961348803 160.99201908401582 82.65625 159.3984375 C81.65625 158.39843750000003 81.65625 158.39843750000003 81.53599548339844 155.77256774902344 C81.53821609497072 154.60230545043945 81.540436706543 153.43204315185548 81.542724609375 152.226318359375 C81.54257858276378 151.5824366760254 81.54243255615233 150.9385549926758 81.54228210449219 150.27516174316406 C81.5429811485701 148.13783447493344 81.55077309196895 146.00059337285953 81.55859375 143.86328125 C81.56045796109538 142.38497464630987 81.56188184912457 140.9066674265002 81.56288146972656 139.42835998535156 C81.56670641173287 135.53044947679984 81.576536483778 131.632576010888 81.58758544921875 127.73468017578125 C81.59959484106321 123.06159988983134 81.60420192399079 118.38850724372212 81.61003875732422 113.71541595458984 C81.61974826460619 106.60973067711247 81.63890494897419 99.50412673694913 81.65625 92.3984375 C62.18624999999997 92.3984375 42.716249999999945 92.3984375 22.65625 92.3984375 C22.6910546874999 97.139609375 22.725859375000027 101.88078125 22.76171875 106.765625 C22.777042407588397 109.76433518697353 22.79148383945676 112.76299728895113 22.802734375 115.76171875 C22.820687181211042 120.52435292964685 22.84195390745549 125.28681454873015 22.882568359375 130.04931640625 C22.915098871716054 133.88778705570337 22.93308956539863 137.72607273543127 22.940881729125977 141.56467056274414 C22.94643665709941 143.0311588391374 22.95728379246657 144.49763668101858 22.973440170288086 145.96404647827148 C22.995131605745428 148.0138534098407 22.998220554489762 150.06289025110576 22.996826171875 152.11279296875 C23.00348800659185 153.2808346557617 23.010149841308703 154.44887634277345 23.017013549804688 155.65231323242188 C22.897961578369177 156.55853424072265 22.778909606933667 157.46475524902343 22.65625 158.3984375 C17.51297964946616 161.82728440035584 12.317238387961424 161.58066128637415 6.28125 161.5859375 C5.551640624999891 161.59818359375 4.822031250000009 161.6104296875 4.0703125 161.623046875 C-0.7757341222511513 161.6360273570239 -4.758500386511969 160.99201908401582 -9.34375 159.3984375 C-11.147422962893188 157.59476453710673 -10.485746553541276 154.84541392803848 -10.497650146484375 152.41397094726563 C-10.506250610351572 151.1127378845215 -10.514851074218768 149.81150482177733 -10.523712158203125 148.47084045410156 C-10.528147760935326 147.01522866958067 -10.532446085352376 145.55961646153818 -10.53662109375 144.10400390625 C-10.544518585322294 142.58164785604018 -10.552787311481552 141.05929369258058 -10.5614013671875 139.5369415283203 C-10.587659997081573 134.524645975581 -10.60293172554907 129.51234189377507 -10.6171875 124.5 C-10.622545396062606 122.77738819386627 -10.627922897431745 121.05477644860169 -10.633319854736328 119.3321647644043 C-10.654953249228583 112.16920763610018 -10.673691856358346 105.00625280319602 -10.684942245483398 97.84327125549316 C-10.70119343969236 87.56244400698918 -10.734394020292712 77.28199402498474 -10.791343092918396 67.00130903720856 C-10.829982517073176 59.78091944216067 -10.849567727029807 52.56063100748053 -10.854862809181213 45.34014070034027 C-10.858524258040234 41.02339944821421 -10.870628845418196 36.707060197406065 -10.902965545654297 32.39043045043945 C-10.932941584469063 28.330663765830266 -10.939395992922073 24.271544501302657 -10.927581787109375 20.21169090270996 C-10.927360174090609 18.71969762267632 -10.93573755866737 17.227675215110118 -10.953235626220703 15.735784530639648 C-10.975785115446797 13.702938468272919 -10.964691676174198 11.669801280115244 -10.951751708984375 9.636871337890625 C-10.953406782150296 9.067391786575318 -10.953406782150296 9.067391786575318 -10.961782455444336 6.185480117797852 C-10.34375 3.398437499999999 -10.34375 3.398437499999999 -7.968225479125977 1.532796859741211 C-5.102324430401268 0.29408775212337557 -3.1109491344195703 0.011624543028970091 0 0 Z " fill="#000074" transform="translate(1051.34375,1.6015625)"/>
<path d="M0 0 C1.089388732910157 -0.009607543945312491 2.1787774658203123 -0.019215087890624982 3.301177978515625 -0.02911376953125 C4.487467956542968 -0.03336364746093756 5.673757934570311 -0.037613525390625124 6.89599609375 -0.0419921875 C7.508195037841794 -0.04484222412109373 7.508195037841794 -0.04484222412109373 10.606292724609375 -0.05926513671875 C13.210664195300676 -0.06873384932840931 15.815047748795486 -0.07525650465803957 18.41943359375 -0.0791015625 C22.354498326653527 -0.08557745606586686 26.28917936956813 -0.1196737228199547 30.22412109375 -0.1513671875 C51.83444238294507 -0.24454590478329985 72.42205311353871 0.17258856442973247 88.96240234375 16.1298828125 C99.32220864294803 27.616235212463696 100.53700823299728 41.85275896283525 99.9736328125 56.6630859375 C99.22395694545915 67.11360837832017 95.99987053949157 76.67548281582977 89.79443359375 85.1611328125 C89.05193359375 86.2130078125 88.30943359375 87.2648828125 87.54443359375 88.3486328125 C76.03180474008049 100.12291232193472 60.02242360327709 105.75121496972928 43.73811340332031 106.25584411621094 C40.40584357836754 106.27748435036443 37.07585055446927 106.26499296985577 33.74365234375 106.2353515625 C33.167340698242185 106.23267272949218 33.167340698242185 106.23267272949218 30.2508544921875 106.2191162109375 C27.431969351732477 106.20523727399305 24.613241653751295 106.18578129165957 21.79443359375 106.1611328125 C21.801095428466795 106.83320770263671 21.807757263183596 107.50528259277344 21.814620971679688 108.19772338867188 C21.88082785080099 115.17261994625164 21.92617311216687 122.14742772537247 21.959228515625 129.12255859375 C21.974344674180934 131.72806420290738 21.994837911245753 134.33354425581538 22.020751953125 136.93896484375 C22.057010475203846 140.67714737493753 22.074131578211734 144.4149944615254 22.08740234375 148.1533203125 C22.102886199951172 149.32418182373047 22.118370056152344 150.49504333496094 22.134323120117188 151.70138549804688 C22.134549713134767 152.7823550415039 22.134776306152347 153.86332458496094 22.135009765625 154.97705078125 C22.141671600341795 155.93191375732422 22.148333435058596 156.88677673339845 22.155197143554688 157.87057495117188 C22.03614517211914 158.62645904541014 21.917093200683595 159.38234313964844 21.79443359375 160.1611328125 C16.651163243216246 163.58997971285584 11.45542198171146 163.34335659887415 5.41943359375 163.3486328125 C4.689824218749999 163.36087890625 3.96021484375 163.373125 3.20849609375 163.3857421875 C-1.6375505285012366 163.3987226695239 -5.62031679276208 162.75471439651582 -10.20556640625 161.1611328125 C-12.002824306535276 159.36387491221473 -11.343552285207737 156.6530388017595 -11.352737426757813 154.22808837890625 C-11.359892730712891 152.93815979003907 -11.367048034667969 151.64823120117188 -11.374420166015625 150.3192138671875 C-11.377260744046277 148.87622094286192 -11.379972436391595 147.4332277601966 -11.382568359375 145.990234375 C-11.388830100859964 144.4809757702239 -11.39547663829799 142.97171871956476 -11.402481079101563 141.46246337890625 C-11.419919595114953 137.35075314265433 -11.430450901079567 133.23905456150797 -11.438686609268188 129.12731647491455 C-11.443831443446841 126.55984861767237 -11.449907449605034 123.9923844135757 -11.456197738647461 121.42491912841797 C-11.475259018727652 113.39611998699384 -11.489487323627989 105.3673300911755 -11.497809708118439 97.33851265907288 C-11.50758218376507 88.06308184475809 -11.533897933278865 78.78788967444008 -11.574310600757599 69.51254296302795 C-11.604453270092739 62.34901990387979 -11.619276877849185 55.18556530532263 -11.622590720653534 48.02198004722595 C-11.624943644891946 43.74100916241176 -11.63393494241596 39.46029294301103 -11.659051895141602 35.17938995361328 C-11.682305014768367 31.150868969529434 -11.686577175061089 27.122770790516366 -11.676290512084961 23.094200134277344 C-11.67579433614214 21.615957593457725 -11.682138926186415 20.13769444867219 -11.695846557617188 18.659515380859375 C-11.713521286992027 16.640458043222043 -11.704088435339704 14.62121776499329 -11.693313598632813 12.60211181640625 C-11.69570195198059 11.472370643615722 -11.69809030532837 10.342629470825194 -11.70055103302002 9.178653717041016 C-11.094312949750467 5.4829104748075554 -9.787084913289618 3.8232860493694902 -7.20556640625 1.1611328125 C-4.65941317685987 -0.11194380219506495 -2.8507539813215246 0.020278142992561365 0 0 Z M21.79443359375 26.1611328125 C21.79443359375 43.9811328125 21.79443359375 61.8011328125 21.79443359375 80.1611328125 C49.10590900358606 80.1611328125 49.10590900358606 80.1611328125 57.38818359375 72.7314453125 C63.04563328827969 66.93533263526125 64.8316273735581 59.55115424618424 65.16943359375 51.5986328125 C64.84202959896066 43.65552719978477 62.65160623204599 36.6278272749096 56.79443359375 31.1611328125 C45.62101245675571 24.112585198696298 35.77993612743586 26.1611328125 21.79443359375 26.1611328125 Z " fill="#000074" transform="translate(11.20556640625,1.8388671875)"/>
<path d="M0 0 C1.63671875 1.24609375 1.63671875 1.24609375 3.63671875 4.24609375 C3.879638671875 6.574462890624924 3.879638671875 6.574462890624924 3.8671875 9.28125 C3.865253906250018 10.255136718749998 3.8633203125000364 11.2290234375 3.861328125 12.232421875 C3.8490820312499636 13.24755859375 3.836835937500041 14.2626953125 3.82421875 15.30859375 C3.823896484375041 15.818095703125 3.823896484375041 15.818095703125 3.822265625 18.396484375 C3.777123679577471 25.965283890845107 3.777123679577471 25.965283890845107 2.63671875 28.24609375 C-2.863606157202071 28.709459654818893 -6.465260124256702 27.176772697374275 -11.30078125 24.87109375 C-21.690732944314277 20.00729143448845 -32.458868602284724 16.780051325108797 -43.97265625 19.96875 C-48.09400448430483 21.88223310878436 -51.08945509375201 24.244159715003626 -53.36328125 28.24609375 C-54.82603633672568 34.29214810846616 -54.50966895975671 37.68747546276311 -51.36328125 43.24609375 C-47.63640162902641 47.48796037314445 -43.81388353775901 49.922014889742876 -38.86328125 52.43359375 C-38.13423583984377 52.81378662109375 -37.405190429687536 53.1939794921875 -36.654052734375 53.585693359375 C-31.55756908669298 56.213910443563265 -26.381176068171385 58.64158167059517 -21.172607421875 61.0380859375 C-7.454626556202697 67.3831550357987 4.256075137736275 74.32647352561015 10.76171875 88.73828125 C11.517689523740842 90.89715932500987 12.125873702681815 93.01775242290502 12.63671875 95.24609375 C12.863593750000064 96.21546875 13.090468750000014 97.18484375 13.32421875 98.18359375 C14.909063081328782 113.71506819702202 11.238959666929873 126.70952353665689 2.38671875 139.49609375 C-10.822944667704633 152.70575716770458 -27.926543154643127 157.44686393901958 -46.17578125 157.68359375 C-60.59661228817754 157.5940062495239 -77.4457710466761 155.1453415425637 -88.62109375 145.24609375 C-92.2780272725796 141.04799966129877 -91.58184208006605 136.07072481768765 -91.61328125 130.80859375 C-91.63390625 129.94943359375 -91.65453124999999 129.0902734375 -91.67578125 128.205078125 C-91.71522750305667 121.84930060124401 -91.71522750305667 121.84930060124401 -89.84765625 118.6484375 C-89.35781250000002 118.1856640625 -88.86796875000005 117.722890625 -88.36328125 117.24609375 C-83.06833425554089 117.78706356677137 -79.32471102880697 119.6368469347352 -74.73828125 122.12109375 C-62.20414116834843 128.58958740760175 -48.2419049359811 132.23679177137865 -34.23828125 127.99609375 C-29.28071313875398 125.98324654693769 -26.23727514380255 123.78311749427348 -23.55078125 119.05859375 C-21.815270060739977 113.48668940553378 -21.153545818710313 108.615158969609 -23.86328125 103.30859375 C-24.358281250000005 102.62796875 -24.85328125000001 101.94734375 -25.36328125 101.24609375 C-25.36328125 100.58609375 -25.36328125 99.92609375 -25.36328125 99.24609375 C-25.932482910156295 98.97224853515625 -26.501684570312477 98.6984033203125 -27.088134765625 98.416259765625 C-29.399750278993565 97.22733679582402 -31.56298000189554 95.90298269085528 -33.765625 94.5234375 C-41.02889441384309 90.1335201292501 -48.75522399493752 86.71770030132348 -56.462890625 83.189453125 C-69.47590394521615 77.08250095838588 -80.84996393545771 68.99019283743729 -86.36328125 55.24609375 C-86.72035156250001 54.3966015625 -87.07742187500003 53.547109375 -87.4453125 52.671875 C-90.15448608112035 42.56146976322332 -90.1403942759805 28.19720009680362 -85.74609375 18.625 C-78.19279089347481 5.630758645130472 -69.01625577655147 -2.1631087147590904 -54.4775390625 -6.2890625 C-36.838064186137444 -10.744680872017609 -15.819440673894519 -9.190341724833967 0 0 Z " fill="#000074" transform="translate(757.36328125,7.75390625)"/>
<path d="M0 0 C5.494169875750913 2.9850849545196034 7.113456628866686 7.916361253571221 9.375 13.4375 C9.585036621093764 13.935078125 9.585036621093764 13.935078125 10.64794921875 16.453125 C12.118700207638483 19.960663952436622 13.562939083773301 23.478574584910707 15 27 C15.270461425781264 27.661389770507814 15.540922851562527 28.322779541015624 15.819580078125 29.00421142578125 C19.238479512289246 37.36730094879487 22.628282055049908 45.74203027018509 26.0078125 54.12109375 C35.27682182029048 77.0981302990707 44.72975705582945 100.00105563106563 54.25 122.875 C54.564692382812495 123.63185089111329 54.87938476562499 124.38870178222656 55.20361328125 125.16848754882813 C56.09802331999322 127.31858202421975 56.99405274854962 129.46799388761607 57.890625 131.6171875 C58.02822738647461 131.94809387207033 58.02822738647461 131.94809387207033 58.724578857421875 133.6226806640625 C60.20644921688381 137.1692907686697 61.76408415131266 140.66602355934484 63.3984375 144.14453125 C64.88253088246665 147.44915443850095 65.49326519570445 150.1409032424477 65.375 153.8125 C65.36210937499999 154.7058203125 65.34921874999998 155.599140625 65.3359375 156.51953125 C64.9853048361648 159.10850498878287 64.36602492625462 160.78575743000604 63 163 C59.52904202365397 165.57107998247855 56.19341249110437 165.3445489221148 52 165 C48.944640402578216 163.81383921598987 46.15338805445549 162.25121511106673 43.3125 160.625 C41.82945091607826 159.80464441338813 40.34637876427121 158.98433052751844 38.86328125 158.1640625 C38.21657470703127 157.7974853515625 37.569868164062484 157.430908203125 36.903564453125 157.05322265625 C34.96504495029143 155.98065973009582 32.981564855042905 154.99078242752145 31 154 C27.69999999999999 157.3 24.399999999999977 160.6 21 164 C19.508592424487233 161.01718484897444 20.57823110342963 159.14644189875247 21.43359375 155.9609375 C21.75263671875001 154.7401953125 22.071679687500023 153.519453125 22.400390625 152.26171875 C23.08359026005354 149.69283629102674 23.77315168583766 147.1257363921395 24.462890625 144.55859375 C28.040189271392705 130.839617452164 28.040189271392705 130.839617452164 27 126 C24.534306204582606 123.56712035404408 21.720638535977002 122.0129438496626 18.6875 120.375 C10.75361094997993 115.9492046316541 10.75361094997993 115.9492046316541 7.953125 112.421875 C6.505000674367636 107.22287127354939 6.868655088315222 102.2346758447201 7.0625 96.875 C7.3818647881689685 78.65848337762868 4.877085550603567 57.25557337817703 -6 42 C-9.232815809268345 43.337485126911425 -10.568529982655718 44.33879641076988 -11.9375 47.5625 C-13.782787869334243 52.07725569611824 -15.223001448620266 56.70770493316034 -16.625 61.375 C-16.728084716796843 61.71631958007812 -16.728084716796843 61.71631958007812 -17.249755859375 63.443603515625 C-20.657034905200533 75.21910460746587 -21.18784579056927 86.10598496713725 -20.833984375 98.32421875 C-20.648773364349154 109.67956967887051 -20.648773364349154 109.67956967887051 -24 115 C-26.48828125 117.07421875000001 -26.48828125 117.07421875000001 -29.3125 118.6875 C-30.284453125000027 119.2714453125 -31.256406249999998 119.855390625 -32.2578125 120.45703125 C-33.83662221721909 121.34539284302215 -35.42944648458723 122.21145748955911 -37.0546875 123.01171875 C-38.6875 123.875 -38.6875 123.875 -41 126 C-41.8206776958545 134.339144328844 -39.551372437166606 142.03303885452297 -37.5 150.0625 C-37.161799964017234 151.41838058529433 -36.82455269363834 152.77449919344414 -36.48828125 154.130859375 C-35.668167732174595 157.42302935369918 -34.838526093343376 160.71248071534555 -34 164 C-37.44175831210089 162.8527472292997 -38.29119274612259 161.74715348201158 -40.5625 159 C-43.80152671755718 155.0992366412214 -43.80152671755718 155.0992366412214 -46 154 C-47.736572265625 154.78857421875 -47.736572265625 154.78857421875 -49.81640625 156.0546875 C-50.19893554687502 156.27962890625 -50.19893554687502 156.27962890625 -52.134765625 157.41796875 C-53.72971776479835 158.3751966633464 -55.3210036863793 159.33856511723764 -56.908203125 160.30859375 C-62.17512728712666 163.3871788972214 -66.81566967533388 165.2095452026251 -73 165 C-76.61435335711622 163.69268070061753 -77.63008981803665 162.72300626474652 -79.375 159.3125 C-80.66446681312217 152.47832589045248 -78.78699851741715 146.67289461669475 -76.03515625 140.453125 C-75.73083175659178 139.74179916381837 -75.42650726318357 139.0304733276367 -75.11296081542969 138.29759216308594 C-74.45231487941504 136.75580879072254 -73.78718544237239 135.21594037833407 -73.1180419921875 133.67782592773438 C-71.27177230969716 129.43126687284484 -69.46126637478307 125.16941252272579 -67.64453125 120.91015625 C-67.45336227416993 120.46326698303223 -67.45336227416993 120.46326698303223 -66.48593139648438 118.20173645019531 C-62.302265108602796 108.40650061834415 -58.26960030420133 98.55094140586178 -54.25 88.6875 C-53.50835752686123 86.87009402985976 -52.766657875634564 85.05271139180829 -52.02490234375 83.2353515625 C-50.49355946885311 79.48204316693288 -48.96340059541632 75.72825474817323 -47.43408203125 71.97412109375 C-43.46471573163143 62.23035731920767 -39.48836458462165 52.48944254423268 -35.5128173828125 42.748199462890625 C-34.21987931510847 39.57935795252374 -32.927721628293114 36.41019925402754 -31.6357421875 33.240966796875 C-29.745342008763714 28.604254197343593 -27.850583242401854 23.969342773441422 -25.953582763671875 19.3353271484375 C-25.099103120282223 17.242703849216788 -24.2506792254091 15.147763522724112 -23.404541015625 13.0517578125 C-22.966823730468718 11.977646484375 -22.529106445312493 10.90353515625 -22.078125 9.796875 C-21.725244140625023 8.923857421875 -21.37236328124999 8.05083984375 -21.0087890625 7.1513671875 C-17.002516266653686 -1.3925040315216695 -8.528277178705139 -1.446316012762863 0 0 Z " fill="#000074" transform="translate(336,2)"/>
<path d="M0 0 C0.4830207824707031 -0.003577651977539009 0.4830207824707031 -0.003577651977539009 2.927398681640625 -0.0216827392578125 C3.9908299255371276 -0.024371643066406268 5.05426116943363 -0.027060546875000036 6.1499176025390625 -0.0298309326171875 C7.267051391601626 -0.036402130126953036 8.384185180663962 -0.042973327636718794 9.535171508789063 -0.04974365234375 C13.243424072735706 -0.06950566419971493 16.9516361463468 -0.08114395425773968 20.659927368164063 -0.0911102294921875 C21.923093433380018 -0.09518575668334961 23.1862594985962 -0.09926128387451172 24.487703323364258 -0.10346031188964844 C30.48006720303465 -0.1221770246962055 36.4724063986946 -0.1367422232081399 42.46479171514511 -0.14507228136062622 C49.38689765692607 -0.1548533069909337 56.30868455415839 -0.18119630838387235 63.230678021907806 -0.22157317399978638 C69.22251911543458 -0.2553280302476024 75.21420479190351 -0.26721348433660963 81.20614814758301 -0.27127647399902344 C83.75753509789638 -0.2761634750466335 86.3089181224966 -0.2878369048945455 88.86024284362793 -0.30631446838378906 C92.42320930802089 -0.33052051960596396 95.98533254425115 -0.3297748712405033 99.54835510253906 -0.3227996826171875 C100.60976211547859 -0.33560974121093756 101.67116912841789 -0.3484197998046876 102.76473999023438 -0.3616180419921875 C103.73360137939449 -0.3546742248535155 104.7024627685546 -0.34773040771484376 105.70068359375 -0.340576171875 C106.54337012290944 -0.3429645252227784 107.3860566520691 -0.34535287857055663 108.25427913665771 -0.34781360626220703 C110.41383361816406 0.1471710205078125 110.41383361816406 0.1471710205078125 112.18414402008057 2.0384950637817383 C113.61171534981895 4.4864992952745135 113.8002256654213 5.954682264686824 113.81227111816406 8.772171020507813 C113.81613830566403 9.643577270507812 113.82000549316399 10.514983520507812 113.82398986816406 11.412796020507813 C113.81238830566417 12.315139770507813 113.80078674316405 13.217483520507813 113.78883361816406 14.147171020507813 C113.80043518066395 15.049514770507813 113.81203674316407 15.951858520507813 113.82398986816406 16.881546020507813 C113.8201226806641 17.752952270507812 113.81625549316414 18.624358520507812 113.81227111816406 19.522171020507813 C113.80888732910148 20.313655395507812 113.80550354003913 21.10513977050781 113.80201721191406 21.920608520507813 C113.27337368110238 24.952828017994346 112.70997805523825 26.040277314682378 110.41383361816406 28.147171020507813 C107.33003808363992 28.726104585493392 104.27976829488966 28.61106033127674 101.15211486816406 28.537796020507813 C100.24632186889653 28.53213623046875 99.340528869629 28.526476440429686 98.40728759765625 28.520645141601563 C95.51309951243661 28.498247178246356 92.62014772258863 28.448044939583855 89.72633361816406 28.397171020507813 C87.76476295115162 28.377110421521458 85.8031728862959 28.358858884838156 83.84156799316406 28.342483520507813 C79.03184656242411 28.29837120517978 74.22304971679819 28.229320431561284 69.41383361816406 28.147171020507813 C69.41659899711613 28.80923710823059 69.41936437606819 29.471303195953368 69.42221355438232 30.15343189239502 C69.48842546232686 46.252359155548035 69.53809077368442 62.351239156042425 69.56927013397217 78.45026874542236 C69.58474845997603 86.23559771463079 69.60585631540971 94.02083587718607 69.64015197753906 101.80610656738281 C69.67002490861341 108.59062308949797 69.68940159736599 115.37507385883204 69.6960991024971 122.15965431928635 C69.70001497231306 125.75308792875752 69.70923756406228 129.34633340611617 69.73102378845215 132.93970680236816 C69.75513013288128 136.94815594032568 69.75580497869805 140.95627662658376 69.75440979003906 144.9647979736328 C69.76519561767577 146.1602574157715 69.77598144531248 147.35571685791015 69.78709411621094 148.58740234375 C69.78297012329108 149.67695220947266 69.778846130371 150.76650207519532 69.77459716796875 151.88906860351563 C69.77736254692081 152.83759358406067 69.78012792587288 153.78611856460572 69.78297710418701 154.7633867263794 C69.3460808271293 157.5846920530264 68.66648430507303 158.45027651944898 66.41383361816406 160.1471710205078 C61.944459737818306 161.55510564948116 57.186485286309335 161.3666445727696 52.53883361816406 161.3971710205078 C52.15018127441408 161.4074835205078 52.15018127441408 161.4074835205078 50.18336486816406 161.4596710205078 C44.84366688936075 161.49556814977709 41.137003919428025 160.68757071257144 36.41383361816406 158.1471710205078 C35.14887586322811 155.61725551063586 35.290807510228206 153.87985333092837 35.2935791015625 151.0472869873047 C35.292204437255805 149.9675259399414 35.29082977294911 148.88776489257813 35.28941345214844 147.77528381347656 C35.29121109008793 147.1804318237305 35.29121109008793 147.1804318237305 35.30030822753906 144.1701202392578 C35.30016220092784 142.92137115478516 35.3000161743164 141.6726220703125 35.29986572265625 140.3860321044922 C35.30044409669267 136.95648438698407 35.30546843265029 133.52699644772537 35.31243968009949 130.09745931625366 C35.31867983941447 126.51532764545223 35.31927754311005 122.93319522733657 35.320465087890625 119.35105895996094 C35.32357644407284 112.56541851666373 35.331787207337584 105.77979413402105 35.3418145775795 98.99416077136993 C35.352981773187366 91.26995886072189 35.358487696504426 83.5457561936406 35.36351001262665 75.82154822349548 C35.373969973785506 59.93007984585945 35.39156564511063 44.03862750208824 35.41383361816406 28.147171020507813 C34.187532348632885 28.173355102539063 32.96123107910148 28.199539184570313 31.697769165039063 28.226516723632813 C27.152544262599577 28.31694551825653 22.607398962335537 28.374393500011823 18.061538696289063 28.421829223632813 C16.093303779449116 28.44699016483778 14.125162443911222 28.481122663361862 12.157241821289063 28.524368286132813 C9.329777429783235 28.58495171776326 6.503546798012849 28.61336409098235 3.6755523681640625 28.635452270507813 C2.7942112731934685 28.661258697509766 1.9128701782226472 28.68706512451172 1.00482177734375 28.713653564453125 C-1.2997044775422637 28.714714117981767 -3.3431201936371053 28.676478777540765 -5.5861663818359375 28.147171020507813 C-8.15753214260053 25.150307835262257 -8.96604094936788 22.772207623534538 -8.949447631835938 18.862014770507813 C-8.94880310058602 18.084065551757813 -8.948158569335874 17.30611633300781 -8.947494506835938 16.504592895507813 C-8.931381225585938 15.706018676757814 -8.915267944335938 14.907444458007813 -8.898666381835938 14.084671020507813 C-8.901889038085983 13.282229614257812 -8.905111694336028 12.479788208007813 -8.908432006835938 11.653030395507813 C-8.840524336212638 4.214053749960276 -8.840524336212638 4.214053749960276 -6.5861663818359375 1.1471710205078125 C-4.185452365351011 -0.05318598773465899 -2.6814220522965115 0.013604271511359567 0 0 Z " fill="#000074" transform="translate(1199.586166381836,1.8528289794921875)"/>
<path d="M0 0 C2 2 2 2 2.246095657348633 4.260736465454102 C2.245173864364631 4.735459852218629 2.245173864364631 4.735459852218629 2.240509033203125 7.137847900390625 C2.2432583618164017 8.226023101806641 2.2460076904296784 9.314198303222657 2.24884033203125 10.435348510742188 C2.241649780273434 11.634403228759766 2.234459228515618 12.833457946777344 2.22705078125 14.06884765625 C2.2273428344726653 15.327350311279297 2.2276348876953023 16.585852966308593 2.227935791015625 17.882492065429688 C2.228510959949176 21.33893171809437 2.2167302426526874 24.79523330561 2.2027878761291504 28.251640796661377 C2.190307768294417 31.861794396365788 2.189112170884613 35.47195096010678 2.186737060546875 39.082122802734375 C2.180514270455717 45.920910097671964 2.164092693772375 52.75963365131298 2.1440380811691284 59.598392844200134 C2.121703885669916 67.38304635207591 2.110691902336299 75.16770286172786 2.100647211074829 82.95238041877747 C2.0797271233504375 98.96829096144963 2.0445356853416 114.98413735368413 2 131 C2.6322700500488168 130.9933381652832 3.264540100097662 130.9866763305664 3.9159698486328125 130.9798126220703 C10.485513554983072 130.9135385314274 17.054962594833626 130.8682323919423 23.624755859375 130.835205078125 C26.077920083082148 130.82010118717466 28.531057235521928 130.79961678965037 30.984130859375 130.773681640625 C34.50641554801666 130.73736942734004 38.02834381257571 130.72028963751478 41.55078125 130.70703125 C42.650860137939446 130.69154739379883 43.75093902587889 130.67606353759766 44.88435363769531 130.6601104736328 C45.394769515991214 130.659997177124 45.394769515991214 130.659997177124 47.977783203125 130.659423828125 C48.877130889892584 130.6527619934082 49.77647857666017 130.6461001586914 50.70307922363281 130.6392364501953 C53.4879417300391 131.07663807669726 54.3274476265957 131.7680565384078 56 134 C57.221171935941356 137.66351580782404 57.18406354028468 141.06052971598746 57.1875 144.875 C57.19974609374998 145.5826953125 57.211992187500016 146.290390625 57.224609375 147.01953125 C57.23609026316089 151.12968921159637 56.87981053487701 154.32423664927396 55 158 C53.05804295489111 159.9419570451089 49.36379998186254 159.1570596341193 46.7138671875 159.1611328125 C45.95122055053713 159.16609771728517 45.1885739135742 159.1710626220703 44.40281677246094 159.17617797851563 C41.86749381261188 159.19084028646208 39.332233480447485 159.1976094185369 36.796875 159.203125 C35.03908281833873 159.2088744884588 33.28129066370093 159.2146322442921 31.52349853515625 159.22039794921875 C27.831255154529714 159.23092045744517 24.13903362098111 159.23675447243374 20.44677734375 159.240234375 C15.717660948703696 159.2457122334983 10.988833485090879 159.26971972717865 6.259807586669922 159.2982063293457 C2.6258052808476293 159.3168430038 -1.0081277089489618 159.3220389249944 -4.642173767089844 159.32357025146484 C-6.385277551068526 159.32659657011988 -8.128380121093272 159.33462441568142 -9.871437072753906 159.3477554321289 C-12.313276459792121 159.3648325640559 -14.754413990921819 159.362931460784 -17.1962890625 159.3564453125 C-17.91544998168945 159.36566009521485 -18.634610900878897 159.3748748779297 -19.375564575195313 159.38436889648438 C-23.750050912917317 159.34801536917126 -26.520327497925848 158.6879863569548 -30 156 C-31.378285632822212 153.24342873435555 -31.122780124618657 151.0373122840082 -31.120254516601563 147.95101928710938 C-31.1216291809082 146.66090438842772 -31.12300384521484 145.3707894897461 -31.124420166015625 144.0415802001953 C-31.12088077470233 142.6037290181315 -31.117245961509667 141.16587806841005 -31.113525390625 139.72802734375 C-31.113243447645345 138.2203623645248 -31.11340139177446 136.71269724778895 -31.113967895507813 135.2050323486328 C-31.114255593006163 131.10402994839606 -31.10836332272862 127.0030566127254 -31.101393938064575 122.90206098556519 C-31.095155806186597 118.61924860487555 -31.09455623592146 114.33643560750033 -31.093368530273438 110.05361938476563 C-31.090256575100767 101.93988143340549 -31.082045005503318 93.82615690610552 -31.072019040584564 85.71242487430573 C-31.060853702439715 76.47676403457957 -31.055346390305118 67.24110256420096 -31.050323605537415 58.00543665885925 C-31.0398622883244 39.00361681958353 -31.022265459036618 20.001809487903348 -31 1 C-22.111598451585877 -3.826814085893763 -9.435340433096883 -2.889461531496592 0 0 Z " fill="#000075" transform="translate(172,4)"/>
<path d="M0 0 C1.0415625000000546 -0.020624999999999893 2.0831249999999955 -0.04125000000000001 3.15625 -0.0625 C4.164296874999991 -0.06765624999999997 5.172343749999982 -0.07281249999999995 6.2109375 -0.078125 C7.129233398437464 -0.08747070312499994 8.047529296875041 -0.09681640624999988 8.99365234375 -0.1064453125 C12.292854279351104 0.3404682916916508 14.00316829147198 1.1912873470866678 16.625 3.25 C17.248619079589844 6.015838623046883 17.248619079589844 6.015838623046883 17.2464599609375 9.43701171875 C17.257668762207004 10.732579956054687 17.268877563476508 12.028148193359375 17.280426025390625 13.36297607421875 C17.267514412530886 14.801884322182069 17.254100267941567 16.24078813144901 17.240234375 17.6796875 C17.24373464874043 19.192490871974947 17.2493921695293 20.705290571770533 17.257049560546875 22.21807861328125 C17.271321053588395 26.32978504890898 17.25421348159921 30.44082462830665 17.230764389038086 34.552467346191406 C17.2106881111946 38.85121946380292 17.216533258792424 43.14994300858393 17.2188720703125 47.44873046875 C17.218818463193884 54.66840645102083 17.19904070372229 61.88782102567585 17.1669921875 69.107421875 C17.130097766917174 77.45936676584924 17.121316226336603 85.81096910887142 17.128289699554443 94.16298484802246 C17.134590651261306 102.1907553154166 17.123848000837597 110.21840806334447 17.104324340820313 118.24615478515625 C17.096140471711806 121.6655647236228 17.09344260297405 125.08491457781489 17.095016479492188 128.50433349609375 C17.095894165382333 132.5296048183729 17.081710900466533 136.55454960474236 17.055789947509766 140.5797348022461 C17.04861569715922 142.05878873007944 17.046550568828934 143.53787736783528 17.049907684326172 145.0169448852539 C17.05361012889705 147.03231492384873 17.037064129812848 149.04769217315632 17.0194091796875 151.06298828125 C17.01568046569821 152.19197540283204 17.011951751709034 153.32096252441406 17.00811004638672 154.48416137695313 C16.625 157.25 16.625 157.25 15.233650207519531 159.09469604492188 C10.939554858700262 162.17863891627061 4.8254728814365535 161.46666356071307 -0.25 161.5 C-0.6386523437499818 161.5103125 -0.6386523437499818 161.5103125 -2.60546875 161.5625 C-7.958109033032656 161.59848413635652 -11.610291458581287 160.71321747049848 -16.375 158.25 C-18.16924733233236 156.4557526676677 -17.50902971148423 153.76318370285802 -17.51544189453125 151.34146118164063 C-17.5211520385742 150.05705642700195 -17.52686218261715 148.77265167236328 -17.532745361328125 147.44932556152344 C-17.533990851148246 146.0126038559096 -17.535115918977795 144.57588204184734 -17.5361328125 143.13916015625 C-17.540758576326084 141.6365089643932 -17.545782904870293 140.13385895382737 -17.551177978515625 138.63121032714844 C-17.564327402961453 134.53822389671745 -17.57075188369936 130.44525388653557 -17.575188636779785 126.35224962234497 C-17.57811530211052 123.79752790554639 -17.582219324509765 121.2428107219029 -17.586692810058594 118.68809127807617 C-17.600374501761394 110.70200833033977 -17.61003783622698 102.71593568788931 -17.61389470100403 94.72984182834625 C-17.618377128370867 85.49801463021245 -17.635930716437997 76.2663353708813 -17.6648952960968 67.03455317020416 C-17.686483046386343 59.90757809529835 -17.69659742425381 52.78064472737671 -17.697935819625854 45.653637290000916 C-17.69898595364839 41.39290081694545 -17.704937683083813 37.1323032773901 -17.722755432128906 32.87160110473633 C-17.739186017613633 28.864476737614773 -17.741416223854344 24.8575964782078 -17.732616424560547 20.85045051574707 C-17.731843342312118 19.377825782606543 -17.73622430514672 17.905188197848375 -17.746074676513672 16.43259620666504 C-17.758712598681655 14.425938946801256 -17.75115555469506 12.41918446094356 -17.74249267578125 10.412506103515625 C-17.743959236144974 9.28829568862915 -17.745425796508812 8.164085273742675 -17.746936798095703 7.005807876586914 C-17.375 4.25 -17.375 4.25 -16.039531707763672 2.4273433685302734 C-11.383725482633622 -0.8657645721308964 -5.44231330737307 0.02674355433598552 0 0 Z " fill="#000074" transform="translate(818.375,1.75)"/>
<path d="M0 0 C6.610285759902752 -0.1700395050778809 13.202572603116721 0.48074744731789565 19.6171875 2.125 C22.064661446474474 4.572473946474467 21.86941454253042 5.207324497827827 21.877883911132813 8.5660400390625 C21.8849687194824 9.499870147705082 21.892053527832047 10.433700256347656 21.89935302734375 11.395828247070313 C21.89687561035157 12.42342758178711 21.894398193359393 13.451026916503906 21.891845703125 14.509765625 C21.896956634521473 15.58949142456055 21.902067565917946 16.6692172241211 21.907333374023438 17.781661987304688 C21.92127901622979 21.364913746788858 21.920268999912253 24.9479742668413 21.91796875 28.53125 C21.921852652392204 31.012248457032655 21.926186680482203 33.49324624722516 21.930953979492188 35.9742431640625 C21.93842669476487 41.1796280283896 21.938117078638925 46.384945079689004 21.932861328125 51.59033203125 C21.927485886764998 56.94685056257087 21.934541257518617 62.30318025251988 21.953369140625 67.65966796875 C21.975767631231463 74.11345904337533 21.98363060472849 80.56709199580506 21.97969627380371 87.02091979980469 C21.980211352601827 89.48659310389849 21.985483777672016 91.95226999340531 21.995508193969727 94.41792297363281 C22.007781003220543 97.85887889791161 22.00113615134717 101.29928786164331 21.989501953125 104.740234375 C21.993323822021466 105.2540340423584 21.993323822021466 105.2540340423584 22.012664794921875 107.85417175292969 C22.005650482177714 108.78800186157227 21.99863616943361 109.72183197021485 21.991409301757813 110.6839599609375 C21.99157704353331 111.49807090759276 21.99174478530881 112.31218185424805 21.991917610168457 113.15096282958984 C21.86825667381288 113.8023950958252 21.744595737457303 114.45382736206057 21.6171875 115.125 C15.947283919813685 118.9049357201242 9.343829999241166 118.30759536218483 2.7421875 118.3125 C1.8823828124999977 118.32474609374998 1.0225781249999955 118.33699218750002 0.13671875 118.349609375 C-5.370001581294218 118.3621436397905 -10.129649277972362 117.83018396159213 -15.3828125 116.125 C-16.55941231809925 113.77180036380156 -16.51855710181536 112.35291255627416 -16.536712646484375 109.72865295410156 C-16.54531311035157 108.80468215942383 -16.553913574218768 107.8807113647461 -16.562774658203125 106.92874145507813 C-16.56703460693359 105.91206390380859 -16.571294555664053 104.89538635253905 -16.57568359375 103.847900390625 C-16.583861083984402 102.77953445434571 -16.592038574218748 101.71116851806642 -16.6004638671875 100.61042785644531 C-16.625338474027558 97.06450976414013 -16.64183652466886 93.5186316659551 -16.65625 89.97265625 C-16.66157367706296 88.76465299606323 -16.66689735412598 87.55664974212647 -16.672382354736328 86.31204032897949 C-16.699119042140865 79.92198190037567 -16.718494962365128 73.53194307606284 -16.73291015625 67.141845703125 C-16.749586755421603 60.52581172810213 -16.794388839778946 53.910273110844344 -16.84528160095215 47.294426918029785 C-16.878849434040205 42.22020358325483 -16.890475958873196 37.14609952203736 -16.896137237548828 32.07177543640137 C-16.902875435276712 29.632015360825477 -16.918163403616802 27.19226382173305 -16.942028045654297 24.75261116027832 C-16.97346588397545 21.345154254355606 -16.973748441253065 17.93905653609908 -16.96630859375 14.531494140625 C-16.982713928222665 13.516840820312495 -16.99911926269533 12.502187499999998 -17.016021728515625 11.456787109375 C-16.993184698341906 8.912435058149725 -16.94118274589391 6.607167068111465 -16.3828125 4.125 C-11.676100921002899 -0.021078757451519436 -5.986604039203485 0.31405135943362694 0 0 Z " fill="#000074" transform="translate(445.3828125,44.875)"/>
<path d="M0 0 C4.815925078839598 2.180796262116047 6.95340035129027 4.9887722115957445 9.3359375 9.51171875 C11.231266168476736 16.613626760704108 9.677595444986196 24.18288325567306 8.42578125 31.28125 C8.261521453857426 32.24550399780273 8.097261657714853 33.20975799560546 7.9280242919921875 34.20323181152344 C7.397321837823483 37.303557943008286 6.855389159782931 40.4017866929365 6.3125 43.5 C5.94570189799839 45.62373412401138 5.57916603889538 47.747513557423645 5.212890625 49.871337890625 C2.7111844535792216 64.29745503700201 0.04899833293774236 78.67850302269136 -3 93 C-3.990000000000009 93 -4.980000000000018 93 -6 93 C-9.55348730699825 75.25475294863853 -13.02040923471759 57.49624392558013 -16.04119873046875 39.6514892578125 C-16.30323760327616 38.10492315836305 -16.56772329081491 36.55876943337526 -16.83477783203125 35.0130615234375 C-20.576878424758206 13.276841779804386 -20.576878424758206 13.276841779804386 -16.25390625 5.73046875 C-12.065015902804873 -0.05046091918208617 -6.690030218852144 -1.1530393195867248 0 0 Z " fill="#D56839" transform="translate(333,133)"/>
<path d="M0 0 C0.611660156250025 -0.008056640625 0.611660156250025 -0.008056640625 3.70703125 -0.048828125 C4.296777343750023 -0.04915039062500004 4.296777343750023 -0.04915039062500004 7.28125 -0.05078125 C7.817822265625011 -0.052271728515625004 7.817822265625011 -0.052271728515625004 10.533203125 -0.059814453125 C14.025388868282619 0.37843301712730204 15.848147444539052 0.980100505195769 18.5 3.3125 C19.099365234375 6.283447265625018 19.099365234375 6.283447265625018 19.05859375 9.87890625 C19.05150390624999 11.16861328125 19.044414062499982 12.4583203125 19.037109375 13.787109375 C19.020593261718773 14.45766357421875 19.00407714843749 15.1282177734375 18.987060546875 15.819091796875 C18.937583208644185 17.871548275897382 18.925577520552793 19.92161003932886 18.919921875 21.974609375 C18.794314368034463 32.01818563196555 18.794314368034463 32.01818563196555 16.5 34.3125 C11.119699969479882 35.75285473056999 5.653145582533625 35.496518800010996 0.125 35.5 C-0.3828906250000159 35.506123046875004 -0.3828906250000159 35.506123046875004 -2.953125 35.537109375 C-8.482014483497494 35.547879938928894 -13.3529083104346 35.446487050357 -18.5 33.3125 C-19.546303606238666 30.17358918128399 -19.62914393908494 27.94956954147191 -19.6328125 24.65625 C-19.634101562500007 23.5515234375 -19.635390625000014 22.446796875 -19.63671875 21.30859375 C-19.63285156249998 20.1548828125 -19.628984375000016 19.001171875 -19.625 17.8125 C-19.62886718750002 16.6587890625 -19.632734374999984 15.505078125 -19.63671875 14.31640625 C-19.635429687499993 13.2116796875 -19.634140624999986 12.106953125 -19.6328125 10.96875 C-19.631684570312473 9.95619140625 -19.630556640625002 8.943632812499999 -19.62939453125 7.900390625 C-19.5 5.3125 -19.5 5.3125 -18.5 2.3125 C-12.755509031272936 -0.77587357000185 -6.340816566126648 -0.01670394248189322 0 0 Z " fill="#D46939" transform="translate(448.5,0.6875)"/>
</svg>
