<?xml version="1.0" encoding="UTF-8"?>
<!-- Generator: visioncortex VTracer 0.6.12 -->
<svg version="1.1" xmlns="http://www.w3.org/2000/svg" width="430" height="964">
<path d="M0 0 C8.966825977305149 8.406399353723572 13.263217945952704 19.574587244819412 17 31 C17.27585937500001 31.827578125000002 17.551718749999992 32.655156250000005 17.8359375 33.5078125 C18.298065270883313 34.89419581264997 18.75642148462518 36.28184630802701 19.209716796875 37.671142578125 C20.040233734818486 40.11856336003507 20.95435043911931 42.52503644055224 21.87109375 44.94140625 C24.18074050431767 51.27594050362825 25.8644250442878 57.71417953464413 27.5 64.25 C28.111254826104442 66.66424600898591 28.72322689649826 69.07831054151666 29.3359375 71.4921875 C29.624365234375006 72.63139648437499 29.91279296875001 73.77060546874998 30.2099609375 74.9443359375 C30.827430402479195 77.33254601898307 31.470068866810948 79.70368085433347 32.1640625 82.0703125 C37.486688448811265 100.37495295810703 39.95991252976353 119.50135768872133 41.8125 138.4375 C41.93633056640624 139.6853125 42.06016113281248 140.93312500000002 42.187744140625 142.21875 C43.24345153591588 153.84007644117116 43.39537485219421 165.22471870193107 42 176.8125 C38.321986246297456 212.39529852727674 38.321986246297456 212.39529852727674 45.05859375 221.8671875 C45.699257812500036 222.57101562499997 46.33992187499996 223.27484375 47 224 C47.69222656249997 224.76570312499996 48.38445312499999 225.53140625000003 49.09765625 226.3203125 C57.24141034897366 234.34170635374699 67.56606192636752 239.64792474818796 77.5625 245 C101.68411854103346 258.0523556231003 101.68411854103346 258.0523556231003 105 268 C105.58503966214357 275.7745638955112 104.50160318986838 283.0455528636834 102.875 290.625 C102.65271728515626 291.6960498046875 102.43043457031251 292.767099609375 102.201416015625 293.87060546875 C98.94368919561396 309.3349410899448 95.17699763077792 324.6692202366636 91.081787109375 339.93115234375 C89.91870111146312 344.2855557657133 88.7944184903846 348.6496210241148 87.67578125 353.015625 C87.48161117553707 353.77330169677737 87.28744110107425 354.53097839355473 87.08738708496094 355.3116149902344 C86.29092975845936 358.4221764702892 85.49565205688054 361.5330382955008 84.700927734375 364.64404296875 C84.11012363809954 366.9556379939369 83.51802032678427 369.2668972785864 82.92578125 371.578125 C82.74662673950195 372.2811676025391 82.5674722290039 372.98421020507817 82.38288879394531 373.70855712890625 C81.66516094824533 376.50770653466293 80.91421990064333 379.25734029806995 80 382 C72.01798854415699 381.551382176925 65.35787234298795 379.18819361741726 57.9375 376.3125 C55.54316338358615 375.3966264306971 53.14863263962576 374.48126019816743 50.75390625 373.56640625 C49.600356445312514 373.12312988281246 48.44680664062503 372.6798535156249 47.25830078125 372.22314453125 C44.42580548890362 371.1598445601235 41.586982898736835 370.1643437977991 38.71484375 369.21484375 C37.96662353515626 368.96114013671877 37.21840332031252 368.70743652343754 36.447509765625 368.446044921875 C34.519303001986714 367.7984636422034 32.5841034927347 367.17180699765436 30.6484375 366.546875 C28 365 28 365 27.046875 362.22265625 C26.99866759052958 358.90839684890943 27.29347996643557 355.94958840746085 27.875 352.6875 C28.065781249999986 351.54925781249995 28.2565625 350.411015625 28.453125 349.23828125 C28.63359374999999 348.1696484375 28.814062500000006 347.10101562499995 29 346 C31.463161692914525 329.1594705995301 30.427452094037903 312.95569160709204 20.3671875 298.68359375 C14.425087443931432 291.4010664719811 6.360116165095093 285.67293065875407 -3 284 C-14.962225267697619 282.9340591345616 -23.524742913640353 284.33523532765827 -33 291.75 C-33.72187500000001 292.36359375 -34.443749999999994 292.9771875 -35.1875 293.609375 C-37 295 -37 295 -39 295 C-39.28874999999999 295.76312499999995 -39.577499999999986 296.52625 -39.875 297.3125 C-41 300 -41 300 -43 303 C-43.66 303 -44.31999999999999 303 -45 303 C-45.12294433593752 303.7217944335937 -45.24588867187498 304.4435888671875 -45.37255859375 305.187255859375 C-45.996940157155365 307.98628309361357 -46.92819450891221 310.36540636072027 -48.0390625 313.00390625 C-50.400687001332216 319.3824296203402 -50.52595037899226 325.1963738644772 -50.375 331.9375 C-50.37371093749999 333.02740234375005 -50.372421874999986 334.1173046875 -50.37109375 335.240234375 C-50.30156525281109 341.74114886216455 -49.6150326339515 347.8689538361391 -48.43212890625 354.256103515625 C-47.85856294784713 357.8980853272012 -47.8585290696239 361.32175581022136 -48 365 C-56.54080703978485 368.5058334573789 -65.1162507542951 371.8007538778918 -73.8466796875 374.8056640625 C-79.15115376145582 376.6486819759084 -84.28286575959024 378.7683810586826 -89.38671875 381.1171875 C-92.38425341764099 382.1298075820432 -94.85707133371955 382.15645618543704 -98 382 C-100.55518282345392 374.18494615167015 -102.67475941400151 366.38149914840335 -104.4990234375 358.371337890625 C-105.53372464138657 353.8689757807307 -106.69668963317818 349.4343098808664 -108 345 C-109.71151347649534 339.1634716211702 -111.14280231610495 333.29883176169324 -112.502197265625 327.37353515625 C-113.54765049850344 322.84272907741035 -114.69860488643491 318.3579096277997 -115.9375 313.875 C-126.66897205878999 273.6854233654877 -126.66897205878999 273.6854233654877 -121.59765625 263.0625 C-118.74358324184837 259.1654725227864 -115.49880254595953 255.92805823398265 -111 254 C-110.34 254 -109.68 254 -109 254 C-109 253.33999999999997 -109 252.68 -109 252 C-108.7202734375 251.86593749999997 -108.7202734375 251.86593749999997 -107.3046875 251.1875 C-98.00799592848239 246.64377936054444 -88.96666293569893 241.57866427884733 -80.25 236 C-77 234 -77 234 -75 234 C-75 233.34000000000003 -75 232.68 -75 232 C-73.39062499999997 230.66796875 -73.39062499999997 230.66796875 -71.25 229.1875 C-65.06285248832859 224.67785375029587 -60.25361636320031 218.70106136200116 -58.25 211.1875 C-56.50847457627117 188.98305084745766 -56.50847457627117 188.98305084745766 -60 182 C-60.094452926016515 180.56039303821956 -60.12793967531809 179.11652956432624 -60.12939453125 177.673828125 C-60.13254669189453 176.77950073242187 -60.135698852539065 175.88517333984373 -60.138946533203125 174.9637451171875 C-60.13692230224609 173.99602172851564 -60.13489807128906 173.0282983398438 -60.1328125 172.03125 C-60.13376922607421 171.04000122070312 -60.13472595214844 170.04875244140624 -60.135711669921875 169.0274658203125 C-60.13639292590969 166.9292799543599 -60.13454242939633 164.8310919863476 -60.13037109375 162.73291015625 C-60.12502209369674 159.5132983969259 -60.13031794006335 156.2938261481301 -60.13671875 153.07421875 C-60.13605795887821 151.03906219074213 -60.134776776357 149.00390571860078 -60.1328125 146.96875 C-60.13483673095703 146.00102661132814 -60.13686096191407 145.0333032226563 -60.138946533203125 144.0362548828125 C-60.13737045288087 143.58909118652343 -60.13737045288087 143.58909118652343 -60.12939453125 141.326171875 C-60.12859893798827 140.5372253417969 -60.12780334472657 139.74827880859374 -60.126983642578125 138.9354248046875 C-60 137 -60 137 -59 135 C-58.80271824250622 133.3678428287567 -58.655631725234 131.72946040743795 -58.53515625 130.08984375 C-58.457167968750014 129.09919921874996 -58.3791796875 128.10855468750003 -58.298828125 127.087890625 C-58.143337565671004 125.01511151592814 -57.989642034546534 122.94219683715289 -57.837890625 120.869140625 C-57.351296042555646 114.73330162198215 -56.45568756612158 108.97106560141196 -55 103 C-54.5514023870702 100.95021728782444 -54.107782537835334 98.89934161025633 -53.66796875 96.84765625 C-50.82591597225357 83.7772838872512 -47.83443504412065 70.8170159213912 -44 58 C-43.662265625 56.87078124999999 -43.32453125000001 55.741562499999986 -42.9765625 54.578125 C-42.33495797677068 52.47366216380783 -41.68418416276836 50.37196890095231 -41.0234375 48.2734375 C-40.27741125909682 45.88729250046998 -39.55509112946993 43.50011518183675 -38.8515625 41.1015625 C-36.25534690411803 32.35294405855413 -33.12876745825599 24.169454544069197 -29 16 C-28.794394531249992 15.583632812500014 -28.794394531249992 15.583632812500014 -27.75390625 13.4765625 C-24.532612246212523 7.28745336485423 -20.56818355331029 1.088692811693818 -14.4375 -2.5 C-8.718773582578649 -3.673072085624881 -4.952180410429207 -3.198283181735519 0 0 Z " fill="#010175" transform="translate(226,218)"/>
<path d="M0 0 C9.915395786827219 7.055738161350973 15.982828698493108 16.286837549151983 19 28 C19.472502367810648 31.118032425713068 19.570413787187704 34.161290817149506 19.5625 37.3125 C19.562983398437495 38.22330322265623 19.56346679687499 39.134106445312455 19.56396484375 40.072509765625 C19.263863829558773 53.39677889570578 16.495915870354906 66.53410669263417 14.11090087890625 79.60960388183594 C13.020200737210672 85.67188246075943 12.180063920992325 91.74843240812595 11.419189453125 97.860107421875 C10.951651350982104 101.36215024753596 10.292201302089723 104.78750789791889 9.5625 108.2421875 C7.618034148057518 117.77547146855125 6.089227968310411 127.40214616255003 4.5 137 C3.505720482462465 143.00477066423718 2.490350084728931 149.0052005379721 1.4375 155 C1.2093359374999864 156.29937500000005 0.9811718750000011 157.59875 0.74609375 158.9375 C0.21193401794235456 161.90692916983153 -0.37189627775913436 164.86366531103545 -0.97265625 167.8203125 C-2.048730498751155 173.15438456804122 -2.966240942449332 178.51031548723267 -3.875 183.875 C-5.339293965085034 192.4279821701682 -6.933586797823267 200.9436598090034 -8.69287109375 209.44091796875 C-9.415893442481263 212.95497006242942 -10.08520541383973 216.44173496868575 -10.55078125 220 C-11 223 -11 223 -12 224 C-12.54054455356436 227.55214992342303 -12.966610607212488 231.11326665062995 -13.40234375 234.6796875 C-14 238 -14 238 -16 241 C-17.319999999999993 240.66999999999996 -18.639999999999986 240.34000000000003 -20 240 C-20.14510009765624 239.2243872070312 -20.290200195312508 238.44877441406254 -20.439697265625 237.649658203125 C-21.146922538348377 233.87053507653889 -21.854624304082932 230.09150133411663 -22.5625 226.3125 C-22.62888671875001 225.95800277709964 -22.62888671875001 225.95800277709964 -22.96484375 224.16403198242188 C-24.54906287762134 215.70649428703803 -26.139621442811688 207.2502163076499 -27.74609375 198.796875 C-33.27150807127086 169.71858902878716 -38.64726688762727 140.63151268508113 -43.4384765625 111.421875 C-44.28564494913746 106.25930451864747 -45.14168233404462 101.09822694462241 -46 95.9375 C-46.156540527343736 94.99302001953129 -46.3130810546875 94.04854003906246 -46.474365234375 93.075439453125 C-47.39936239072813 87.5184383271735 -48.35171773881956 81.96686320964159 -49.32421875 76.41796875 C-49.55044921875 75.12318603515621 -49.77667968750001 73.82840332031253 -50.009765625 72.494384765625 C-50.44925809423111 69.98519307079653 -50.891781567099144 67.47652964322674 -51.337890625 64.968505859375 C-54.663113768850366 45.97462941109552 -56.887223887901996 26.579795417165997 -45.3125 9.875 C-34.15010381182395 -4.176157010744248 -16.163660866985822 -8.897207984646514 0 0 Z " fill="#D36B3E" transform="translate(233,510)"/>
<path d="M0 0 C1.3122349611184063 3.936704883355276 0.24296255756149776 6.12488143819067 -1 10 C-1.6599999999999966 10 -2.319999999999993 10 -3 10 C-3.0547851562500057 10.291328125000007 -3.0547851562500057 10.291328125000007 -3.33203125 11.765625 C-4.843883844181022 19.5830091455214 -6.479536785122889 27.43861035536861 -9 35 C-9.659999999999997 35 -10.319999999999993 35 -11 35 C-10.958750000000009 36.23750000000001 -10.917500000000018 37.47500000000002 -10.875 38.75 C-10.875 42.14654439973941 -11.325775055338 44.02360009837872 -13 47 C-13.516314526749994 48.968449133234344 -14.029802684969752 50.9379972437398 -14.5 52.91796875 C-15.456678920524837 56.90163956749802 -16.555335567511122 60.823455976293985 -18.00390625 64.65625 C-19.43035388592807 69.44463892688003 -19.725398387576092 74.22707881752888 -20.123046875 79.19140625 C-20.561950065966982 83.84931579017217 -21.50645889327359 87.70245490588354 -23.266845703125 92.0302734375 C-24.496023835045207 95.332640792922 -25.054734699712753 98.72030311764485 -25.625 102.1875 C-25.749797363281232 102.91638427734375 -25.87459472656252 103.6452685546875 -26.003173828125 104.396240234375 C-27.074637712318918 110.90963150385119 -27.667425590663242 117.40585222866764 -28 124 C-28.659999999999997 124 -29.319999999999993 124 -30 124 C-30 136.87 -30 149.74 -30 163 C-29.340000000000003 163 -28.680000000000007 163 -28 163 C-27.083426147796388 170.75814296329474 -26.838095192019694 178.50700688355028 -26.75 186.3125 C-26.739365234374986 186.78373291015623 -26.739365234374986 186.78373291015623 -26.685546875 189.16845703125 C-26.656965193339545 194.9327697575544 -27.32215027685544 198.8809791908575 -30 204 C-30.329999999999984 204.65999999999997 -30.659999999999997 205.32 -31 206 C-31.659999999999997 206 -32.31999999999999 206 -33 206 C-33.2578125 206.58394531249996 -33.515625 207.16789062500004 -33.78125 207.76953125 C-35.096983638014024 210.1774924913654 -36.54158592320567 211.77472692923266 -38.5 213.6875 C-39.10843750000001 214.2894921875 -39.716875000000016 214.891484375 -40.34375 215.51171875 C-42 217 -42 217 -44 218 C-44.329999999999984 218.99 -44.66 219.98000000000002 -45 221 C-47.641396596706784 222.45017852368215 -50.270875812076014 223.73073421869208 -53 225 C-55.25415631211001 226.09565658321958 -57.50381181066757 227.20059953418428 -59.75 228.3125 C-60.34611083984376 228.60745361328122 -60.94222167968749 228.9024072265625 -61.556396484375 229.206298828125 C-66.74589201261085 231.80557494785216 -71.71221766890375 234.69793989218078 -76.671875 237.71484375 C-78.99999999999999 239 -78.99999999999999 239 -81 239 C-81 239.65999999999997 -81 240.32 -81 241 C-82.97946592078449 242.36363207876263 -84.98192449935904 243.69418644076177 -87 245 C-90.35756357038139 247.778673299626 -90.80744409199157 250.2422396397517 -91.2734375 254.49609375 C-91.62357352468686 264.6365716957385 -89.10967029458013 273.7746390217323 -86.61083984375 283.5302734375 C-85.79278729920394 286.8377952363121 -85.13638300433342 290.1525518269167 -84.5 293.5 C-83.14446774328155 300.52553003910646 -81.49922415400883 307.46789870721545 -79.80078125 314.41796875 C-78.5584617454829 319.52877683820327 -77.43932451810495 324.644591757129 -76.449462890625 329.810546875 C-75.80925029973989 332.92919245623716 -74.9196873530445 335.95353564304014 -74 339 C-73.703515625 340.07378906250005 -73.40703125 341.147578125 -73.1015625 342.25390625 C-71.64039580300171 347.2229093082317 -69.82535457099004 352.0369061845008 -68.0234375 356.890625 C-67 360 -67 360 -67 363 C-62.482066809498235 361.51067281456153 -57.9655411102716 360.01717290939393 -53.4501953125 358.52001953125 C-51.918336145769814 358.0127238769171 -50.38611761816796 357.50651188922006 -48.853515625 357.00146484375 C-33.23612094988988 351.8534333092 -33.23612094988988 351.8534333092 -25.87841796875 348.6728515625 C-24 348 -24 348 -21 348 C-21.090878906249998 347.3317016601562 -21.181757812499995 346.66340332031245 -21.275390625 345.974853515625 C-27.285987254850994 301.0610554937191 -27.285987254850994 301.0610554937191 -18.3046875 284.9609375 C-16.35627426525184 282.4130125007139 -14.30646293285048 280.22651621074124 -12 278 C-11.245898437499989 277.1891796875 -10.491796875000006 276.378359375 -9.71484375 275.54296875 C-1.2775537459064594 267.050802062953 8.061875436407888 264.6749595409574 19.75 264.5625 C32.28569601316369 264.79438691149653 38.157579441008096 268.18812320805125 47 277 C47.7566796875 277.7128515625 48.51335937499999 278.4257031249999 49.29296875 279.16015625 C51 281 51 281 51 283 C51.61617187499999 283.2307421875 52.23234375000001 283.46148437500005 52.8671875 283.69921875 C55.62980627799206 285.38411262009413 56.048882253880805 286.7966574089853 57.125 289.8125 C57.436953125 290.6645703125 57.748906250000005 291.51664062500004 58.0703125 292.39453125 C58.377109375 293.25433593749995 58.68390625000001 294.114140625 59 295 C59.34804687500002 295.7876171875 59.69609374999999 296.57523437500004 60.0546875 297.38671875 C64.96679494089051 310.96605708866014 61.70261961882454 328.0141959882268 60 342 C59.34000000000003 342 58.68000000000001 342 58 342 C58 343.98 58 345.96000000000004 58 348 C59.11374999999998 348.103125 60.227499999999964 348.20624999999995 61.375 348.3125 C66.4355430159768 348.92919699836284 71.16622643215135 350.4250614809673 76 352 C76 352.6600000000001 76 353.31999999999994 76 354 C76.72453369140624 354.13285400390623 77.44906738281247 354.26570800781246 78.195556640625 354.402587890625 C80.84103775989729 354.96613732031597 83.31030129161081 355.694032162181 85.87109375 356.55859375 C86.77537109374998 356.86216796875 87.67964843749996 357.1657421875 88.611328125 357.478515625 C89.54396484375002 357.79498046875005 90.47660156250004 358.1114453125 91.4375 358.4375 C92.36626953125 358.75009765625 93.2950390625 359.06269531249995 94.251953125 359.384765625 C96.04060449797589 359.98692370287733 97.82887283830195 360.59022111077286 99.61669921875 361.19482421875 C102.40844695722609 362.13798996772505 105.20352419524289 363.07095378105737 108 364 C108.05156249999999 363.45343750000006 108.05156249999999 363.45343750000006 108.3125 360.6875 C108.99538962882991 355.2992201889582 110.52352755446418 350.2160624920159 112 345 C114.92843301983714 334.4349630277593 117.54574236403346 323.94861088882703 119.32421875 313.125 C120 310 120 310 122 307 C122.61557429629624 304.7757177015242 123.1572060527294 302.5306343651374 123.65625 300.27734375 C123.80404907226563 299.617227935791 123.95184814453125 298.957112121582 124.1041259765625 298.27699279785156 C124.57532785717302 296.1650919740234 125.03764723627694 294.0513536939975 125.5 291.9375 C125.81064381497333 290.54219423045106 126.121836293949 289.147010492607 126.43359375 287.751953125 C127.30535644022638 283.8380744183596 128.1545550667663 279.9196472408148 129 276 C129.21551513671875 275.0260327148437 129.4310302734375 274.0520654296875 129.653076171875 273.048583984375 C130.7273623628946 268.0200409775952 131.29633271303788 263.3340863496035 131.3125 258.1875 C131.32087890625002 257.56552734375 131.32087890625002 257.56552734375 131.36328125 254.41796875 C130.8587517516134 249.67105142647006 129.41625508238144 247.22963663289795 125.8359375 244.12109375 C120.42974990122207 240.42257493242334 115.11144787455396 237.37667417343766 109 235 C109 234.34000000000003 109 233.68 109 233 C108.21625 232.690625 107.4325 232.38125000000002 106.625 232.0625 C104.00000000000006 231 104.00000000000006 231 102 230 C102 229.34000000000003 102 228.68 102 228 C100.9906640625 227.75636718750002 99.981328125 227.51273437500004 98.94140625 227.26171875 C94.82176256109517 226.07919964332314 91.49999458464083 224.1565949497451 87.9375 221.8125 C87.32334228515629 221.41393798828125 86.70918457031246 221.0153759765625 86.076416015625 220.604736328125 C82.15263694068051 217.9796174576402 79.00917829147318 215.28949918736907 76.1640625 211.484375 C75 210 75 210 72.3125 207.9375 C68.47175933947062 204.71958214928617 67.12590287644446 201.3377293438425 66.659423828125 196.38134765625 C66.67513427734377 195.0721435546875 66.69084472656249 193.762939453125 66.70703125 192.4140625 C66.71127609252926 191.71227874755857 66.71552093505863 191.0104949951172 66.71989440917969 190.28744506835938 C66.73656401171002 188.06622440064382 66.77419127828239 185.8459421181932 66.8125 183.625 C66.8275621181383 182.11069027319206 66.84124784354862 180.5963661923579 66.853515625 179.08203125 C66.8864281700823 175.3877206798777 66.93812741331476 171.6939520727646 67 168 C67.65999999999997 168 68.32 168 69 168 C68.90661941242934 161.2960762109974 68.79919253363164 154.59247618600762 68.6826171875 147.888916015625 C68.64465488522399 145.61487759496458 68.60974910340298 143.34078578481723 68.578125 141.066650390625 C68.25563279806892 118.15458723155348 68.25563279806892 118.15458723155348 66.427734375 107.015625 C65.76509157975943 102.34384200524448 65.82387662103338 97.70640807127427 66 93 C66.33000000000004 93 66.65999999999997 93 67 93 C70.33024655038344 114.51339271547681 73.57874206868092 136.41156197651708 71.2783203125 158.177734375 C67.25169382717803 196.29646510271436 67.25169382717803 196.29646510271436 74.05859375 205.8671875 C74.69925781250004 206.57101562499997 75.33992187499996 207.27484375 76 208 C76.69222656249997 208.76570312499996 77.384453125 209.53140625000003 78.09765625 210.3203125 C86.24141034897366 218.34170635374699 96.56606192636758 223.64792474818796 106.5625 229 C130.68411854103346 242.0523556231003 130.68411854103346 242.0523556231003 134 252 C134.58503966214357 259.7745638955113 133.50160318986838 267.0455528636834 131.875 274.625 C131.65271728515626 275.6960498046875 131.4304345703125 276.767099609375 131.201416015625 277.87060546875 C127.94368919561396 293.3349410899448 124.17699763077798 308.6692202366635 120.081787109375 323.93115234375 C118.91870111146318 328.2855557657133 117.7944184903846 332.6496210241148 116.67578125 337.015625 C116.48161117553707 337.77330169677737 116.28744110107425 338.53097839355473 116.08738708496094 339.3116149902344 C115.29092975845936 342.4221764702892 114.49565205688054 345.5330382955009 113.700927734375 348.64404296875 C113.1101236380996 350.95563799393676 112.51802032678427 353.2668972785864 111.92578125 355.578125 C111.74662673950195 356.2811676025391 111.5674722290039 356.98421020507817 111.38288879394531 357.70855712890625 C110.66516094824533 360.50770653466293 109.91421990064327 363.25734029807006 109 366 C101.01798854415699 365.551382176925 94.35787234298795 363.18819361741726 86.9375 360.3125 C84.54316338358615 359.3966264306971 82.14863263962576 358.48126019816743 79.75390625 357.56640625 C78.60035644531251 357.12312988281246 77.44680664062503 356.6798535156249 76.25830078125 356.22314453125 C73.42580548890362 355.1598445601235 70.58698289873689 354.1643437977991 67.71484375 353.21484375 C66.96662353515626 352.96114013671877 66.21840332031252 352.70743652343754 65.447509765625 352.446044921875 C63.519303001986714 351.7984636422034 61.5841034927347 351.17180699765436 59.6484375 350.546875 C57 349 57 349 56.046875 346.22265625 C55.99866759052961 342.90839684890966 56.2934799664356 339.9495884074606 56.875 336.6875 C57.065781249999986 335.54925781249995 57.2565625 334.411015625 57.453125 333.23828125 C57.63359374999999 332.1696484375 57.814062500000006 331.10101562499995 58 330 C60.463161692914525 313.1594705995301 59.4274520940379 296.95569160709204 49.3671875 282.68359375 C43.42508744393143 275.4010664719811 35.36011616509509 269.67293065875407 26 268 C14.037774732302381 266.9340591345616 5.4752570863596475 268.3352353276582 -4 275.75 C-4.721875000000011 276.36359375 -5.443749999999994 276.9771875 -6.1875 277.609375 C-8 279 -8 279 -10 279 C-10.288749999999993 279.76312499999995 -10.577499999999986 280.52625 -10.875 281.3125 C-12 284 -12 284 -14 287 C-14.659999999999997 287 -15.319999999999993 287 -16 287 C-16.122944335937518 287.7217944335937 -16.24588867187498 288.4435888671875 -16.37255859375 289.187255859375 C-16.996940157155365 291.98628309361357 -17.928194508912213 294.36540636072027 -19.0390625 297.00390625 C-21.400687001332244 303.3824296203403 -21.525950378992263 309.1963738644771 -21.375 315.9375 C-21.373710937499993 317.02740234375005 -21.372421874999986 318.1173046875 -21.37109375 319.240234375 C-21.301565252811088 325.74114886216455 -20.6150326339515 331.8689538361391 -19.43212890625 338.256103515625 C-18.858562947847133 341.8980853272012 -18.8585290696239 345.32175581022136 -19 349 C-27.540807039784852 352.5058334573789 -36.116250754295095 355.8007538778918 -44.8466796875 358.8056640625 C-50.15115376145582 360.6486819759084 -55.28286575959024 362.7683810586826 -60.38671875 365.1171875 C-63.38425341764105 366.1298075820432 -65.85707133371952 366.15645618543704 -69 366 C-71.55518282345392 358.18494615167015 -73.67475941400151 350.38149914840335 -75.4990234375 342.371337890625 C-76.53372464138658 337.8689757807306 -77.69668963317817 333.4343098808665 -79 329 C-80.71151347649534 323.1634716211702 -82.14280231610495 317.29883176169324 -83.502197265625 311.37353515625 C-84.54765049850342 306.84272907741047 -85.69860488643492 302.3579096277997 -86.9375 297.875 C-97.66897205879 257.68542336548774 -97.66897205879 257.68542336548774 -92.59765625 247.0625 C-89.7435832418484 243.16547252278644 -86.49880254595953 239.92805823398265 -82 238 C-81.34 238 -80.68 238 -80 238 C-80 237.34000000000003 -80 236.68 -80 236 C-79.7202734375 235.86593749999997 -79.7202734375 235.86593749999997 -78.3046875 235.1875 C-69.00799592848239 230.64377936054444 -59.966662935698935 225.57866427884733 -51.25 220 C-48 218 -48 218 -46 218 C-46 217.34000000000003 -46 216.68 -46 216 C-44.39062499999997 214.66796875 -44.39062499999997 214.66796875 -42.25 213.1875 C-36.06285248832859 208.67785375029587 -31.253616363200308 202.70106136200116 -29.25 195.1875 C-27.50847457627117 172.9830508474576 -27.50847457627117 172.9830508474576 -31 166 C-31.094452926016515 164.56039303821956 -31.12793967531809 163.11652956432624 -31.12939453125 161.673828125 C-31.132546691894532 160.77950073242187 -31.135698852539065 159.88517333984373 -31.138946533203125 158.9637451171875 C-31.13692230224609 157.99602172851564 -31.134898071289058 157.0282983398438 -31.1328125 156.03125 C-31.133769226074207 155.04000122070312 -31.134725952148443 154.04875244140624 -31.135711669921875 153.0274658203125 C-31.13639292590969 150.9292799543599 -31.134542429396333 148.8310919863476 -31.13037109375 146.73291015625 C-31.125022093696742 143.5132983969259 -31.13031794006335 140.2938261481301 -31.13671875 137.07421875 C-31.13605795887821 135.03906219074213 -31.134776776357 133.00390571860078 -31.1328125 130.96875 C-31.134836730957034 130.00102661132814 -31.136860961914067 129.0333032226563 -31.138946533203125 128.0362548828125 C-31.137370452880873 127.58909118652343 -31.137370452880873 127.58909118652343 -31.12939453125 125.326171875 C-31.128598937988272 124.5372253417969 -31.127803344726573 123.74827880859374 -31.126983642578125 122.9354248046875 C-31 121 -31 121 -30 119 C-29.802718242506216 117.3678428287567 -29.655631725234002 115.72946040743795 -29.53515625 114.08984375 C-29.457167968750014 113.09919921875002 -29.3791796875 112.10855468750003 -29.298828125 111.087890625 C-29.143337565671004 109.01511151592814 -28.989642034546534 106.94219683715289 -28.837890625 104.869140625 C-28.351296042555646 98.73330162198215 -27.45568756612161 92.97106560141202 -26 87 C-25.551402387070198 84.95021728782444 -25.107782537835334 82.89934161025633 -24.66796875 80.84765625 C-21.82591597225357 67.7772838872512 -18.834435044120653 54.8170159213912 -15 42 C-14.662265625000003 40.87078124999999 -14.324531250000007 39.741562499999986 -13.9765625 38.578125 C-13.334957976770681 36.47366216380783 -12.68418416276836 34.37196890095231 -12.0234375 32.2734375 C-11.277411259096823 29.887292500469982 -10.555091129469929 27.500115181836748 -9.8515625 25.1015625 C-7.245049618030009 16.326477280458448 -4.093359072451904 8.214851196948132 0 0 Z " fill="#D1D1E5" transform="translate(197,234)"/>
<path d="M0 0 C9.915395786827219 7.055738161350973 15.982828698493108 16.286837549151983 19 28 C19.472502367810648 31.118032425713068 19.570413787187704 34.161290817149506 19.5625 37.3125 C19.562983398437495 38.22330322265623 19.56346679687499 39.134106445312455 19.56396484375 40.072509765625 C19.263863829558773 53.39677889570578 16.495915870354906 66.53410669263417 14.11090087890625 79.60960388183594 C13.020200737210672 85.67188246075943 12.180063920992325 91.74843240812595 11.419189453125 97.860107421875 C10.951651350982104 101.36215024753596 10.292201302089723 104.78750789791889 9.5625 108.2421875 C7.618034148057518 117.77547146855125 6.089227968310411 127.40214616255003 4.5 137 C3.505720482462465 143.00477066423718 2.490350084728931 149.0052005379721 1.4375 155 C1.2093359374999864 156.29937500000005 0.9811718750000011 157.59875 0.74609375 158.9375 C0.21193401794235456 161.90692916983153 -0.37189627775913436 164.86366531103545 -0.97265625 167.8203125 C-2.048730498751155 173.15438456804122 -2.966240942449332 178.51031548723267 -3.875 183.875 C-5.339293965085034 192.4279821701682 -6.933586797823267 200.9436598090034 -8.69287109375 209.44091796875 C-9.415893442481263 212.95497006242942 -10.08520541383973 216.44173496868575 -10.55078125 220 C-11 223 -11 223 -12 224 C-12.54054455356436 227.55214992342303 -12.966610607212488 231.11326665062995 -13.40234375 234.6796875 C-14 238 -14 238 -16 241 C-17.319999999999993 240.66999999999996 -18.639999999999986 240.34000000000003 -20 240 C-20.14510009765624 239.2243872070312 -20.290200195312508 238.44877441406254 -20.439697265625 237.649658203125 C-21.146922538348377 233.87053507653889 -21.854624304082932 230.09150133411663 -22.5625 226.3125 C-22.62888671875001 225.95800277709964 -22.62888671875001 225.95800277709964 -22.96484375 224.16403198242188 C-24.54906287762134 215.70649428703803 -26.139621442811688 207.2502163076499 -27.74609375 198.796875 C-33.27150807127086 169.71858902878716 -38.64726688762727 140.63151268508113 -43.4384765625 111.421875 C-44.28564494913746 106.25930451864747 -45.14168233404462 101.09822694462241 -46 95.9375 C-46.156540527343736 94.99302001953129 -46.3130810546875 94.04854003906246 -46.474365234375 93.075439453125 C-47.39936239072813 87.5184383271735 -48.35171773881956 81.96686320964159 -49.32421875 76.41796875 C-49.55044921875 75.12318603515621 -49.77667968750001 73.82840332031253 -50.009765625 72.494384765625 C-50.44925809423111 69.98519307079653 -50.891781567099144 67.47652964322674 -51.337890625 64.968505859375 C-54.663113768850366 45.97462941109552 -56.887223887901996 26.579795417165997 -45.3125 9.875 C-34.15010381182395 -4.176157010744248 -16.163660866985822 -8.897207984646514 0 0 Z M-38 5 C-38.65226562500001 5.505312499999945 -39.30453125 6.0106250000000045 -39.9765625 6.53125 C-46.9382725249736 12.337612403807725 -49.72831710940844 22.25718012718289 -51 31 C-51.09302593279858 33.719640505935445 -51.139853668591115 36.40677864782651 -51.125 39.125 C-51.12886718749999 39.84042968749998 -51.13273437500001 40.555859374999955 -51.13671875 41.29296875 C-51.130796542347696 44.46134984398657 -51.008966182573516 46.97310145227948 -50 50 C-49.7514952720299 51.74308824211357 -49.54033416874785 53.491622883455875 -49.3515625 55.2421875 C-49.29323242187499 55.770139160156305 -49.29323242187499 55.770139160156305 -48.998046875 58.44189453125 C-48.87494140625 59.57481933593749 -48.751835937500005 60.70774414062498 -48.625 61.875 C-46.87703958615012 77.44088885781844 -44.88040258168695 92.91272006974589 -41.88671875 108.29296875 C-40.404139249291205 116.01817294126727 -39.12638158627223 123.78177612145862 -37.80126953125 131.53515625 C-36.709956731302725 137.91221887230063 -35.59638218608026 144.28247155058807 -34.400634765625 150.640869140625 C-34.005686437677554 152.96651551049467 -33.728635193770884 155.27767867728562 -33.5 157.625 C-33.11975151996094 161.43427495181982 -32.35470843466001 165.0589597695008 -31.4765625 168.78125 C-30.74926917097349 172.1673369744841 -30.375427257426878 175.55858347358696 -30 179 C-29.340000000000003 179 -28.680000000000007 179 -28 179 C-28.04124999999999 179.84562500000004 -28.08250000000001 180.69124999999997 -28.125 181.5625 C-28 185 -28 185 -27.0546875 188.16015625 C-25.884190643249525 192.42163184328047 -25.406231589698564 196.48973461598735 -25 200.875 C-24.377269106067843 207.04821312429294 -23.56054162322519 212.9807680247029 -22 219 C-21.340000000000003 219 -20.680000000000007 219 -20 219 C-20.011601562500005 219.5684765625 -20.02320312500001 220.136953125 -20.03515625 220.72265625 C-20.092231943052184 225.606704841181 -19.819567719728298 230.18503964659624 -19 235 C-18.00999999999999 235.33000000000004 -17.02000000000001 235.65999999999997 -16 236 C-15.795039062499995 234.7844140625 -15.590078124999991 233.56882812499998 -15.37890625 232.31640625 C-15.106980390112625 230.73173485962184 -14.834833569536386 229.14710137437214 -14.5625 227.5625 C-14.427792968749998 226.76005859375005 -14.293085937499995 225.95761718749998 -14.154296875 225.130859375 C-13.11328125 219.11328125 -13.11328125 219.11328125 -12 218 C-11.570420419715049 215.81159349780273 -11.195492526434151 213.61241391652197 -10.84375 211.41015625 C-10.736556396484389 210.7504331970215 -10.629362792968749 210.090710144043 -10.5189208984375 209.41099548339844 C-10.175431357776233 207.2954306482127 -9.83721277520894 205.17907378465065 -9.5 203.0625 C-9.162522383501823 200.94954448219517 -8.823839800030129 198.83682146065848 -8.4810791015625 196.72471618652344 C-8.169669561554628 194.80536671659615 -7.863046937296502 192.8852424315677 -7.556640625 190.965087890625 C-7 188 -7 188 -6 186 C-5.590231052178865 182.66969600588993 -5.23895439768512 179.3405135753078 -4.92578125 176 C-4.46435518043279 171.63600429121198 -3.664185139889696 167.5353220904001 -2.53125 163.29296875 C-0.8011381705689473 156.64275244407224 -0.0451954936979746 150.01511659204834 0.625 143.1875 C0.8663097498326806 140.8475655641223 1.1084715841660113 138.5077188149021 1.3515625 136.16796875 C1.4614550781249989 135.09466308593755 1.5713476562499977 134.021357421875 1.6845703125 132.91552734375 C2.0438703302241663 129.59450504370193 2.4892313718822834 126.30072179491174 3 123 C3.6599999999999966 123 4.319999999999993 123 5 123 C5.338211974646811 120.14633646391746 5.670697803386304 117.29219404226592 6 114.4375 C6.047695312499997 114.03756835937497 6.047695312499997 114.03756835937497 6.2890625 112.013671875 C6.827141762382041 107.30547832915727 7.101767030404801 102.73852735322282 7 98 C7.659999999999997 98 8.319999999999993 98 9 98 C10.662271142951823 91.58838273432866 11.448349083563755 85.21308684343558 12.1044921875 78.6376953125 C12.695831053630883 73.03470291425594 13.57315951812626 67.52381441623459 14.568359375 61.97900390625 C20.21738534624521 30.478251187648425 20.21738534624521 30.478251187648425 13 18.75 C12.340000000000003 17.842499999999973 11.680000000000007 16.934999999999945 11 16 C10.730585937499995 15.217539062500009 10.461171874999991 14.435078125000018 10.18359375 13.62890625 C8.695313710904458 10.323254546002318 6.767877162029265 8.583010174307901 4.0625 6.1875 C3.187226562500001 5.397304687499968 2.3119531250000023 4.60710937500005 1.41015625 3.79296875 C-1 2 -1 2 -4 2 C-4 1.339999999999975 -4 0.6800000000000068 -4 0 C-15.856027999228075 -4.6631192926899985 -28.697065892272093 -3.982143276426939 -38 5 Z " fill="#F3DCD2" transform="translate(233,510)"/>
<path d="M0 0 C9.915395786827219 7.055738161350973 15.982828698493108 16.286837549151983 19 28 C19.472502367810648 31.118032425713068 19.570413787187704 34.161290817149506 19.5625 37.3125 C19.562983398437495 38.22330322265623 19.56346679687499 39.134106445312455 19.56396484375 40.072509765625 C19.263863829558773 53.39677889570578 16.495915870354906 66.53410669263417 14.11090087890625 79.60960388183594 C13.020200737210672 85.67188246075943 12.180063920992325 91.74843240812595 11.419189453125 97.860107421875 C10.953502329124973 101.34828569896547 10.300548991557207 104.759731102547 9.56640625 108.19921875 C9.098837583705802 110.51126518953754 8.676450039723761 112.8201403814262 8.27734375 115.14453125 C8.149001464843764 115.89170410156248 8.020659179687499 116.63887695312496 7.888427734375 117.40869140625 C7.636221403287095 118.88832301805041 7.3868681026939385 120.36844481220123 7.140869140625 121.84912109375 C6.371183266490675 126.34391938927172 5.32690473986105 130.63608484261215 4 135 C3.3400000000000034 135 2.680000000000007 135 2 135 C2.041249999999991 136.27874999999995 2.0825000000000102 137.5575 2.125 138.875 C2.1953125 141.0546875 2.1953125 141.0546875 2 143 C1.3400000000000034 143.65999999999997 0.6800000000000068 144.31999999999994 0 145 C0.11517420883342311 142.64499051938003 0.24187977730289845 140.2915092713606 0.375 137.9375 C0.44460937499999886 136.62652343750005 0.5142187499999977 135.315546875 0.5859375 133.96484375 C0.9980543590156685 130.0186304301801 1.7975656678110568 126.75882927420037 3 123 C3.6599999999999966 123 4.319999999999993 123 5 123 C4.958750000000009 121.84500000000003 4.91749999999999 120.69000000000005 4.875 119.5 C4.85182184678402 112.28000527322433 6.019048023811365 105.13817732672976 7 98 C7.659999999999997 98 8.319999999999993 98 9 98 C9.487763695237163 93.67774995093419 9.964663408121567 89.35581498950864 10.39453125 85.02734375 C11.176057165791121 77.28210023103384 12.1990570720032 69.64408833628795 13.570556640625 61.97900390625 C19.201805920676634 30.45293462109953 19.201805920676634 30.45293462109953 12 18.75 C11.670000000000016 18.296249999999986 11.670000000000016 18.296249999999986 10 16 C9.720273437499998 15.205937500000005 9.440546874999995 14.411875000000009 9.15234375 13.59375 C7.771997182570715 10.486800438057458 6.129187502217206 8.958447046242668 3.5625 6.75 C2.780039062500009 6.064218750000009 1.9975781249999898 5.378437500000018 1.19140625 4.671875 C-1 3 -1 3 -4 2 C-4 1.339999999999975 -4 0.6800000000000068 -4 0 C-12.540040227466989 -1.631854820535068 -23.00220968942014 -3.119161087574298 -31.1875 0.3515625 C-33.67947673176877 2.0761927381448686 -35.820932240699506 3.8986019826152187 -38 6 C-38.57878906249999 6.4318359374999545 -39.157578124999986 6.863671875000023 -39.75390625 7.30859375 C-46.30297533668502 12.577393691919497 -48.842015552170665 22.967244725057526 -50 31 C-50.09302593279858 33.719640505935445 -50.139853668591115 36.40677864782651 -50.125 39.125 C-50.12886718749999 39.84042968749998 -50.13273437500001 40.555859374999955 -50.13671875 41.29296875 C-50.130796542347696 44.46134984398657 -50.008966182573516 46.97310145227948 -49 50 C-48.85426941806685 51.47965926174447 -48.75336732206634 52.96403843030214 -48.68359375 54.44921875 C-48.641699218750006 55.29677734375002 -48.59980468750001 56.144335937500045 -48.556640625 57.017578125 C-48.51732421874999 57.89865234374997 -48.47800781250001 58.779726562499945 -48.4375 59.6875 C-48.39431640625 60.58017578124998 -48.3511328125 61.472851562499955 -48.306640625 62.392578125 C-48.20064647199732 64.59490108183377 -48.09857949319891 66.79733473234955 -48 69 C-48.33000000000001 69 -48.66 69 -49 69 C-49.144375 68.40187500000002 -49.144375 68.40187500000002 -49.875 65.375 C-50.491791591733005 62.87283836545191 -51.166885648462596 60.54842706886586 -52.0625 58.125 C-56.01831155919504 44.938961469349806 -55.21648476963213 28.518353317815468 -49.18359375 16.12109375 C-44.48034048268531 7.692491360059762 -37.892115768538275 0.6522482100315301 -28.75 -2.9375 C-19.068508797286853 -5.636173505982754 -8.820869945206198 -4.8554046731031235 0 0 Z " fill="#F4E4DD" transform="translate(233,510)"/>
<path d="M0 0 C3.549610535557065 2.7973050190658455 6.800657200673754 5.811708471137763 10 9 C10.378339843749984 9.356425781249982 10.378339843749984 9.356425781249982 12.29296875 11.16015625 C14 13 14 13 14 15 C14.61617187500002 15.230742187500027 15.232343749999984 15.461484375000055 15.8671875 15.69921875 C18.62980627799203 17.384112620094015 19.048882253880805 18.79665740898531 20.125 21.8125 C20.436953125000002 22.664570312500018 20.748906250000005 23.516640625000036 21.0703125 24.39453125 C21.377109375000003 25.254335937499945 21.683906250000007 26.114140625000005 22 27 C22.348046875000023 27.787617187500018 22.69609374999999 28.575234375000036 23.0546875 29.38671875 C27.96679494089051 42.96605708866025 24.702619618824542 60.01419598822679 23 74 C22.340000000000032 74 21.680000000000007 74 21 74 C21 75.98000000000002 21 77.96000000000004 21 80 C22.113749999999982 80.10312499999998 23.22750000000002 80.20624999999995 24.375 80.3125 C29.435543015976805 80.92919699836273 34.16622643215129 82.42506148096732 39 84 C39 84.65999999999997 39 85.31999999999994 39 86 C39.72090820312502 86.13285400390623 40.441816406249984 86.26570800781246 41.1845703125 86.402587890625 C45.81911662385244 87.38600228742337 50.257025801049394 88.94893702315471 54.75 90.4375 C55.72066406250002 90.75009765624998 56.691328124999984 91.06269531249995 57.69140625 91.384765625 C58.61308593749999 91.68962890624994 59.53476562499998 91.99449218749999 60.484375 92.30859375 C61.32709960937501 92.58501708984375 62.16982421875002 92.86144042968749 63.0380859375 93.146240234375 C65 94 65 94 66 96 C56.25329779136655 94.92676762197073 47.510916124865844 91.41572925909816 38.44091796875 87.91259765625 C36.06099852479588 87.0228058097307 33.66814798490634 86.20928395249064 31.25390625 85.41796875 C30.884388427734393 85.29276855468754 30.884388427734393 85.29276855468754 29.014404296875 84.6591796875 C27.61986937428088 84.18876484883879 26.219000310120293 83.73660931281404 24.811767578125 83.3056640625 C22.929687499999943 82.65234375 22.929687499999943 82.65234375 20 81 C18.50097334470169 76.75275780998811 19.09593636808907 73.05772681188387 19.875 68.6875 C19.970390624999993 68.11837890624997 19.970390624999993 68.11837890624997 20.453125 65.23828125 C20.543359374999994 64.70396484374999 20.543359374999994 64.70396484374999 21 62 C23.463161692914525 45.159470599530096 22.427452094037903 28.955691607092035 12.3671875 14.68359375 C6.425087443931432 7.401066471981039 -1.6398838349049072 1.672930658754069 -11 0 C-22.962225267697562 -1.0659408654383924 -31.52474291364041 0.3352353276582676 -41 7.75 C-41.72187500000001 8.363593750000007 -42.443749999999994 8.977187500000014 -43.1875 9.609375 C-45 11 -45 11 -47 11 C-47.2475 11.783750000000055 -47.495000000000005 12.567499999999995 -47.75 13.375 C-49 16 -49 16 -50.9375 16.9375 C-53.99748309546882 18.513854927968737 -54.666489067417814 20.932924855060946 -56 24 C-56.70703125 22.29296875 -56.70703125 22.29296875 -57 20 C-51.7873282185858 10.936525641324806 -42.84100497928455 1.9568253355312777 -32.9375 -1.5625 C-23.096387331328998 -4.1013906056452925 -9.020819004205748 -5.487950724992118 0 0 Z " fill="#C0C0DC" transform="translate(234,502)"/>
<path d="M0 0 C0.3299999999999841 0.16499999999996362 0.3299999999999841 0.16499999999996362 2 1 C1.670000000000016 1.6599999999999682 1.3400000000000034 2.32000000000005 1 3 C0.3400000000000034 3 -0.3199999999999932 3 -1 3 C-1.1229443359375182 3.7217944335938 -1.2458886718749795 4.443588867187486 -1.37255859375 5.187255859375 C-1.9969401571553362 7.9862830936134515 -2.92819450891227 10.365406360720385 -4.0390625 13.00390625 C-6.400687001332187 19.38242962034019 -6.525950378992263 25.196373864477096 -6.375 31.9375 C-6.373710937499993 33.027402343750055 -6.372421874999986 34.117304687499995 -6.37109375 35.240234375 C-6.301565252811088 41.74114886216444 -5.6150326339515 47.8689538361391 -4.43212890625 54.256103515625 C-3.8585629478471333 57.89808532720133 -3.8585290696238985 61.32175581022125 -4 65 C-12.540807039784909 68.50583345737891 -21.116250754295095 71.80075387789168 -29.8466796875 74.8056640625 C-35.15115376145582 76.64868197590852 -40.282865759590265 78.76838105868262 -45.38671875 81.1171875 C-48.38425341764113 82.12980758204321 -50.85707133371946 82.15645618543704 -54 82 C-56.55518282345392 74.18494615167015 -58.674759414001514 66.38149914840335 -60.4990234375 58.371337890625 C-61.533724641386584 53.86897578073058 -62.69668963317817 49.43430988086641 -64 45 C-65.75432225425507 39.02563484279278 -67.22678154081416 33.016851997147455 -68.60546875 26.947265625 C-68.7588671875 26.275019531249995 -68.912265625 25.60277343749999 -69.0703125 24.91015625 C-69.218876953125 24.256762695312545 -69.36744140625 23.603369140624977 -69.5205078125 22.93017578125 C-69.99636467461639 21.014633850551377 -70.58795178726362 19.129067325959113 -71.1796875 17.24609375 C-71.9498287183727 14.198534928725167 -72.1432502935745 12.858125733936276 -71 10 C-62.624026034718625 36.123426998275136 -62.624026034718625 36.123426998275136 -61 48 C-60.37212428908214 50.34406932076001 -59.70491266506498 52.67793475037422 -59 55 C-58.7022265625 56.07765625000002 -58.404453125 57.155312500000036 -58.09765625 58.265625 C-56.63823144992355 63.23078552979746 -54.823899330686515 68.0408260803473 -53.0234375 72.890625 C-52 76 -52 76 -52 79 C-47.482066809498235 77.51067281456153 -42.9655411102716 76.01717290939393 -38.4501953125 74.52001953125 C-36.918336145769814 74.01272387691711 -35.38611761816796 73.50651188922006 -33.853515625 73.00146484375 C-18.236120949890278 67.85343330920011 -18.236120949890278 67.85343330920011 -10.87841796875 64.6728515625 C-9 64 -9 64 -6 64 C-6.045439453124999 63.66585083007817 -6.045439453124999 63.66585083007817 -6.275390625 61.974853515625 C-11.975985565756389 19.377523243575638 -11.975985565756389 19.377523243575638 -2 2 C-1.3400000000000034 1.3400000000000318 -0.6800000000000068 0.67999999999995 0 0 Z " fill="#D9D9E9" transform="translate(182,518)"/>
<path d="M0 0 C11.248915925488234 7.264924868544483 16.029681408815804 20.798036681631004 20 32.9375 C20.27585937500001 33.765078125 20.551718749999992 34.592656250000005 20.8359375 35.4453125 C21.298065270883313 36.83169581264997 21.75642148462518 38.21934630802701 22.209716796875 39.608642578125 C23.040233734818486 42.05606336003507 23.95435043911931 44.46253644055224 24.87109375 46.87890625 C27.18077408614161 53.213532606549904 28.863643581668896 59.651806267991105 30.5 66.1875 C31.107616430170594 68.57693904418562 31.715685980763965 70.9662629110531 32.32421875 73.35546875 C32.61216308593751 74.49161621093748 32.90010742187499 75.62776367187502 33.19677734375 76.79833984375 C34.197616500143624 80.70982612730904 35.25017122436782 84.6047944893487 36.3125 88.5 C40.37977684468768 103.72173995093414 40.37977684468768 103.72173995093414 40 110.9375 C36.90533804550887 108.66808123337319 36.44016467082662 106.22083284736806 35.822265625 102.543701171875 C35.71591796874998 101.84865478515627 35.60957031250001 101.15360839843748 35.5 100.4375 C35.25344702401435 98.98508772678309 35.00343278702974 97.53325886957487 34.75 96.08203125 C34.62625000000003 95.3725634765625 34.5025 94.66309570312501 34.375 93.93212890625 C33.545972624435706 89.5225236599216 32.25550421024664 85.24021755386605 31 80.9375 C30.495963378320482 79.12611839083922 29.99602511649772 77.31359183219473 29.5 75.5 C29.374960937499992 75.04302734375 29.374960937499992 75.04302734375 28.7421875 72.73046875 C27.998691330475083 69.93257526994574 27.308146733334326 67.12568289625881 26.625 64.3125 C23.46660878737555 51.61313533257248 19.592845872870896 39.19012500953383 15 26.9375 C14.649374999999992 25.964257812499994 14.298749999999984 24.99101562499999 13.9375 23.98828125 C12.200706876701958 19.34100277555015 10.743318478958997 16.30648663106311 7 12.9375 C6.752499999999998 12.153750000000002 6.5049999999999955 11.370000000000005 6.25 10.5625 C4.264252033268832 6.392429269864522 1.0937740673139444 3.9947773231679378 -3 1.9375 C-6.078601628047011 1.4759476693654392 -8.91735749332463 1.5521696866655645 -12 1.9375 C-12.282304687499987 2.5614062500000045 -12.564609375000003 3.185312500000009 -12.85546875 3.828125 C-14 5.9375 -14 5.9375 -16.3125 7.6875 C-19.805139346609337 10.611570150649698 -21.762339222824863 14.014452169378075 -24 17.9375 C-24.330000000000013 17.277500000000003 -24.659999999999997 16.617500000000007 -25 15.9375 C-21.96256203945191 9.485799068760628 -17.963800609116873 3.0718541741398724 -11.5625 -0.375 C-7.283582955732072 -1.5230021338279869 -4.191568589175887 -1.4845138753331355 0 0 Z " fill="#C0C0DC" transform="translate(223,216.0625)"/>
<path d="M0 0 C2 2 2 2 2.125 5.125 C2.083750000000009 6.073750000000018 2.0424999999999898 7.022500000000036 2 8 C2.6599999999999966 8 3.319999999999993 8 4 8 C5.610705318089629 17.084377994025544 7.083659023462644 26.12934150668366 8 35.3125 C8.623509903716496 41.425495014353714 9.64480823622847 47.21905917361994 11.14453125 53.1875 C12.98819053050579 61.40399067476551 14.165994004841338 69.75972832258037 15.51025390625 78.06982421875 C16.151940995497 81.90907070187188 16.859873268196935 85.73468089889354 17.581787109375 89.5595703125 C17.985116670540975 91.91315016855083 18.269960968309817 94.24883531492651 18.5 96.625 C18.78610026584417 99.53198305830938 19.27310636165464 102.23509753908309 20 105.0625 C21.63527810083656 111.8964980333468 21.67392899000339 119.0066349171783 22 126 C21.670000000000016 126 21.340000000000003 126 21 126 C11.572944138568374 75.24697651299778 11.572944138568374 75.24697651299778 7.52197265625 50.2080078125 C6.825514890429076 45.927626595059905 6.107396148684444 41.65099819018485 5.388916015625 37.374267578125 C3.9839234236235086 29.003715513378893 2.5982275719285326 20.629889860336107 1.25 12.25 C1.1222216796874989 11.4692309570313 0.9944433593749977 10.688461914062486 0.86279296875 9.884033203125 C0.32800132923875935 6.524473628051851 0 3.413285587661676 0 0 Z " fill="#F6E6DF" transform="translate(182,571)"/>
<path d="M0 0 C0.3299999999999841 0 0.6599999999999966 0 1 0 C2.0329707637333456 14.369771068823752 -0.7959706105915814 28.133848519362687 -3.32861328125 42.22509765625 C-4.332744619365826 47.870871747139745 -5.259405052831028 53.528824011435745 -6.1875 59.1875 C-9.74376341552798 80.74781097848279 -9.74376341552798 80.74781097848279 -12 88 C-12.659999999999997 88 -13.319999999999993 88 -14 88 C-13.958750000000009 89.27874999999995 -13.91749999999999 90.5575 -13.875 91.875 C-13.8046875 94.0546875 -13.8046875 94.0546875 -14 96 C-14.330000000000013 96.33000000000004 -14.330000000000013 96.33000000000004 -16 98 C-15.884825791166577 95.64499051938003 -15.758120222697102 93.29150927136061 -15.625 90.9375 C-15.555390625000001 89.62652343750005 -15.485781250000002 88.315546875 -15.4140625 86.96484375 C-15.001945640984331 83.01863043018 -14.202434332188943 79.75882927420037 -13 76 C-12.340000000000003 76 -11.680000000000007 76 -11 76 C-11.041249999999991 74.84500000000003 -11.08250000000001 73.69000000000005 -11.125 72.5 C-11.14817815321598 65.28000527322433 -9.980951976188635 58.13817732672976 -9 51 C-8.340000000000003 51 -7.680000000000007 51 -7 51 C-6.512236304762837 46.6777499509343 -6.035336591878433 42.355814989508644 -5.60546875 38.02734375 C-4.3190126429276745 25.253114948296343 -2.2118171687415327 12.643094645775932 0 0 Z " fill="#F4DFD7" transform="translate(249,557)"/>
<path d="M0 0 C0.3299999999999841 0 0.660000000000025 0 1 0 C4.892420139639967 25.14503410207402 7.078052308824454 49.414045873064595 4.53515625 74.80078125 C4.45660400390625 75.58622314453123 4.3780517578125 76.37166503906252 4.297119140625 77.180908203125 C4 79 4 79 3 80 C2.6886886984892158 84.0126953277495 2.7213849028377695 88.03923253639425 2.6875 92.0625 C2.6584960937499886 93.18333984374999 2.6294921874999773 94.30417968749998 2.599609375 95.458984375 C2.5453968322955802 102.56082746928001 3.414829882058484 106.8832896409873 7 113 C7 113.99000000000001 7 114.98000000000002 7 116 C2.997581088281038 112.56935521852665 1.150708845368058 108.6012949864126 0.659423828125 103.38134765625 C0.6751342773437727 102.0721435546875 0.6908447265624886 100.762939453125 0.70703125 99.4140625 C0.7112760925293173 98.71227874755857 0.7155209350585778 98.0104949951172 0.7198944091796875 97.28744506835938 C0.7365640117100156 95.06622440064393 0.7741912782823874 92.84594211819302 0.8125 90.625 C0.827562118138303 89.11069027319206 0.841247843548615 87.59636619235789 0.853515625 86.08203125 C0.8864281700822971 82.3877206798777 0.9381274133148167 78.6939520727646 1 75 C1.660000000000025 75 2.319999999999993 75 3 75 C2.9066194124292792 68.2960762109974 2.79919253363164 61.592476186007616 2.6826171875 54.888916015625 C2.6446548852239857 52.61487759496458 2.609749103402976 50.34078578481723 2.578125 48.066650390625 C2.255632798068916 25.15458723155365 2.255632798068916 25.15458723155365 0.427734375 14.015625 C-0.234908420240572 9.343842005244426 -0.1761233789666221 4.706408071274268 0 0 Z " fill="#BFBFDB" transform="translate(263,327)"/>
<path d="M0 0 C1.4339115749547773 1.1629881898250574 2.7934241894357115 2.416798269464664 4.1328125 3.6875 C1.1328125 4.6875 1.1328125 4.6875 -1.20703125 3.7265625 C-2.0642578124999886 3.259921874999975 -2.9214843750000057 2.793281250000007 -3.8046875 2.3125 C-12.123788052713849 -2.1795633452059633 -21.521915602532317 -2.735898831053589 -30.7578125 -0.6640625 C-36.27626715104694 1.3663123244418216 -40.59380953546713 4.505128730147078 -45.0546875 8.296875 C-46.8671875 9.6875 -46.8671875 9.6875 -48.8671875 9.6875 C-49.1146875 10.471250000000055 -49.362187500000005 11.254999999999995 -49.6171875 12.0625 C-50.8671875 14.6875 -50.8671875 14.6875 -52.8046875 15.625 C-55.86467059546882 17.201354927968737 -56.533676567417814 19.620424855060946 -57.8671875 22.6875 C-58.57421875 20.98046875 -58.57421875 20.98046875 -58.8671875 18.6875 C-53.6545157185858 9.624025641324806 -44.70819247928455 0.6443253355312777 -34.8046875 -2.875 C-23.960267638860415 -5.672731987844315 -9.561223632992153 -6.720860126956836 0 0 Z " fill="#CCCCE3" transform="translate(235.8671875,503.3125)"/>
<path d="M0 0 C0.3300000000000125 0 0.6599999999999966 0 1 0 C1.2124694093107564 4.886796414147625 0.6656806556121921 9.157055682479609 -0.36328125 13.9296875 C-1.3032038353810549 18.46207493625468 -2.073473421311178 23.022138990789472 -2.858642578125 27.58349609375 C-3.512101485394993 31.344761261697272 -4.21198544394062 35.09086344618379 -4.97265625 38.83203125 C-6.071101674271802 44.26584152068551 -7.0082899555297615 49.72261806351071 -7.9375 55.1875 C-9.477969428482453 64.158341036205 -11.14187458332313 73.08944402457223 -13 82 C-13.330000000000013 82 -13.659999999999997 82 -14 82 C-13.88481641963591 79.33259077051571 -13.758104538655658 76.6665275910683 -13.625 74 C-13.594062500000007 73.25621093749999 -13.563125000000014 72.51242187499997 -13.53125 71.74609375 C-13.298992395376558 67.29448966138398 -12.65213393505465 63.27458167727866 -11.4814453125 58.978515625 C-10.661876792116942 55.61047136070772 -10.393740156050598 52.194180997588546 -10.0625 48.75 C-9.40983278301917 42.606502333603544 -8.34848087038884 36.804281488714764 -6.72265625 30.83203125 C-5.718133893284062 26.89538958178889 -5.102336673683709 22.924968055901218 -4.47265625 18.9140625 C-3.77041245058075 14.584526348208556 -2.8929273403971365 10.293650615526644 -2 6 C-1.3400000000000034 6 -0.6800000000000068 6 0 6 C0 4.019999999999982 0 2.0399999999999636 0 0 Z " fill="#F5E1D9" transform="translate(237,639)"/>
<path d="M0 0 C0.9900000000000091 0 1.9799999999999898 0 3 0 C2.806640625 0.6406640625000364 2.61328125 1.281328124999959 2.4140625 1.94140625 C2.1536718749999864 2.8063671874999727 1.8932812500000011 3.6713281249999454 1.625 4.5625 C1.3697656250000136 5.409414062499991 1.1145312499999989 6.256328124999982 0.8515625 7.12890625 C0.5705468749999909 8.076367187499955 0.28953125000001023 9.023828125000023 0 10 C-0.35964843749999886 11.09699218749995 -0.7192968749999977 12.193984375000014 -1.08984375 13.32421875 C-2.106725736523771 17.431025399437203 -2.261975696767621 21.048002792900775 -2.1875 25.25 C-2.1868554687499966 25.956406249999986 -2.186210937499993 26.662812499999973 -2.185546875 27.390625 C-2.1588777947181086 30.519797086410108 -1.9960482485904265 33.01185525422875 -1 36 C-0.8542694180668491 37.47965926174447 -0.7533673220663388 38.96403843030214 -0.68359375 40.44921875 C-0.6416992187500057 41.29677734375002 -0.5998046875000114 42.144335937500045 -0.556640625 43.017578125 C-0.5173242187499909 43.89865234374997 -0.47800781250001023 44.779726562499945 -0.4375 45.6875 C-0.39431640624999886 46.58017578124998 -0.3511328124999977 47.472851562499955 -0.306640625 48.392578125 C-0.20064647199731667 50.59490108183377 -0.0985794931989119 52.797334732349555 0 55 C-0.3300000000000125 55 -0.6599999999999966 55 -1 55 C-1.2887499999999932 53.803750000000036 -1.5774999999999864 52.60749999999996 -1.875 51.375 C-2.491791591733005 48.87283836545191 -3.1668856484625962 46.548427068865976 -4.0625 44.125 C-8.375546907008015 29.74817697663991 -6.747587015447493 13.265887093476863 0 0 Z " fill="#F0D6CB" transform="translate(185,524)"/>
<path d="M0 0 C0.3300000000000125 0 0.6599999999999966 0 1 0 C0.6699999999999875 11.550000000000011 0.3400000000000034 23.100000000000023 0 35 C-0.6599999999999966 35 -1.3199999999999932 35 -2 35 C-1.867226562500008 36.0415625 -1.7344531249999875 37.083124999999995 -1.59765625 38.15625 C0.6027933102468808 55.81392180198122 1.1519054670122557 73.22004933801077 1 91 C0.6699999999999875 91 0.3400000000000034 91 0 91 C-1.193884031068336 67.21122563626591 -1.193884031068336 67.21122563626591 -1 57 C-1.6599999999999966 57 -2.319999999999993 57 -3 57 C-3 44.129999999999995 -3 31.25999999999999 -3 18 C-2.3400000000000034 18 -1.6800000000000068 18 -1 18 C-1.0116015625000045 17.119570312500002 -1.023203125000009 16.239140625000005 -1.03515625 15.33203125 C-1.044179687499991 14.170585937499993 -1.0532031250000102 13.009140624999986 -1.0625 11.8125 C-1.0741015625000045 10.663945312500005 -1.085703125000009 9.515390625000009 -1.09765625 8.33203125 C-1.0119283158952896 5.406994138346931 -0.6784902265679875 2.8368370890361803 0 0 Z " fill="#5555A2" transform="translate(170,340)"/>
<path d="M0 0 C0.3299999999999841 0.16500000000002046 0.3299999999999841 0.16500000000002046 2 1 C8.764510372796849 24.192606992446315 5.285288816873901 52.18366691726692 5 76 C4.339999999999975 76 3.680000000000007 76 3 76 C3 84.57999999999998 3 93.15999999999997 3 102 C2.339999999999975 102 1.6800000000000068 102 1 102 C0.8851963272631451 94.6653209084804 1.0162184355558566 87.38416574714171 1.4375 80.0625 C1.4571179199218705 79.70804809570313 1.4571179199218705 79.70804809570313 1.556396484375 77.914306640625 C1.7369051560128241 74.98147380873604 1.9771615290604245 72.12357847569012 2.511474609375 69.232421875 C3.0619023496245177 65.59041123986583 3.1296416209453923 62.11702275466672 3.1328125 58.43359375 C3.133290863037132 58.07592170715333 3.133290863037132 58.07592170715333 3.135711669921875 56.26588439941406 C3.136389335503395 54.755624509752806 3.134564004562037 53.245361643206365 3.13037109375 51.735107421875 C3.125072508868982 49.468517316632244 3.1303013294937045 47.20213043305182 3.13671875 44.935546875 C3.1484165735653846 22.445249720696154 3.1484165735653846 22.445249720696154 1 16 C0.772024379269169 13.267107065066455 0.5833181272077468 10.549577961522289 0.4375 7.8125 C0.3943164062500273 7.062910156249984 0.3511328124999977 6.313320312500025 0.306640625 5.541015625 C0.20077314501480714 3.6942162519245016 0.09990240261333838 1.8471316568297311 0 0 Z " fill="#4D4D9E" transform="translate(261,326)"/>
<path d="M0 0 C4.214089516415356 2.809393010943552 4.655755837873784 6.331151972615146 6 11 C6.371250000000003 12.250390625000023 6.742500000000007 13.500781249999989 7.125 14.7890625 C9.672270474199081 23.53816299335864 11.844680852941735 32.35308079378183 13.8125 41.25 C14.031479492187486 42.22598144531253 14.250458984374973 43.201962890625 14.47607421875 44.20751953125 C15.484621016258416 48.881292804796146 16.282681160867696 53.18634366065322 16 58 C12.90533804550887 55.73058123337313 12.440164670826618 53.283332847368 11.822265625 49.606201171875 C11.769091796874989 49.25867797851561 11.769091796874989 49.25867797851561 11.5 47.5 C11.25344702401435 46.04758772678309 11.003432787029737 44.595758869574865 10.75 43.14453125 C10.626250000000027 42.435063476562505 10.502499999999998 41.72559570312501 10.375 40.99462890625 C9.545972624435706 36.5850236599216 8.255504210246613 32.302717553866046 7 28 C1.7829944547135028 9.251386321626626 1.7829944547135028 9.251386321626626 0 0 Z " fill="#B8B8D7" transform="translate(247,269)"/>
<path d="M0 0 C3.2875451055902545 0.5788938120713283 4.936724954849922 1.548284107408108 7.25 3.9375 C7.770781249999999 4.462148437499991 8.291562499999998 4.986796874999982 8.828125 5.52734375 C10 7 10 7 10 9 C10.616171874999992 9.230742187500027 11.232343750000013 9.461484375000055 11.8671875 9.69921875 C14.629806277992003 11.384112620094015 15.048882253880805 12.796657408985311 16.125 15.8125 C16.436953125000002 16.664570312500018 16.748906250000005 17.516640625000036 17.0703125 18.39453125 C17.377109375000003 19.254335937499945 17.683906250000007 20.114140625000005 18 21 C18.348046875000023 21.787617187500018 18.69609374999999 22.575234375000036 19.0546875 23.38671875 C21.1183086413281 29.09152264896079 21.159505701134265 34.996008002635676 21.125 41 C21.126933593749982 41.33644531250002 21.126933593749982 41.33644531250002 21.13671875 43.0390625 C21.124478797130052 49.37935808663951 20.64129265301142 55.189156163374946 18 61 C17.670000000000016 61 17.340000000000003 61 17 61 C17.072187499999984 60.116992187500045 17.144374999999997 59.23398437499998 17.21875 58.32421875 C18.590056612834474 40.59246240904281 19.501688604953415 23.481031642099765 8.15625 8.578125 C5.572001100959852 5.577768227385604 2.8071352642556633 2.7901737218734866 0 0 Z " fill="#CBCBE2" transform="translate(238,508)"/>
<path d="M0 0 C0.6599999999999966 0.3300000000000409 1.3199999999999932 0.6599999999999682 2 1 C1.6699999999999875 1.6599999999999682 1.3400000000000034 2.32000000000005 1 3 C0.3400000000000034 3 -0.3199999999999932 3 -1 3 C-1.061472167968759 3.360897216796843 -1.061472167968759 3.360897216796843 -1.37255859375 5.187255859375 C-1.9969401571553362 7.9862830936134515 -2.92819450891227 10.365406360720385 -4.0390625 13.00390625 C-6.400687001332187 19.38242962034019 -6.525950378992263 25.196373864477096 -6.375 31.9375 C-6.373710937499993 33.027402343750055 -6.372421874999986 34.117304687499995 -6.37109375 35.240234375 C-6.301307911381457 41.765210285833064 -5.667985496107889 47.962258628319205 -4.4365234375 54.370361328125 C-3.8388936550533117 57.97051255113024 -3.8599906125942027 61.3597559274491 -4 65 C-6.969999999999999 65.99000000000001 -9.939999999999998 66.98000000000002 -13 68 C-12.835000000000008 67.66999999999996 -12.835000000000008 67.66999999999996 -12 66 C-11.009999999999991 66 -10.02000000000001 66 -9 66 C-9 65.34000000000003 -9 64.68000000000006 -9 64 C-8.009999999999991 64 -7.02000000000001 64 -6 64 C-6.090878906249998 63.33170166015623 -6.1817578124999955 62.663403320312455 -6.275390625 61.974853515625 C-11.97598556575636 19.377523243575638 -11.97598556575636 19.377523243575638 -2 2 C-1.3400000000000034 1.3400000000000318 -0.6800000000000068 0.67999999999995 0 0 Z " fill="#DBDBEA" transform="translate(182,518)"/>
<path d="M0 0 C0.5362499999999955 0.22687499999994998 1.072499999999991 0.45375000000001364 1.625 0.6875 C-5.007330363346881 4.370317351637368 -11.81101733335447 7.006375560846777 -18.9677734375 9.4423828125 C-24.366732810093964 11.28996278421323 -29.574660535650565 13.417589797882556 -34.76171875 15.8046875 C-37.75925341764113 16.817307582043213 -40.23207133371946 16.84395618543715 -43.375 16.6875 C-43.375 14.047500000000014 -43.375 11.407500000000027 -43.375 8.6875 C-41.375 10.6875 -41.375 10.6875 -41.375 13.6875 C-36.78320212053583 12.181735692880011 -32.193460293053334 10.669910470661193 -27.60546875 9.152587890625 C-26.04644079820912 8.637921221216402 -24.486876618089582 8.12487580620234 -22.9267578125 7.613525390625 C-20.676281979778253 6.875582006140576 -18.427839020894424 6.131708798637533 -16.1796875 5.38671875 C-15.834253997802733 5.2741548919677825 -15.834253997802733 5.2741548919677825 -14.086151123046875 4.7045135498046875 C-10.932171616641654 3.6535478653498785 -8.006188686384405 2.501045091851779 -5.03564453125 0.999267578125 C-2.375 -0.3125 -2.375 -0.3125 0 0 Z " fill="#ACACD1" transform="translate(171.375,583.3125)"/>
<path d="M0 0 C1.317724835665146 2.6354496713303206 0.918236501085886 4.364537674154178 0.75 7.3125 C0.6598484179909718 16.35770872823963 3.1341407480255867 24.738851520862 5.36279296875 33.44677734375 C6.293372080115233 37.17551157618584 7.108210051671463 40.92207191331431 7.875 44.6875 C8.119921875000003 45.866992187500045 8.364843750000006 47.04648437499998 8.6171875 48.26171875 C9 51 9 51 8 53 C7.282804398438586 50.84841319531574 6.566652679025324 48.69655388718934 5.85546875 46.54296875 C5.335512925865004 44.99734664263974 4.800432179277905 43.456561472802946 4.23828125 41.92578125 C-0.6071978585576119 28.46611705956218 -1.7728794185261734 15.179364716807186 -1 1 C-0.6700000000000017 0.6700000000000159 -0.3400000000000034 0.339999999999975 0 0 Z " fill="#ABABD0" transform="translate(105,484)"/>
<path d="M0 0 C0.6599999999999966 0.3299999999999841 1.3199999999999932 0.660000000000025 2 1 C-3.601958136426873 4.900622702400938 -9.31901817873046 8.335983693453443 -15.34375 11.54296875 C-18.47514594053719 13.26063152326526 -21.463247027910256 15.148258949845058 -24.44140625 17.1171875 C-26 18 -26 18 -28 18 C-28 18.660000000000025 -28 19.319999999999993 -28 20 C-29.380996548699287 20.899253566594894 -30.76656027481569 21.794943825476594 -32.19921875 22.609375 C-35.52886579291689 25.180642564595246 -38.461159889216376 27.830775288799828 -39.493408203125 31.986328125 C-39.71123279834174 34.127232717987454 -39.79499136229373 36.22338296631841 -39.8125 38.375 C-39.837636718750005 39.11105468749997 -39.862773437499996 39.847109375 -39.888671875 40.60546875 C-39.94703592503063 42.40308149094341 -39.97650537829419 44.20159350215562 -40 46 C-40.33 46 -40.66 46 -41 46 C-42.20508883854042 29.339168597322043 -42.20508883854042 29.339168597322043 -37.8125 23.625 C-35.17875677438525 20.868633101937576 -32.53901012454665 18.51671862480572 -29 17 C-28.340000000000003 17 -27.680000000000007 17 -27 17 C-27 16.339999999999975 -27 15.680000000000007 -27 15 C-26.720273437499998 14.865937499999973 -26.720273437499998 14.865937499999973 -25.3046875 14.1875 C-19.95106367083477 11.570937871276158 -14.732440749427127 8.771371484425856 -9.5625 5.8125 C-8.959702148437486 5.467675781250023 -8.356904296875001 5.122851562499989 -7.73583984375 4.767578125 C-5.099068964270401 3.248108241251373 -2.5333527951947303 1.6889018634631157 0 0 Z " fill="#DFDFEC" transform="translate(144,455)"/>
<path d="M0 0 C1.3122349611184347 3.936704883355276 0.24296255756149776 6.12488143819067 -1 10 C-1.6599999999999966 10 -2.319999999999993 10 -3 10 C-3.1095703125000114 10.582656250000014 -3.2191406249999943 11.165312499999999 -3.33203125 11.765625 C-4.843883844181022 19.5830091455214 -6.4795367851228605 27.43861035536861 -9 35 C-9.659999999999997 35 -10.319999999999993 35 -11 35 C-10.938125000000014 36.23750000000001 -10.876249999999999 37.47500000000002 -10.8125 38.75 C-10.624745123818258 42.50509752363479 -11.56282624235186 44.15982900683525 -14 47 C-13.083390391373683 37.38765976216882 -11.672613381954221 28.992871808552252 -8 20 C-7.137877606126835 17.56530249878412 -6.284034476568252 15.12766112673441 -5.4375 12.6875 C-3.901527263309106 8.270948884990418 -2.1643907618258424 4.146847227730063 0 0 Z " fill="#A9A9D0" transform="translate(197,234)"/>
<path d="M0 0 C1.284182681920072 3.706825188237417 0.7933908658882558 6.731003085498003 0.1875 10.5625 C0.016054687500002274 11.698164062499984 -0.15539062499999545 12.833828125000025 -0.33203125 14.00390625 C-1 17 -1 17 -3 20 C-3.6891159224920784 22.582736986819043 -4.306117152851897 25.141125254380825 -4.875 27.75 C-5.222359520192242 29.276406384465588 -5.571354043699188 30.802441498745736 -5.921875 32.328125 C-6.09912109375 33.10220703125003 -6.2763671875 33.87628906250001 -6.458984375 34.673828125 C-7.301167837481074 38.29491297631756 -8.195588076988543 41.90040083656413 -9.125 45.5 C-9.436953125000002 46.727187500000014 -9.748906250000005 47.95437500000003 -10.0703125 49.21875 C-11 52 -11 52 -13 53 C-9.994606571168305 35.07309182802152 -5.729927467630603 17.257193314275753 0 0 Z " fill="#D0D0E5" transform="translate(184,270)"/>
<path d="M0 0 C0.86664972766539 2.915094538510857 1.07594318063434 5.229593192788343 0.75 8.25 C0.6829687499999864 8.956406249999986 0.6159375000000011 9.662812499999973 0.546875 10.390625 C0.0640848014724611 12.694223947259957 -0.5864228142609136 14.606437634497183 -1.4453125 16.78515625 C-3.0282185510385773 20.869244573251933 -3.91565122701968 24.874679540924376 -4.625 29.1875 C-4.74979736328126 29.916384277343752 -4.874594726562492 30.645268554687505 -5.003173828125 31.396240234375 C-6.074637712318946 37.909631503851244 -6.6674255906632425 44.405852228667584 -7 51 C-7.3300000000000125 51 -7.659999999999997 51 -8 51 C-8.137903032885987 36.93389064562842 -7.922085844377932 24.906212812914703 -3.2109375 11.51953125 C-1.8982527526604542 7.704276548861515 -0.8828106372044431 3.9325201111834076 0 0 Z " fill="#C6C6DF" transform="translate(176,307)"/>
<path d="M0 0 C0.3300000000000125 0 0.6599999999999966 0 1 0 C0.8595750525136623 3.5002385624247836 0.7116677435666077 7.000123986765857 0.5625 10.5 C0.5231835937499909 11.482265624999968 0.48386718750001023 12.46453125000005 0.443359375 13.4765625 C0.09141549788319026 21.59834427961846 -0.5669967701785197 29.214389664571286 -3 37 C-3.6599999999999966 37 -4.319999999999993 37 -5 37 C-4.958750000000009 38.278749999999945 -4.91749999999999 39.557500000000005 -4.875 40.875 C-4.8046875 43.0546875 -4.8046875 43.0546875 -5 45 C-5.659999999999997 45.65999999999997 -6.319999999999993 46.32000000000005 -7 47 C-6.884825791166577 44.64499051938003 -6.7581202226971016 42.29150927136061 -6.625 39.9375 C-6.555390625000001 38.626523437500055 -6.485781250000002 37.315546874999995 -6.4140625 35.96484375 C-6.0019456409843315 32.01863043018011 -5.202434332188943 28.758829274200366 -4 25 C-3.3400000000000034 25 -2.680000000000007 25 -2 25 C-2.041249999999991 23.845000000000027 -2.0825000000000102 22.690000000000055 -2.125 21.5 C-2.14817815321598 14.280005273224333 -0.9809519761886349 7.13817732672976 0 0 Z " fill="#EABFAC" transform="translate(240,608)"/>
<path d="M0 0 C2 2 2 2 2.125 5.125 C2.083750000000009 6.073750000000018 2.0424999999999898 7.022500000000036 2 8 C2.6599999999999966 8 3.319999999999993 8 4 8 C5.924438062132708 18.675184722019253 7.494086014169881 29.149017269436627 8 40 C5.5052869802940165 37.505286980294045 5.407546555714845 35.98105154588211 4.74609375 32.5390625 C4.638779296874986 31.98283203125004 4.638779296874986 31.98283203125004 4.095703125 29.16796875 C3.987099609375008 28.583378906250005 3.987099609375008 28.583378906250005 3.4375 25.625 C3.2164257812499955 24.494492187499986 2.995351562499991 23.363984374999973 2.767578125 22.19921875 C1.3671079730380598 14.811844474092027 0.4652616914830219 7.503945446120497 0 0 Z " fill="#F4E1DA" transform="translate(182,571)"/>
<path d="M0 0 C0 0.3299999999999841 0 0.660000000000025 0 1 C-0.8572265624999886 1.0373828125000273 -1.7144531250000057 1.0747656249999977 -2.59765625 1.11328125 C-13.84934530361653 1.7602216578178513 -19.844089847416882 4.4494113040539105 -28 12 C-29.328035114014654 13.151969852686989 -30.661011658129866 14.298280080102472 -32 15.4375 C-32.99000000000001 16.28312500000004 -33.97999999999999 17.128749999999968 -35 18 C-34.22793564267289 11.736491974360433 -30.558145359658937 9.001486899806764 -26 5 C-25.723496093749986 4.731874999999945 -25.723496093749986 4.731874999999945 -24.32421875 3.375 C-17.611771142349824 -2.0566817422824215 -8.118215448547318 -0.3902988196417141 0 0 Z " fill="#DA8D6D" transform="translate(223,508)"/>
<path d="M0 0 C2.4294515994569394 3.6441773991854234 2.1617957464534356 5.712412718984069 2 10 C2.6599999999999966 10 3.319999999999993 10 4 10 C4.123750000000001 11.299375000000055 4.247500000000002 12.598749999999995 4.375 13.9375 C4.714004417530987 17.06602648178591 5.212531420133786 20.018405042009704 6 23.0625 C7.635278100836558 29.896498033346802 7.673928990003418 37.0066349171783 8 44 C7.6699999999999875 44 7.340000000000003 44 7 44 C5.997487222467896 38.53836218957724 5.000741977502628 33.07571477981401 4.00927734375 27.612060546875 C3.671335285338273 25.75435125454169 3.3318315786175674 23.896925329990268 2.99072265625 22.039794921875 C2.500098275885449 19.367107881900893 2.015137959871396 16.693445055217467 1.53125 14.01953125 C1.378133544921866 13.19226028442381 1.2250170898437602 12.36498931884762 1.0672607421875 11.512649536132813 C0.3692488321106566 7.625606997655495 -0.19616821292018471 3.9689033078316243 0 0 Z " fill="#F9EFEB" transform="translate(196,653)"/>
<path d="M0 0 C3.2374821219780756 3.2374821219780188 3.1283660856652773 6.199168231271983 3.13671875 10.609375 C3.1328515624999795 11.315781249999986 3.128984375000016 12.022187499999973 3.125 12.75 C3.1288671875000205 13.440937500000018 3.132734374999984 14.131875000000036 3.13671875 14.84375 C3.1247714467596666 21.19971532386444 2.6631170260891395 27.141142542603916 0 33 C-0.3300000000000125 33 -0.6599999999999966 33 -1 33 C-0.9278124999999875 32.20980468749997 -0.8556250000000034 31.41960937500005 -0.78125 30.60546875 C0.059602796215187936 20.386771573773558 0.09831496604112999 10.246604238509235 0 0 Z " fill="#D4D4E7" transform="translate(256,536)"/>
<path d="M0 0 C1.1614453125000068 0.009023437499990905 2.3228906250000136 0.01804687499998181 3.51953125 0.02734375 C4.399960937499998 0.03894531250000455 5.2803906249999955 0.050546875000009095 6.1875 0.0625 C6.1875 0.3924999999999841 6.1875 0.722500000000025 6.1875 1.0625 C5.076328125000003 1.1256640624999932 3.965156250000007 1.1888281249999864 2.8203125 1.25390625 C-9.420585987998209 2.1709409398770276 -16.5716869001279 5.031473928106152 -24.8125 14.5 C-25.080624999999998 14.83966796874995 -25.080624999999998 14.83966796874995 -26.4375 16.55859375 C-26.891250000000014 17.054882812499955 -27.345 17.551171875000023 -27.8125 18.0625 C-28.472499999999997 18.0625 -29.132499999999993 18.0625 -29.8125 18.0625 C-28.427626782947186 13.707843106378391 -26.469924790226486 11.442229133199703 -23.0625 8.4375 C-22.222031249999986 7.682109374999982 -21.3815625 6.926718749999964 -20.515625 6.1484375 C-13.902269156182228 1.0450675280365544 -8.177485058794048 -0.08260085917976312 0 0 Z " fill="#F8F1EE" transform="translate(215.8125,505.9375)"/>
<path d="M0 0 C0.3300000000000125 0 0.6599999999999966 0 1 0 C1.2273149309285145 5.675296108848443 0.3867603790612577 10.665907512264994 -0.875 16.1875 C-1.2441531120291245 17.864151766760187 -1.6113409808314714 19.541237434015216 -1.9765625 21.21875 C-2.065024414062492 21.624804687500045 -2.065024414062492 21.624804687500045 -2.5126953125 23.6796875 C-3.509150130327072 28.42433007947318 -4.273031666422696 33.20774822207591 -5 38 C-5.3300000000000125 38 -5.659999999999997 38 -6 38 C-5.535789515443582 24.92207014197959 -4.3625110105285785 12.445431843888855 0 0 Z " fill="#F7EBE5" transform="translate(229,683)"/>
<path d="M0 0 C0.3300000000000125 1.32000000000005 0.6599999999999966 2.6399999999999864 1 4 C1.6599999999999966 4 2.319999999999993 4 3 4 C3.132773437499992 5.215585937500009 3.2655468750000125 6.431171875000018 3.40234375 7.68359375 C3.5805009145040287 9.268254844799003 3.7588987483764242 10.852888895169485 3.9375 12.4375 C4.024511718750006 13.239941406249955 4.111523437500011 14.042382812500023 4.201171875 14.869140625 C4.88671875 20.88671875 4.88671875 20.88671875 6 22 C6.237012391548149 24.858779093117846 6.422191816405302 27.698832974174024 6.5625 30.5625 C6.605683593750001 31.368808593750032 6.648867187500002 32.17511718749995 6.693359375 33.005859375 C6.799752617861003 35.00368804650088 6.900408878798316 37.00182069588959 7 39 C5.493230832966617 36.24712963784816 4.665542159556281 33.90623999125944 4.21875 30.8046875 C4.09991455078125 30.010866699218695 3.9810791015625 29.217045898437505 3.858642578125 28.399169921875 C3.7402905273437455 27.566193847656223 3.621938476562491 26.733217773437445 3.5 25.875 C3.2451738744865963 24.15990515523822 2.988679090007622 22.445057359867064 2.73046875 20.73046875 C2.6072021484374943 19.911108398437477 2.4839355468749886 19.091748046874955 2.35693359375 18.24755859375 C1.9271068583369129 15.541002556668673 1.390855263621006 12.865982178329887 0.8125 10.1875 C0.08200409154881072 6.740283770862675 -0.1862703845460203 3.5391373063741867 0 0 Z " fill="#DE9677" transform="translate(189,601)"/>
<path d="M0 0 C0.3299999999999841 0 0.6599999999999966 0 1 0 C1 1.6499999999999773 1 3.3000000000000114 1 5 C0.3400000000000034 5 -0.3199999999999932 5 -1 5 C-1.2578125 5.5839453125000205 -1.515625 6.167890624999984 -1.78125 6.76953125 C-3.096983638014052 9.177492491365456 -4.541585923205673 10.774726929232656 -6.5 12.6875 C-6.80421874999999 12.988496093749973 -6.80421874999999 12.988496093749973 -8.34375 14.51171875 C-10 16 -10 16 -12 17 C-12.330000000000013 17.99000000000001 -12.659999999999997 18.980000000000018 -13 20 C-14.7421875 21.16796875 -14.7421875 21.16796875 -16.875 22.1875 C-17.573671875000002 22.531679687500002 -18.272343750000005 22.875859375000005 -18.9921875 23.23046875 C-21 24 -21 24 -24 24 C-20.873783740501267 20.60582234682994 -18.43458973297055 18.393728201790736 -14 17 C-14 16.339999999999975 -14 15.680000000000007 -14 15 C-12.390625 13.66796875 -12.390625 13.66796875 -10.25 12.1875 C-5.600877250078611 8.811546907742581 -2.353229634922968 5.29476667857665 0 0 Z " fill="#D7D7E8" transform="translate(165,435)"/>
<path d="M0 0 C0.63671875 1.8046875 0.63671875 1.8046875 1 4 C-0.17064845782817883 5.672354939754513 -1.352586896251296 7.338427258137045 -2.6015625 8.953125 C-4.625086533564286 11.914931127339912 -5.762986482297379 15.077927291664878 -7.01953125 18.421875 C-8.515032482626196 22.35426867941547 -10.261002891230874 26.170506366859485 -12 30 C-13.224191629056179 26.06204091352555 -12.483202719614155 23.838877627236627 -11 20 C-10.340000000000003 20 -9.680000000000007 20 -9 20 C-8.936835937500007 19.394140625000006 -8.873671875000014 18.78828125000001 -8.80859375 18.1640625 C-7.716929116969027 10.69477816873544 -4.656786321462164 5.852111152639594 0 0 Z " fill="#4D4D9E" transform="translate(205,224)"/>
<path d="M0 0 C0.3300000000000125 0 0.6599999999999966 0 1 0 C3.395611465848475 9.070176744910555 4.593141114688649 17.642245637838982 5 27 C-0.5023235554258179 21.497676444574154 -0.05460701709625937 13.331937254351374 -0.0625 6.0625 C-0.04655169726353847 4.041622210392575 -0.02734857286563397 2.0207556617392584 0 0 Z " fill="#F0D1C4" transform="translate(204,689)"/>
<path d="M0 0 C21.719931434764845 -0.6732929377022288 21.719931434764845 -0.6732929377022288 29.5625 5.6875 C29.964687499999997 6.069062499999973 29.964687499999997 6.069062499999973 32 8 C31.00999999999999 8.329999999999984 30.02000000000001 8.660000000000025 29 9 C27.06288686417986 7.947668433044612 25.17359854638147 6.806575739609798 23.3125 5.625 C15.625949202674462 1.2611906872971304 8.701151782101988 0.9218125000324449 0 1 C0 0.6700000000000159 0 0.339999999999975 0 0 Z " fill="#A4A4CD" transform="translate(208,499)"/>
<path d="M0 0 C0.3299999999999841 0 0.660000000000025 0 1 0 C0.9988720703124727 0.6694262695312432 0.9977441406250023 1.3388525390624864 0.99658203125 2.028564453125 C1.0938712658450527 26.585636254937697 1.0938712658450527 26.585636254937697 8 35 C8.571054687500009 35.72445312499997 9.142109375000018 36.44890624999999 9.73046875 37.1953125 C11.094420293154258 38.84760534325102 12.53811257539121 40.433692045062 14 42 C11.282808943154691 41.629745394451845 10.148687313556024 41.14900707121956 8.18359375 39.1796875 C7.6073828125000205 38.41914062500001 7.031171874999984 37.65859375000002 6.4375 36.875 C5.858710937500007 36.12992187499998 5.279921875000014 35.384843750000016 4.68359375 34.6171875 C-0.23649487190448326 26.96878987430165 -0.3866396708000934 21.04420976762441 -0.1875 12.0625 C-0.17396484375001364 10.901699218750025 -0.16042968750002728 9.740898437499993 -0.146484375 8.544921875 C-0.11131409846569795 5.696129475721989 -0.062092873497704204 2.848311556088163 0 0 Z " fill="#E4E4EF" transform="translate(265,407)"/>
<path d="M0 0 C2.0625 0.4375 2.0625 0.4375 4 1 C-15.784996107939804 11.49542682926824 -15.784996107939804 11.49542682926824 -21.3828125 10.6328125 C-21.64964843749999 10.528398437499959 -21.64964843749999 10.528398437499959 -23 10 C-18.658747681789947 7.100043451435681 -14.157365155478203 5.521822370894029 -9.25 3.875 C-1.1203125000000114 1.1203124999999545 -1.1203125000000114 1.1203124999999545 0 0 Z " fill="#A7A7CF" transform="translate(169,583)"/>
<path d="M0 0 C0.3300000000000125 0 0.6599999999999966 0 1 0 C1 1.6499999999999773 1 3.2999999999999545 1 5 C1.6599999999999966 5 2.319999999999993 5 3 5 C3.832058197774387 10.720400109698858 4.120366642482281 16.22240116085004 4 22 C4.659999999999997 22 5.319999999999993 22 6 22 C6 25.299999999999955 6 28.600000000000023 6 32 C5.6699999999999875 32 5.340000000000003 32 5 32 C5 30.019999999999982 5 28.039999999999964 5 26 C4.340000000000003 26 3.680000000000007 26 3 26 C2.867226562500008 24.940390624999964 2.7344531249999875 23.88078125000004 2.59765625 22.7890625 C2.41946124635831 21.40101720847531 2.241065396362302 20.012997690872908 2.0625 18.625 C1.9754882812499943 17.926328125000055 1.8884765624999886 17.227656249999995 1.798828125 16.5078125 C1.11328125 11.2265625 1.11328125 11.2265625 0 9 C-0.06950541338696326 7.459760039344928 -0.08452357318279269 5.916650122794749 -0.0625 4.375 C-0.053476562500009095 3.5577343749999955 -0.04445312499998977 2.740468749999991 -0.03515625 1.8984375 C-0.023554687499995453 1.2719531249999818 -0.011953124999990905 0.6454687499999636 0 0 Z " fill="#DF9777" transform="translate(200,663)"/>
<path d="M0 0 C-2.2903935022473547 1.2724408345818574 -4.007659482573615 2.001094211796243 -6.625 2.375 C-7.408749999999998 2.5812500000000114 -8.192499999999995 2.7874999999999943 -9 3 C-10 4.8125 -10 4.8125 -11 7 C-11.381562500000001 7.288749999999993 -11.381562500000001 7.288749999999993 -13.3125 8.75 C-16.805139346609337 11.674070150649698 -18.762339222824863 15.076952169378075 -21 19 C-21.330000000000013 18.340000000000003 -21.659999999999997 17.680000000000007 -22 17 C-18.96256203945191 10.548299068760628 -14.963800609116873 4.134354174139872 -8.5625 0.6875 C-5.619415808936992 -0.10210795369982861 -3.033986865396514 -0.1411156681579655 0 0 Z " fill="#CECEE3" transform="translate(220,215)"/>
<path d="M0 0 C4.232386954251922 2.8215913028346336 4.918835361940296 6.238016425624664 6 11 C6.879344873899299 16.640482434381056 7.445691170659671 22.319964819347888 8 28 C5.467199061497439 25.467199061497467 5.2690027463006 23.137846803283935 4.5703125 19.7109375 C3.728412353958646 15.709028586625323 2.6950203979867524 11.758732750663171 1.68359375 7.796875 C1.050750468298986 5.20764191601188 0.5015217067405331 2.6174656694648206 0 0 Z " fill="#A5A5CD" transform="translate(247,269)"/>
<path d="M0 0 C0.3300000000000125 0 0.6599999999999966 0 1 0 C1.0271682398747544 2.5417397749488373 1.0469196926756865 5.083184147945985 1.0625 7.625 C1.0708789062499875 8.337851562499964 1.0792578125000034 9.050703125000041 1.087890625 9.78515625 C1.107102955849058 13.973444375096392 0.826732700495171 17.87284620382718 0 22 C-0.9900000000000091 22.33000000000004 -1.9799999999999898 22.659999999999968 -3 23 C-2.6922445436609337 19.916173855257625 -2.3779641040016486 16.833046349746496 -2.0625 13.75 C-1.9754882812499943 12.877304687499986 -1.8884765624999886 12.004609374999973 -1.798828125 11.10546875 C-1.7118164062499943 10.261132812500023 -1.6248046874999886 9.416796875000045 -1.53515625 8.546875 C-1.45660400390625 7.771826171874977 -1.3780517578125 6.9967773437499545 -1.297119140625 6.1982421875 C-1.0099708606713023 4.073769621597648 -0.5620522775313077 2.067034749602385 0 0 Z " fill="#EED2C7" transform="translate(249,557)"/>
<path d="M0 0 C1.311129184912943 3.6882803183900705 0.6872251259968607 6.322572944829517 -0.21484375 10.078125 C-0.48876953125 11.23828125 -0.7626953125 12.3984375 -1.044921875 13.59375 C-1.3394726562499955 14.800312500000018 -1.634023437499991 16.006875000000036 -1.9375 17.25 C-2.228183593749975 18.472031249999986 -2.518867187500007 19.694062499999973 -2.818359375 20.953125 C-3.5374159369358154 23.9708049976324 -4.264916947032361 26.986191153795744 -5 30 C-5.329999999999984 30 -5.660000000000025 30 -6 30 C-6.02688150803823 28.354254341213505 -6.046341232734392 26.70838586576633 -6.0625 25.0625 C-6.0741015625000045 24.145976562499982 -6.085703125000009 23.229453124999964 -6.09765625 22.28515625 C-6 20 -6 20 -5 19 C-4.67561835017267 17.130382127358757 -4.390742969161749 15.25384941354696 -4.125 13.375 C-3.347947490736317 8.441893918462483 -2.226355598432008 4.452711196864016 0 0 Z " fill="#4C4C9D" transform="translate(325,511)"/>
<path d="M0 0 C0.660000000000025 0 1.3199999999999932 0 2 0 C2.3829787234042783 18.34042553191489 2.3829787234042783 18.34042553191489 0 27 C-0.3299999999999841 27 -0.660000000000025 27 -1 27 C-1.1723783962166863 17.959710776192082 -0.6331683965755701 9.011343072691943 0 0 Z " fill="#30308E" transform="translate(259,541)"/>
<path d="M0 0 C4.538065679397278 0.5546524719263175 7.48350117616684 2.3423542391466867 11.25 4.875 C12.307031250000023 5.573671875000002 13.364062499999989 6.2723437500000045 14.453125 6.9921875 C17 9 17 9 18 12 C13.837402409846902 10.519965301278887 10.414906915369045 8.455307096010813 6.75 6 C5.692968749999977 5.298749999999984 4.635937500000011 4.597500000000025 3.546875 3.875 C1 2 1 2 0 0 Z " fill="#B8B8D7" transform="translate(277,449)"/>
<path d="M0 0 C4.266416202494469 4.266416202494497 4.828675653113464 12.241328373602528 5.19140625 18.08203125 C5.1880952597337 20.396413446138467 5.140776822977756 22.69021731188343 5 25 C4.6699999999999875 25 4.340000000000003 25 4 25 C3.327276525357604 21.584497039648113 2.6628820061611407 18.167425477709116 2 14.75 C1.8092187500000136 13.78191406250005 1.6184374999999989 12.813828124999986 1.421875 11.81640625 C1.2414062500000114 10.8818359375 1.0609374999999943 9.947265625 0.875 8.984375 C0.7074218749999943 8.125537109375045 0.5398437499999886 7.266699218749977 0.3671875 6.3818359375 C0 4 0 4 0 0 Z " fill="#F8EBE5" transform="translate(207,714)"/>
<path d="M0 0 C0.3299999999999841 0 0.660000000000025 0 1 0 C0.5547114966449271 5.273153329205002 -0.08373163172802833 10.017702242492874 -2 15 C-3.459226928635303 14.885904067308388 -4.917405976122609 14.758344563698529 -6.375 14.625 C-7.187109374999977 14.555390624999973 -7.999218750000011 14.485781249999945 -8.8359375 14.4140625 C-11 14 -11 14 -13 12 C-9.699999999999989 12.330000000000041 -6.399999999999977 12.659999999999968 -3 13 C-2.8762500000000273 11.783125000000041 -2.7524999999999977 10.566249999999968 -2.625 9.3125 C-2.2110869442617513 5.935209414773226 -1.4542654916788251 3.102433048914804 0 0 Z " fill="#D4D4E6" transform="translate(308,585)"/>
<path d="M0 0 C0.6599999999999966 0.3299999999999841 1.3199999999999932 0.660000000000025 2 1 C1.4018749999999898 1.5362499999999955 0.803750000000008 2.072499999999991 0.1875 2.625 C-2 5 -2 5 -3.5 8.125 C-5.1927079120141 11.369356831360392 -5.907818875365649 11.453909437682796 -9 13 C-10.75 16.125 -10.75 16.125 -12 19 C-12.7265625 17.30859375 -12.7265625 17.30859375 -13 15 C-11.5234375 12.59765625 -11.5234375 12.59765625 -9.375 10.0625 C-8.640234375000006 9.189804687499986 -7.905468750000011 8.317109374999973 -7.1484375 7.41796875 C-4.84958545870748 4.830715270799885 -2.52411925221827 2.3663617989546424 0 0 Z " fill="#8989BE" transform="translate(190,507)"/>
<path d="M0 0 C3.9796926662571366 -0.061906330363996176 7.575985319768421 -0.053830570485843054 10.86328125 2.37890625 C14.373805516331856 6.272713562780012 15.958819024618322 9.89821322062977 17 15 C14 13 14 13 13.3125 10.75 C10.784637047164807 5.453525241678619 5.179170561871274 2.450235400347168 0 0 Z " fill="#B8B8D7" transform="translate(216,216)"/>
<path d="M0 0 C0.9900000000000091 0 1.9799999999999898 0 3 0 C2.5747618405789012 1.607460560081222 2.1342987421007535 3.2108983552388963 1.6875 4.8125 C1.4438671874999898 5.705820312500009 1.200234375000008 6.599140625000018 0.94921875 7.51953125 C-0.02008189574229391 10.05247738187802 -0.950096035815136 11.271649598824524 -3 13 C-3.3156318221636525 7.739469630605981 -2.665909370966091 4.554261842067035 0 0 Z " fill="#EFD3C9" transform="translate(185,524)"/>
<path d="M0 0 C-1.4084471771163578 3.215243050790889 -3.103447856815393 5.321838676933339 -5.625 7.75 C-5.940820312499994 8.056796874999975 -5.940820312499994 8.056796874999975 -7.5390625 9.609375 C-7.780117187499997 9.83882812500002 -7.780117187499997 9.83882812500002 -9 11 C-9.329999999999998 9.680000000000007 -9.659999999999997 8.360000000000014 -10 7 C-8.713722890647205 5.827393891008626 -7.420802169205359 4.66207169622686 -6.125 3.5 C-5.765351562500001 3.1751562499999864 -5.765351562500001 3.1751562499999864 -3.9453125 1.53125 C-2 0 -2 0 0 0 Z " fill="#30308E" transform="translate(116,475)"/>
<path d="M0 0 C7.360951817657167 0.3132319922407305 13.308830890659067 1.9391460457270568 20 5 C17.091370121269847 6.4543149393650765 15.357295410131542 5.502971805395191 12.25 4.6875 C11.713750000000005 4.5469921874999955 11.713750000000005 4.5469921874999955 9 3.8359375 C5.961318841512082 2.9892216563588363 2.967400436258572 2.0715612686489067 0 1 C0 0.6699999999999591 0 0.34000000000003183 0 0 Z " fill="#C7C7E0" transform="translate(280,592)"/>
<path d="M0 0 C0.6599999999999966 0.3300000000000409 1.3199999999999932 0.6599999999999682 2 1 C1.6699999999999875 1.6599999999999682 1.3400000000000034 2.32000000000005 1 3 C0.3400000000000034 3 -0.3199999999999932 3 -1 3 C-1.1121484374999966 3.7154296874999773 -1.2242968749999932 4.4308593749999545 -1.33984375 5.16796875 C-2.044560051017413 8.191159982175236 -3.132877978792436 10.56322688229318 -4.5625 13.3125 C-5.017539062499992 14.195507812499955 -5.4725781250000125 15.078515625000023 -5.94140625 15.98828125 C-6.116074218749986 16.320214843750023 -6.116074218749986 16.320214843750023 -7 18 C-8 16 -8 16 -7.109375 13.3203125 C-6.660781250000014 12.265859374999991 -6.212187499999999 11.211406249999982 -5.75 10.125 C-5.311718750000011 9.075703125000018 -4.873437499999994 8.026406250000036 -4.421875 6.9453125 C-3.1593926907789296 4.330170573756277 -1.8355435089879961 2.2350441550618143 0 0 Z " fill="#DADAEA" transform="translate(182,518)"/>
<path d="M0 0 C3.820535251901731 6.822384378396009 4.276361730871827 13.369345542039184 4 21 C1.3428192612118437 18.342819261211844 1.4060533035277274 16.442084872145188 0.875 12.75 C0.7074218749999943 11.631093749999991 0.5398437499999886 10.512187499999982 0.3671875 9.359375 C0.022464763561430345 6.205528687902529 -0.06722437603406206 3.1691491558908638 0 0 Z " fill="#C2C2DD" transform="translate(254,287)"/>
<path d="M0 0 C1.3122349611184347 3.936704883355276 0.24296255756149776 6.12488143819067 -1 10 C-1.6599999999999966 10 -2.319999999999993 10 -3 10 C-3.6599999999999966 13.300000000000011 -4.319999999999993 16.599999999999994 -5 20 C-5.3300000000000125 20 -5.659999999999997 20 -6 20 C-6.337158915375426 14.486046904797774 -5.441129818452197 10.995616508122168 -3 6.0625 C-2.443125000000009 4.919101562500003 -1.8862499999999898 3.775703125000007 -1.3125 2.59765625 C-1.095937499999991 2.1690429687500057 -1.095937499999991 2.1690429687500057 0 0 Z " fill="#D0D0E4" transform="translate(197,234)"/>
<path d="M0 0 C2.1781646456342116 7.326553808042377 -0.15011699712857762 14.185062384437913 -3 21 C-4.532908299436144 17.01443842146608 -3.5027806688323153 13.394311483600575 -2.625 9.375 C-2.555390625000001 9.034687500000018 -2.555390625000001 9.034687500000018 -2.203125 7.3125 C-1.1552933673469283 2.3105867346938567 -1.1552933673469283 2.3105867346938567 0 0 Z " fill="#6666AB" transform="translate(176,307)"/>
<path d="M0 0 C1.0774845066536614 3.2931568724485487 0.8886250700919618 5.517141815075092 0.125 8.875 C0.02960937500000682 9.310703125000032 0.02960937500000682 9.310703125000032 -0.453125 11.515625 C-0.6335937499999886 12.335468750000018 -0.8140625000000057 13.155312500000036 -1 14 C-1.3445011417904027 15.998106622384398 -1.6837722339831487 17.997224148560008 -2 20 C-2.3300000000000125 20 -2.6599999999999966 20 -3 20 C-3.1205834707315603 13.582279724397722 -3.007845288725406 7.34942531897002 -2 1 C-1.3400000000000034 0.6699999999999591 -0.6800000000000068 0.34000000000003183 0 0 Z " fill="#F9EFEA" transform="translate(243,607)"/>
<path d="M0 0 C6.6127699984641595 1.8651402559770531 13.295880143067961 4.877736155785101 18 10 C16.582085924699015 9.545540360480459 15.16571953809364 9.086250559185373 13.75 8.625 C12.961093749999975 8.369765625000014 12.172187500000007 8.114531250000027 11.359375 7.8515625 C9.13372042329479 7.048263331586554 7.090683276757943 6.10288337994109 5 5 C5 4.339999999999975 5 3.680000000000007 5 3 C4.175000000000011 2.670000000000016 4.175000000000011 2.670000000000016 0 1 C0 0.6700000000000159 0 0.339999999999975 0 0 Z " fill="#D1D2E5" transform="translate(294,459)"/>
<path d="M0 0 C0.6599999999999966 0 1.3199999999999932 0 2 0 C2 2.25 2 2.25 1 5 C-2.473889305551978 7.437953705465873 -5.73822063787776 9 -10 9 C-6.873783740501267 5.605822346829939 -4.434589732970551 3.3937282017907364 0 2 C0 1.339999999999975 0 0.6800000000000068 0 0 Z " fill="#A8A8CF" transform="translate(151,450)"/>
<path d="M0 0 C3.3864664180518957 3.8702473349164563 6.329531246640954 8.101324760088175 8 13 C7.6699999999999875 13.990000000000009 7.340000000000003 14.97999999999999 7 16 C5.825584645562344 13.899833766681638 4.660359879567011 11.795412445313843 3.5 9.6875 C3.1661328124999955 9.092597656250007 2.832265624999991 8.497695312500014 2.48828125 7.884765625 C0.9317488594044505 5.041711564626496 0 3.2933901172797846 0 0 Z " fill="#DDDDEB" transform="translate(231,225)"/>
<path d="M0 0 C0.8024414062500114 0.009667968750022737 1.6048828124999943 0.01933593749998863 2.431640625 0.029296875 C3.2650195312500045 0.054433593749990905 4.098398437500009 0.07957031249998181 4.95703125 0.10546875 C5.3795214843750045 0.11223632812499318 5.3795214843750045 0.11223632812499318 7.517578125 0.146484375 C9.601835092663862 0.1818107642824316 11.685764017580993 0.2356173582820702 13.76953125 0.29296875 C13.76953125 0.6229687499999841 13.76953125 0.952968750000025 13.76953125 1.29296875 C12.923906250000016 1.3535546874999795 12.078281250000003 1.414140625000016 11.20703125 1.4765625 C5.0335390490699865 1.93255908302325 -1.0973625880899363 2.451169865031943 -7.23046875 3.29296875 C-4.912103755435936 0.5128547108755015 -3.600778249960541 -0.07661230319064316 0 0 Z " fill="#E0A892" transform="translate(209.23046875,507.70703125)"/>
<path d="M0 0 C1.3199999999999932 0 2.6399999999999864 0 4 0 C4 0.6599999999999682 4 1.32000000000005 4 2 C4.3506249999999795 2.0618749999999864 4.3506249999999795 2.0618749999999864 6.125 2.375 C9.176563872523104 3.0383834505485083 12.053409377266973 3.9721195502094133 15 5 C15 5.330000000000041 15 5.659999999999968 15 6 C8.828045921245348 5.725690929833149 4.828516445442347 4.961859647542383 0 1 C0 0.6699999999999591 0 0.34000000000003183 0 0 Z " fill="#B6B6D7" transform="translate(269,586)"/>
<path d="M0 0 C2.4067239804591622 2.4067239804591054 2.7913217487140685 4.113785485564335 3.6875 7.375 C3.823496093749995 7.853242187499973 3.823496093749995 7.853242187499973 4.51171875 10.2734375 C4.994743303206846 12.97064660510705 4.900453803091025 14.449721443594512 4 17 C1.1662592164599914 11.332518432919983 0.3677616846161982 6.302674388077662 0 0 Z " fill="#6464AA" transform="translate(122,569)"/>
<path d="M0 0 C2.512393816109352 3.768590724164028 3.1266319928959376 6.26239249017965 3.0625 10.6875 C3.053476562500009 11.495742187500014 3.0444531249999898 12.303984375000027 3.03515625 13.13671875 C3.0235546874999955 13.751601562500014 3.011953124999991 14.366484375000027 3 15 C2.6700000000000017 15 2.3400000000000034 15 2 15 C-0.10428383961291843 9.870808140943495 -0.2175566599329386 5.438916498323351 0 0 Z " fill="#CBCBE2" transform="translate(125,583)"/>
<path d="M0 0 C1.1352900202122669 3.3449148917662797 0.8663311831731448 5.260655311586106 -0.3125 8.5625 C-0.5767578124999773 9.326914062500009 -0.8410156250000114 10.091328125000018 -1.11328125 10.87890625 C-2 13 -2 13 -4 16 C-3.6083964950787504 10.04492601136974 -2.6287540526055864 5.37180175967228 0 0 Z " fill="#363691" transform="translate(325,511)"/>
<path d="M0 0 C1.2380013982637763 3.5764484838731505 0.7492607064332049 6.336947657437577 0 10 C-0.9900000000000091 9.669999999999959 -1.9799999999999898 9.340000000000032 -3 9 C-3 6.690000000000055 -3 4.3799999999999955 -3 2 C-2.6699999999999875 2.1649999999999636 -2.6699999999999875 2.1649999999999636 -1 3 C-0.6699999999999875 2.009999999999991 -0.3400000000000034 1.0199999999999818 0 0 Z " fill="#DD8E6B" transform="translate(217,736)"/>
<path d="M0 0 C-1.4096347039215118 0.7018053119951446 -2.8280764100912563 1.3859395822208853 -4.25 2.0625 C-5.038906249999997 2.4453515625000364 -5.827812499999993 2.828203124999959 -6.640625 3.22265625 C-9.259935223466698 4.085640909718336 -10.448551763974336 3.9304593337800497 -13 3 C-9.09881501011094 0.36096309507502156 -4.596619111790602 -2.2983095558953437 0 0 Z " fill="#C4C4DE" transform="translate(159,590)"/>
<path d="M0 0 C-1 1.5 -1 1.5 -3 3 C-5.718462348412061 3.273454792443772 -8.256771987154679 3.134912853090782 -11 3 C-4.333333333333343 -1.444444444444457 -4.333333333333343 -1.444444444444457 0 0 Z " fill="#8B8BBF" transform="translate(147,593)"/>
<path d="M0 0 C4.756125266134063 3.608095029480978 5.608045951031613 8.474364229852767 7 14 C4.349202785141301 12.674601392570594 4.096574081732513 11.380253855279761 2.9375 8.6875 C2.5958984375000114 7.907617187500023 2.2542968749999943 7.1277343750000455 1.90234375 6.32421875 C1.087116907563626 4.224392034633638 0.48741917525703116 2.195898758632211 0 0 Z " fill="#EDCDC0" transform="translate(240,517)"/>
<path d="M0 0 C3.3000000000000114 0.9900000000000091 6.600000000000023 1.9800000000000182 10 3 C9.670000000000016 3.990000000000009 9.339999999999975 4.980000000000018 9 6 C7.514999999999986 5.339999999999975 7.514999999999986 5.339999999999975 0 2 C0 1.339999999999975 0 0.6800000000000068 0 0 Z " fill="#9595C4" transform="translate(306,467)"/>
<path d="M0 0 C1.1875 1.5625 1.1875 1.5625 2 4 C0.625 7.75 0.625 7.75 -1 11 C-2.6008015116107117 6.997996220973278 -1.2927969212255448 3.9544376413957707 0 0 Z " fill="#9E9EC9" transform="translate(318,543)"/>
<path d="M0 0 C6.822115384615358 3.473076923076917 6.822115384615358 3.473076923076917 7.72265625 6.140625 C7.814179687499973 6.754218750000007 7.905703125000002 7.367812500000014 8 8 C6.6610241712899665 7.049566264442433 5.328945725885546 6.089408530243304 4 5.125 C3.257499999999993 4.591328125000018 2.5149999999999864 4.0576562499999795 1.75 3.5078125 C1.1725000000000136 3.010234374999982 0.5950000000000273 2.5126562500000205 0 2 C0 1.339999999999975 0 0.6800000000000068 0 0 Z " fill="#BDBDDB" transform="translate(316,471)"/>
<path d="M0 0 C0.954657830802347 2.169676888187155 1.1440121165887263 3.563287932162723 0.3984375 5.82421875 C-0.3587038532157578 7.568474297361547 -1.1760919773006435 9.286271312785345 -2 11 C-2.3300000000000125 11 -2.6599999999999966 11 -3 11 C-3.3925325426414474 6.551297850063463 -2.1530595713854552 3.857565065398944 0 0 Z " fill="#ACACD1" transform="translate(169,427)"/>
<path d="M0 0 C0.3300000000000125 0 0.6599999999999966 0 1 0 C1.125 6.625 1.125 6.625 0 10 C-0.6599999999999966 10 -1.3199999999999932 10 -2 10 C-1.4627410508353478 6.622943748107787 -0.8893537695893201 3.303314001331728 0 0 Z " fill="#F9EFEA" transform="translate(229,683)"/>
</svg>
