<?xml version="1.0" encoding="UTF-8"?>
<!-- Generator: visioncortex VTracer 0.6.12 -->
<svg version="1.1" xmlns="http://www.w3.org/2000/svg" width="313" height="358">
<path d="M0 0 C1.228476562499992 -0.02900390624999999 2.4569531250000125 -0.05800781249999998 3.72265625 -0.087890625 C14.896336627006804 -0.16657851497892112 14.896336627006804 -0.16657851497892112 19.75 4.3125 C20.416445312500002 4.8474609375 21.082890625000005 5.382421875 21.76953125 5.93359375 C28.666674259503424 12.920895491653802 31.710140444475883 21.667310470363134 35.2783203125 30.62255859375 C36.96682204034923 34.85613774350333 38.68148119677153 39.078683905383606 40.3984375 43.30078125 C43.288706028949605 50.415230796654704 46.166583262308365 57.53460162332917 49.0390625 64.65625 C53.80665538942452 76.47137932698101 58.618286757528665 88.26834958717855 63.4375 100.0625 C65.12639687486575 104.19657586370879 66.81517680521404 108.33069949015153 68.50390625 112.46484375 C68.92993637084962 113.50773056030273 69.3559664916992 114.55061737060547 69.79490661621094 115.62510681152344 C74.36275091897011 126.80888868091513 78.91862291363756 137.9975408932323 83.474609375 149.1861572265625 C99.43148048784218 188.37034621888097 115.44165160359142 227.5314454133723 131.63427734375 266.618896484375 C132.72800891259573 269.25940860671085 133.82108448130782 271.90019151468846 134.9140625 274.541015625 C148.39727338953128 307.10913898715194 148.39727338953128 307.10913898715194 153.582763671875 318.3974609375 C157.3576978938828 326.6546534646246 158.57801613115282 336.24758666767053 155.9140625 345.0859375 C152.70778997204218 351.3908895180647 147.47625911818267 356.07041362727244 140.75 358.3125 C139.1737265945447 358.40626899703636 137.5937783560962 358.4433911216598 136.01472187042236 358.44672107696533 C135.03484815895558 358.45117892086506 134.0549744474888 358.4556367647648 133.04540759325027 358.4602296948433 C131.96624660432337 358.4600453323126 130.88708561539647 358.45986096978186 129.7752227783203 358.4596710205078 C128.63082581698893 358.4633477085829 127.48642885565755 358.46702439665796 126.30735319852829 358.47081249952316 C123.12572744309472 358.4799401374724 119.94413200369252 358.48454921112545 116.76249539852142 358.4872018098831 C113.33290706977698 358.491105019699 109.90333367757393 358.5006833625566 106.4737548828125 358.50941467285156 C98.18865509158891 358.5291788398197 89.90355407806214 358.5392453310352 81.61843660473824 358.5481424629688 C77.71686776872247 358.5525255298408 73.81530029106071 358.5578923002831 69.91373252868652 358.56313133239746 C56.944008514372484 358.5801437311378 43.974285346710985 358.5946378507707 31.004551887512207 358.60188007354736 C27.63869538787563 358.6037899697906 24.272838895234145 358.6057103018087 20.906982421875 358.607666015625 C20.488698540441703 358.60790788572285 20.488698540441703 358.60790788572285 18.371928595006466 358.6091318950057 C4.820408853257646 358.6174320031062 -8.731022611217071 358.64276852327185 -22.282503806054592 358.6752466931939 C-36.19535186634262 358.7083190891367 -50.10815506752894 358.7263290044674 -64.02104264497757 358.72952431440353 C-71.83268444478715 358.7316892709833 -79.64419752082188 358.7404357300899 -87.45580101013184 358.7659854888916 C-94.10865683670988 358.78769499779673 -100.7613526751355 358.7957417343043 -107.4142399057746 358.78601870685816 C-110.80777274683624 358.7814745323113 -114.20070792942104 358.78554891592853 -117.59424018859863 358.8027801513672 C-121.27654091481753 358.8204319666358 -124.95800370952944 358.8134247166314 -128.6403045654297 358.8002471923828 C-129.17430825561286 358.80573181539773 -129.17430825561286 358.80573181539773 -131.87669056653976 358.8334873318672 C-139.24872785087896 358.76977712165734 -144.53699663617064 357.51657819233924 -150.2734375 352.56640625 C-150.719453125 352.0082421875 -151.16546875 351.450078125 -151.625 350.875 C-152.086484375 350.3194140625 -152.54796875 349.763828125 -153.0234375 349.19140625 C-155.97739036808238 344.6664020157719 -156.5908518041075 340.6793174660302 -156.6875 335.3125 C-156.70748046875 334.714375 -156.70748046875 334.714375 -156.80859375 331.6875 C-156.09959659340277 321.1476674931611 -149.638497400562 310.4685415210067 -145.4375 300.9375 C-138.10240795611958 284.1786786225468 -131.19464107070326 267.2499215203758 -124.28955078125 250.310546875 C-121.32656681128628 243.0449084560099 -118.34354148597367 235.78750238150664 -115.36233520507813 228.52932739257813 C-100.87475928139179 193.24964176380715 -86.45990919651291 157.94015164570564 -72.05126953125 122.628173828125 C-69.53155119484686 116.4529733880635 -67.01159213080147 110.27787132774921 -64.49114990234375 104.10296630859375 C-63.65792606436233 102.06154143847701 -62.824796311004434 100.02007816446282 -61.99176025390625 97.97857666015625 C-59.9238110613189 92.91107590096539 -57.85424447007048 87.84424772367926 -55.78125 82.77880859375 C-51.872193530106614 73.22194394083341 -47.98034594439706 63.65898972516684 -44.14141845703125 54.073699951171875 C-42.32928371756911 49.5517566861613 -40.50848694852198 45.03332427412974 -38.68701171875 40.51513671875 C-37.82199572575912 38.36241548870536 -36.96121706042506 36.20798606143182 -36.10498046875 34.0517578125 C-34.916655183589924 31.060018412346302 -33.71378535910502 28.07450456591156 -32.5078125 25.08984375 C-32.164851379394534 24.215008392333985 -31.821890258789068 23.34017303466797 -31.468536376953125 22.438827514648438 C-28.54433774192131 15.270139451559448 -24.586992046896228 8.80322979943662 -18.5 3.875 C-17.927656250000013 3.4019140625 -17.355312499999997 2.928828125 -16.765625 2.44140625 C-12.006812968604152 -1.1031728146221575 -5.685136971461532 0.04418500236887196 0 0 Z M-19.65625 15.10791015625 C-22.13043215079034 18.530377193878163 -23.70435883756207 22.086441343526488 -25.25 26 C-25.616979980468756 26.890419921875 -25.98395996093751 27.78083984375 -26.362060546875 28.6982421875 C-27.67442358243028 31.89654888039405 -28.96179004446485 35.104392136671116 -30.25 38.3125 C-31.31630434412763 40.93990489864697 -32.38694323316892 43.5655405141522 -33.45703125 46.19140625 C-35.97332756533952 52.373667298314416 -38.47722201055147 58.560867428589425 -40.9765625 64.75 C-45.60165919890976 76.19915788173363 -50.26822556639645 87.63130282396047 -54.9375 99.0625 C-55.78801257320312 101.14509763785624 -56.63851708103829 103.22769856954768 -57.489013671875 105.310302734375 C-58.78018086852943 108.47183241729734 -60.07140760553894 111.63333773756928 -61.36277770996094 114.79478454589844 C-64.35666121920083 122.12428528986486 -67.34880573323575 129.45449388214075 -70.33984375 136.78515625 C-80.94358995638737 162.77307539022948 -91.55736500513879 188.7568640185636 -102.19329833984375 214.73162841796875 C-103.23275489603415 217.27038082821025 -104.27192620429369 219.80924982997826 -105.31103515625 222.34814453125 C-112.48110518910704 239.8651668769192 -119.6715994852612 257.3737508548801 -126.90887451171875 274.8631286621094 C-127.63214631758181 276.61102541172056 -128.3550108098667 278.3590907653821 -129.07745361328125 280.1073303222656 C-132.62141273610143 288.6793918250513 -136.1887367196682 297.2371108537757 -139.91796875 305.73046875 C-140.05921676635742 306.05355766296384 -140.05921676635742 306.05355766296384 -140.77401733398438 307.68858337402344 C-142.05857068782836 310.62524142444124 -143.35384291243633 313.5559205695397 -144.6728515625 316.477294921875 C-148.01572253684546 324.0722640335593 -150.9241755838659 331.74308770935346 -149.6875 340.125 C-147.70362046697198 344.52403722541 -145.79415941055217 348.06629427975 -141.38933038711548 350.22391188144684 C-135.18613683273935 352.3785744790281 -129.54897499620452 352.73655391135367 -123.0159912109375 352.6934509277344 C-121.91617589473725 352.6981308996677 -120.81636057853699 352.7028108716011 -119.68321752548218 352.7076326608658 C-116.01459882451599 352.7195553193314 -112.34635555310373 352.7101357945215 -108.677734375 352.70068359375 C-106.04078589691446 352.7047505027359 -103.40386289076507 352.7099849393949 -100.76692199707031 352.71661376953125 C-94.3582032855489 352.7299244737448 -87.94959022828385 352.7270852930397 -81.54086744785309 352.7183758467436 C-76.330433401375 352.7115891910893 -71.12002887713967 352.71068681843104 -65.90959167480469 352.7139472961426 C-65.16683741658926 352.71440699525175 -64.42408315837383 352.714866694361 -63.658821195364 352.7153403237462 C-62.14973357457167 352.7162995401242 -60.640645962253785 352.71727218079184 -59.13155835866928 352.71825809776783 C-44.99468389315598 352.7268041893083 -30.857867874490395 352.7169901356503 -16.721002995967865 352.7008569985628 C-4.6018959161010855 352.6874545193163 7.517124944067319 352.68978283210254 19.63623046875 352.70361328125 C33.72395861570729 352.7196829110916 47.81163559104846 352.72598028863587 61.89937162399292 352.7167764902115 C63.40277829967792 352.71582088479386 64.90618498335652 352.7148777717463 66.40959167480469 352.7139472961426 C67.14921603828668 352.7134844695777 67.88884040176868 352.7130216430128 68.65087762475014 352.71254479140043 C73.85253548832384 352.70995904913013 79.05416078030606 352.7143169160932 84.25581359863281 352.72138595581055 C90.59851047445332 352.72981654048783 96.94109602641464 352.72748817541105 103.28378021717072 352.71154372394085 C106.51735597302002 352.7036818402956 109.75070895502608 352.7021598624909 112.98428916931152 352.7104911804199 C116.4950407308043 352.71870198996874 120.00527265296614 352.70838985800316 123.5159912109375 352.6934509277344 C124.53030165195463 352.7001430928707 125.54461209297182 352.70683525800706 126.58965921401978 352.7137302160263 C133.45909893711456 352.65712483968196 140.40952753296273 352.0417628308584 145.90625 347.55078125 C149.05931844567328 343.0319942043112 151.3408993526234 338.98393398954516 150.75 333.3125 C148.70371326737745 325.15347295390336 145.7005926564574 317.49470915412326 142.1875 309.875 C136.7792083791128 297.8483079766061 131.70801495591598 285.6928949801944 126.6875 273.5 C126.28086120605468 272.5127996826172 125.87422241210936 271.52559936523437 125.45526123046875 270.50848388671875 C122.54739300076432 263.4456613766293 119.64747288105673 256.37959238588485 116.75 249.3125 C116.36654418945312 248.377607421875 115.98308837890625 247.44271484375 115.5880126953125 246.4794921875 C110.35317785077962 233.7161657197445 105.13250361570374 220.947076972138 99.91864013671875 208.1751708984375 C98.72602164788893 205.25376324381298 97.53319791253477 202.3324394600638 96.34033203125 199.4111328125 C91.74251386101096 188.15078561962613 87.14641340154009 176.8897380821914 82.55131530761719 165.62828063964844 C78.3672044551733 155.3740874814023 74.18196420951324 145.12035545977898 69.99661254882813 134.86666870117188 C68.75149788933115 131.8161697903589 67.50647282347404 128.76563432789385 66.261474609375 125.715087890625 C62.46603509369592 116.41549612076686 58.670121661455084 107.11609909497712 54.87190246582031 97.81764221191406 C53.578544459018275 94.6512152939501 52.28547112909118 91.48467223357666 50.992431640625 88.318115234375 C49.30652854907851 84.18956868704362 47.619371776009444 80.0615375971662 45.931396484375 75.933837890625 C42.03458809277754 66.39933996469193 38.15828463504076 56.85758381388224 34.3359375 47.29296875 C33.646369604744365 45.572539287057225 32.95667569004701 43.85216032791944 32.266845703125 42.1318359375 C31.004376861755333 38.98340035792326 29.75158381318883 35.831368193049634 28.504638671875 32.6767578125 C24.64181929195837 22.988117837715308 20.76696285014114 14.306020784165666 12.75 7.3125 C8.719180486114709 5.967202573518272 4.583413227448091 6.091423802250502 0.375 6.0625 C-0.3675000000000068 6.041875 -1.1100000000000136 6.02125 -1.875 6 C-10.024712247533614 5.942404860441458 -14.522321111214325 8.90863472996139 -19.65625 15.10791015625 Z " fill="#BD5428" transform="translate(156.25,-0.3125)"/>
</svg>
